<?xml version="1.0" standalone="no"?>
<!DOCTYPE svg PUBLIC "-//W3C//DTD SVG 1.1//EN" "http://www.w3.org/Graphics/SVG/1.1/DTD/svg11.dtd" >
<svg>
<metadata>
Created by FontForge 20120731 at Mon May 30 17:26:43 2016
 By www
Copyright (c) 2009 by atipo. All rights reserved.
</metadata>
<defs>
<font id="Calendas-Italic" horiz-adv-x="565" >
  <font-face 
    font-family="Calendas"
    font-weight="400"
    font-style="italic"
    font-stretch="normal"
    units-per-em="1000"
    panose-1="2 0 0 0 0 0 0 0 0 0"
    ascent="750"
    descent="-250"
    x-height="466"
    cap-height="700"
    bbox="-272 -318 1282 959"
    underline-thickness="50"
    underline-position="-50"
    unicode-range="U+0020-FB06"
  />
<missing-glyph horiz-adv-x="499" 
d="M269 124h-55v55h55v-55zM265 229h-47v39c0 111 106 129 106 206c0 46 -35 70 -76 70c-46 0 -79 -21 -79 -81h-48c0 93 57 131 128 131s125 -39 125 -116c0 -106 -109 -114 -109 -210v-39zM48 48h404v603h-404v-603zM0 700h500v-700h-500v700z" />
    <glyph glyph-name="ellipsis" unicode="&#x2e;&#x2e;&#x2e;" horiz-adv-x="893" 
d="M95 -16c-30 0 -50 21 -50 50c0 34 28 70 67 70c30 0 49 -21 49 -50c0 -34 -28 -70 -66 -70zM407 -16c-30 0 -50 21 -50 50c0 34 28 70 67 70c30 0 49 -21 49 -50c0 -34 -28 -70 -66 -70zM720 -16c-30 0 -50 21 -50 50c0 34 28 70 67 70c30 0 49 -21 49 -50
c0 -34 -28 -70 -66 -70z" />
    <glyph glyph-name="f_b" unicode="fb" horiz-adv-x="801" 
d="M674 750l-175 -462h4c36 68 111 178 204 178c61 0 95 -35 95 -101c0 -162 -151 -381 -325 -381c-75 0 -103 50 -103 117c0 42 12 87 27 126l149 404c2 6 7 22 7 35c0 34 -19 69 -94 69c-84 0 -144 -74 -192 -227l-19 -62h181l-19 -50h-178l-83 -248
c-60 -182 -174 -451 -344 -451c-60 0 -81 30 -81 60c0 39 31 54 58 54c7 0 13 -1 13 -1c-4 -9 -6 -17 -6 -25c0 -24 16 -40 48 -40c82 0 137 90 186 252l123 408h-76l7 24l83 17l9 27c55 167 178 306 333 306c58 0 96 -27 103 -50c21 4 42 10 65 21zM672 409
c-83 0 -226 -211 -226 -330c0 -41 17 -58 52 -58c125 0 222 220 222 325c0 42 -13 63 -48 63z" />
    <glyph glyph-name="f_h" unicode="fh" horiz-adv-x="807" 
d="M678 750c-150 -395 -219 -563 -221 -570h4c69 138 178 286 279 286c39 0 53 -18 53 -50c0 -19 -8 -57 -19 -88l-60 -170c-17 -48 -27 -78 -27 -94c0 -10 5 -14 15 -14c25 0 65 52 86 82l15 -11c-32 -59 -89 -137 -158 -137c-24 0 -38 9 -38 38c0 27 11 70 34 136l60 171
c8 23 12 38 12 50c0 11 -3 20 -15 20c-101 0 -276 -303 -276 -407c0 0 -12 -8 -36 -8c-23 0 -38 13 -38 35c0 9 2 19 5 29l198 583c2 6 6 22 6 35c0 34 -19 69 -94 69c-85 0 -144 -74 -192 -227l-19 -62h181l-19 -50h-178l-83 -248c-60 -182 -174 -451 -344 -451
c-60 0 -81 30 -81 60c0 39 31 54 58 54c7 0 13 -1 13 -1c-4 -9 -6 -17 -6 -25c0 -24 16 -40 48 -40c82 0 137 90 186 252l123 408h-76l7 24l83 17l9 27c55 167 178 306 333 306c57 0 92 -23 105 -52c21 4 43 12 67 23z" />
    <glyph glyph-name="f_j" unicode="fj" horiz-adv-x="557" 
d="M344 21l102 315c1 4 6 21 6 33c0 23 -26 28 -68 28h-148l-83 -249c-60 -182 -174 -451 -344 -451c-60 0 -81 30 -81 60c0 39 31 54 58 54c7 0 13 -1 13 -1c-4 -9 -6 -17 -6 -25c0 -24 16 -40 48 -40c82 0 137 90 186 252l123 408h-76l7 24l83 17l9 27
c55 167 178 306 333 306c97 0 124 -50 124 -85c0 -33 -31 -69 -71 -69c-16 0 -28 5 -36 9c5 12 9 26 9 39c0 22 -9 62 -69 62c-84 0 -144 -74 -192 -227l-19 -62h268c15 4 35 12 48 19l-134 -416c-26 -80 -55 -142 -120 -189c-58 -42 -125 -30 -190 -71l-6 19
c50 43 115 47 156 86c33 31 51 66 70 127z" />
    <glyph glyph-name="f_t" unicode="ft" horiz-adv-x="638" 
d="M619 573c-23 -23 -53 -120 -53 -120h127l-18 -44h-124l-67 -182c-29 -78 -44 -125 -44 -148c0 -14 8 -19 17 -19c35 0 89 65 121 112l17 -10c-30 -58 -112 -178 -185 -178c-34 0 -52 22 -52 62c0 22 4 50 16 84l98 281h-232l-87 -263c-60 -182 -174 -451 -344 -451
c-60 0 -81 30 -81 60c0 39 31 54 58 54c7 0 13 -1 13 -1c-4 -9 -6 -17 -6 -25c0 -24 16 -40 48 -40c82 0 137 90 186 252l123 408h-76l7 24l83 17l9 27c55 167 178 306 333 306c78 0 114 -30 114 -66c0 -33 -30 -58 -63 -58c-16 0 -26 4 -34 8c5 9 9 20 9 31
c0 21 -16 41 -74 41c-80 0 -139 -74 -187 -227l-20 -66l237 14l26 71c14 40 38 57 71 57c15 0 30 -7 34 -11z" />
    <glyph glyph-name="f_f_l" unicode="ffl" horiz-adv-x="900" 
d="M588 676c59 63 132 103 215 103c59 0 96 -28 105 -52c21 7 35 12 58 23l-202 -585c-16 -46 -24 -71 -24 -90c0 -14 6 -21 20 -21c41 0 84 61 106 93l15 -11c-31 -58 -93 -152 -167 -152c-30 0 -58 16 -58 66c0 20 6 47 17 81l169 500c3 10 5 23 5 36c0 19 -12 68 -87 68
c-84 0 -144 -74 -192 -227l-19 -62h181l-19 -50h-178l-83 -248c-60 -182 -174 -451 -344 -451c-60 0 -81 30 -81 60c0 39 31 54 58 54c7 0 13 -1 13 -1c-4 -9 -6 -17 -6 -25c0 -24 16 -40 48 -40c82 0 137 90 186 252l121 399h-209l-83 -248c-60 -182 -174 -451 -344 -451
c-60 0 -81 30 -81 60c0 39 31 54 58 54c7 0 13 -1 13 -1c-4 -9 -6 -17 -6 -25c0 -24 16 -40 48 -40c82 0 137 90 186 252l123 408h-76l7 24l83 17l8 26c51 156 171 236 306 236c50 0 89 -13 110 -32zM526 594c-4 43 -40 70 -93 70c-61 0 -128 -38 -163 -157l-18 -61h210
l9 27c14 42 32 83 55 121z" />
    <glyph glyph-name="T_h" unicode="Th" horiz-adv-x="991" 
d="M542 48l193 571c1 3 3 10 3 14c0 24 -27 26 -88 26h-161l-130 -560c-2 -10 -4 -20 -4 -29c0 -24 16 -31 46 -36l32 -5l-7 -29s-54 3 -140 3c-85 0 -132 -3 -132 -3l7 29l21 5c55 13 81 40 94 98l122 526h-150c-53 0 -77 -21 -77 -43c0 -11 4 -21 10 -30
c-6 -11 -24 -18 -41 -18c-23 0 -46 11 -46 42c0 60 77 74 156 79c408 24 539 34 612 57c-150 -395 -214 -558 -216 -565h4c69 138 178 286 279 286c39 0 53 -18 53 -50c0 -19 -8 -57 -19 -88l-60 -170c-17 -48 -27 -78 -27 -94c0 -10 5 -14 15 -14c25 0 65 52 86 82l15 -11
c-32 -59 -89 -137 -158 -137c-24 0 -38 9 -38 38c0 27 11 70 34 136l60 171c8 23 12 38 12 50c0 11 -3 20 -15 20c-101 0 -276 -303 -276 -407c0 0 -12 -8 -36 -8c-23 0 -38 13 -38 35c0 9 2 19 5 29z" />
    <glyph glyph-name="f_r" unicode="fr" horiz-adv-x="697" 
d="M353 48l81 287c2 7 7 25 7 34c0 23 -22 27 -64 27h-141l-83 -248c-60 -182 -174 -451 -344 -451c-60 0 -81 30 -81 60c0 39 31 54 58 54c7 0 13 -1 13 -1c-4 -9 -6 -17 -6 -25c0 -24 16 -40 48 -40c82 0 137 90 186 252l123 408h-76l7 24l83 17l9 27
c55 167 178 306 333 306c78 0 114 -30 114 -66c0 -33 -30 -58 -63 -58c-16 0 -26 4 -34 8c5 9 9 20 9 31c0 21 -16 41 -74 41c-80 0 -139 -74 -187 -227l-19 -62h261c16 5 32 11 48 19c-78 -193 -106 -263 -114 -285h4s119 285 242 285c42 0 64 -26 64 -59
c0 -41 -35 -59 -62 -59c-4 0 -7 1 -7 1s2 6 2 13c0 11 -6 31 -36 31c-96 0 -232 -300 -232 -400c0 0 -12 -7 -36 -7c-23 0 -36 18 -36 40c0 9 0 13 3 23z" />
    <glyph glyph-name="fi" unicode="fi" horiz-adv-x="573" 
d="M568 465l-118 -307c-18 -48 -27 -78 -27 -94c0 -10 4 -14 13 -14c25 0 96 67 117 97l15 -10c-32 -59 -118 -153 -187 -153c-24 0 -38 9 -38 38c0 28 6 58 25 110l73 205c3 8 7 20 7 32c0 23 -22 28 -64 28h-148l-83 -249c-60 -182 -174 -451 -344 -451
c-60 0 -81 30 -81 60c0 39 31 54 58 54c7 0 13 -1 13 -1c-4 -9 -6 -17 -6 -25c0 -24 16 -40 48 -40c82 0 137 90 186 252l123 408h-76l7 24l83 17l9 27c55 167 178 306 333 306c97 0 124 -50 124 -85c0 -33 -31 -69 -71 -69c-16 0 -28 5 -36 9c5 12 9 26 9 39
c0 22 -9 62 -69 62c-84 0 -144 -74 -192 -227l-19 -62h268c16 5 32 11 48 19z" />
    <glyph glyph-name="f_f_i" unicode="ffi" horiz-adv-x="871" 
d="M866 465l-118 -307c-18 -48 -27 -78 -27 -94c0 -10 4 -14 13 -14c25 0 96 67 117 97l15 -10c-32 -59 -118 -153 -187 -153c-24 0 -38 9 -38 38c0 28 6 58 25 110l73 205c3 8 7 20 7 32c0 23 -22 28 -64 28h-148l-83 -249c-60 -182 -174 -451 -344 -451
c-60 0 -81 30 -81 60c0 39 31 54 58 54c7 0 13 -1 13 -1c-4 -9 -6 -17 -6 -25c0 -24 16 -40 48 -40c82 0 137 90 186 252l120 399h-209l-83 -248c-60 -182 -174 -451 -344 -451c-60 0 -81 30 -81 60c0 39 31 54 58 54c7 0 13 -1 13 -1c-4 -9 -6 -17 -6 -25
c0 -24 16 -40 48 -40c82 0 137 90 186 252l123 408h-76l7 24l83 17l8 26c51 156 171 236 306 236c50 0 89 -13 110 -32c59 63 133 103 216 103c97 0 124 -50 124 -85c0 -33 -31 -69 -71 -69c-16 0 -28 5 -36 9c5 12 9 26 9 39c0 22 -9 62 -69 62c-84 0 -144 -74 -192 -227
l-19 -62h268c16 5 32 11 48 19zM462 446l9 27c14 42 32 83 55 121c-4 43 -40 70 -93 70c-61 0 -128 -38 -163 -157l-18 -61h210z" />
    <glyph glyph-name="fl" unicode="fl" horiz-adv-x="603" 
d="M669 750l-202 -585c-16 -46 -24 -71 -24 -90c0 -14 6 -21 20 -21c41 0 84 61 106 93l15 -11c-31 -58 -93 -152 -167 -152c-30 0 -58 16 -58 66c0 20 6 47 17 81l169 500c3 10 5 23 5 36c0 19 -12 68 -87 68c-84 0 -144 -74 -192 -227l-19 -62h181l-19 -50h-178l-83 -248
c-60 -182 -174 -451 -344 -451c-60 0 -81 30 -81 60c0 39 31 54 58 54c7 0 13 -1 13 -1c-4 -9 -6 -17 -6 -25c0 -24 16 -40 48 -40c82 0 137 90 186 252l123 408h-76l7 24l83 17l9 27c55 167 178 306 333 306c59 0 96 -28 105 -52c21 7 35 12 58 23z" />
    <glyph glyph-name="f_f" unicode="ff" horiz-adv-x="605" 
d="M687 446l-21 -50h-131l-83 -248c-60 -182 -174 -451 -344 -451c-60 0 -81 30 -81 60c0 39 31 54 58 54c7 0 13 -1 13 -1c-4 -9 -6 -17 -6 -25c0 -24 16 -40 48 -40c82 0 137 90 186 252l120 399h-209l-83 -248c-60 -182 -174 -451 -344 -451c-60 0 -81 30 -81 60
c0 39 31 54 58 54c7 0 13 -1 13 -1c-4 -9 -6 -17 -6 -25c0 -24 16 -40 48 -40c82 0 137 90 186 252l123 408h-76l7 24l83 17l8 26c51 156 171 236 306 236c50 0 89 -13 110 -32c59 63 133 103 216 103c78 0 114 -30 114 -66c0 -33 -30 -58 -63 -58c-16 0 -26 4 -34 8
c5 9 9 20 9 31c0 21 -16 41 -74 41c-80 0 -139 -74 -187 -227l-19 -62h136zM463 446l9 27c14 42 32 83 55 121c-4 43 -40 70 -93 70c-61 0 -128 -38 -163 -157l-18 -61h210z" />
    <glyph glyph-name="f_f_h" unicode="ffh" horiz-adv-x="1106" 
d="M977 750c-150 -395 -219 -563 -221 -570h4c69 138 178 286 279 286c39 0 53 -18 53 -50c0 -19 -8 -57 -19 -88l-60 -170c-17 -48 -27 -78 -27 -94c0 -10 5 -14 15 -14c25 0 65 52 86 82l15 -11c-32 -59 -89 -137 -158 -137c-24 0 -38 9 -38 38c0 27 11 70 34 136l60 171
c8 23 12 38 12 50c0 11 -3 20 -15 20c-101 0 -276 -303 -276 -407c0 0 -12 -8 -36 -8c-23 0 -38 13 -38 35c0 9 2 19 5 29l198 583c2 6 6 22 6 35c0 34 -19 69 -94 69c-85 0 -144 -74 -192 -227l-19 -62h181l-19 -50h-178l-83 -248c-60 -182 -174 -451 -344 -451
c-60 0 -81 30 -81 60c0 39 31 54 58 54c7 0 13 -1 13 -1c-4 -9 -6 -17 -6 -25c0 -24 16 -40 48 -40c82 0 137 90 186 252l120 399h-209l-83 -248c-60 -182 -174 -451 -344 -451c-60 0 -81 30 -81 60c0 39 31 54 58 54c7 0 13 -1 13 -1c-4 -9 -6 -17 -6 -25
c0 -24 16 -40 48 -40c82 0 137 90 186 252l123 408h-76l7 24l83 17l8 26c51 156 171 236 306 236c50 0 89 -13 110 -32c59 62 133 103 216 103c57 0 92 -23 105 -52c21 4 43 12 67 23zM463 446l9 27c14 42 32 83 55 121c-4 43 -40 70 -93 70c-61 0 -128 -38 -163 -157
l-18 -61h210z" />
    <glyph glyph-name="f_k" unicode="fk" horiz-adv-x="835" 
d="M674 750c-153 -399 -217 -563 -219 -570h4c71 148 171 286 285 286c73 0 92 -49 92 -79c0 -102 -112 -152 -219 -178l14 -51c26 -96 61 -131 120 -131c21 0 41 5 58 12l7 -10s-34 -46 -98 -46c-88 0 -129 47 -152 158l-15 72c71 21 207 81 207 151c0 21 -10 35 -42 35
c-126 0 -296 -303 -296 -407c0 0 -12 -8 -36 -8c-23 0 -38 13 -38 35c0 9 2 19 5 29l199 583c2 6 7 22 7 35c0 34 -19 69 -94 69c-85 0 -144 -74 -192 -227l-19 -62h181l-19 -50h-178l-83 -248c-60 -182 -174 -451 -344 -451c-60 0 -81 30 -81 60c0 39 31 54 58 54
c7 0 13 -1 13 -1c-4 -9 -6 -17 -6 -25c0 -24 16 -40 48 -40c82 0 137 90 186 252l123 408h-76l7 24l83 17l9 27c55 167 178 306 333 306c57 0 93 -24 103 -50c21 4 42 10 65 21z" />
    <glyph glyph-name="f_f_k" unicode="ffk" horiz-adv-x="1134" 
d="M973 750c-153 -399 -217 -563 -219 -570h4c71 148 171 286 285 286c73 0 92 -49 92 -79c0 -102 -112 -152 -219 -178l14 -51c26 -96 61 -131 120 -131c21 0 41 5 58 12l7 -10s-34 -46 -98 -46c-88 0 -129 47 -152 158l-15 72c71 21 207 81 207 151c0 21 -10 35 -42 35
c-126 0 -296 -303 -296 -407c0 0 -12 -8 -36 -8c-23 0 -38 13 -38 35c0 9 2 19 5 29l199 583c2 6 7 24 7 35c0 34 -19 69 -94 69c-85 0 -144 -74 -192 -227l-19 -62h181l-19 -50h-178l-83 -248c-60 -182 -174 -451 -344 -451c-60 0 -81 30 -81 60c0 39 31 54 58 54
c7 0 13 -1 13 -1c-4 -9 -6 -17 -6 -25c0 -24 16 -40 48 -40c82 0 137 90 186 252l120 399h-209l-83 -248c-60 -182 -174 -451 -344 -451c-60 0 -81 30 -81 60c0 39 31 54 58 54c7 0 13 -1 13 -1c-4 -9 -6 -17 -6 -25c0 -24 16 -40 48 -40c82 0 137 90 186 252l123 408h-76
l7 24l83 17l8 26c51 156 171 236 306 236c50 0 89 -13 110 -32c59 63 133 103 216 103c57 0 93 -24 103 -50c21 4 42 10 65 21zM463 446l9 27c14 42 32 83 55 121c-4 43 -40 70 -93 70c-61 0 -128 -38 -163 -157l-18 -61h210z" />
    <glyph glyph-name=".notdef" horiz-adv-x="499" 
d="M269 124h-55v55h55v-55zM265 229h-47v39c0 111 106 129 106 206c0 46 -35 70 -76 70c-46 0 -79 -21 -79 -81h-48c0 93 57 131 128 131s125 -39 125 -116c0 -106 -109 -114 -109 -210v-39zM48 48h404v603h-404v-603zM0 700h500v-700h-500v700z" />
    <glyph glyph-name="B" unicode="B" horiz-adv-x="595" 
d="M401 666c-26 0 -43 -4 -53 -7l-64 -278s12 2 31 2s39 -1 67 -6c72 9 139 66 139 165c0 65 -37 124 -120 124zM277 349l-53 -224c-1 -4 -6 -25 -6 -40c0 -36 26 -51 81 -51c94 0 179 49 179 154c0 133 -116 163 -173 163c-17 0 -28 -2 -28 -2zM294 697c64 0 91 3 150 3
c99 0 168 -59 168 -154c0 -127 -124 -174 -177 -184c64 -16 139 -71 139 -174c0 -128 -118 -188 -253 -188c0 0 -98 3 -179 3c-85 0 -132 -3 -132 -3l7 29l21 5c55 13 81 40 94 98l107 469c2 10 4 20 4 29c0 24 -16 31 -46 36l-32 5l7 29s34 -3 122 -3z" />
    <glyph glyph-name="C" unicode="C" horiz-adv-x="679" 
d="M718 600c0 -67 -47 -93 -94 -93c-22 0 -32 7 -32 7c17 17 27 40 27 67c0 44 -49 93 -140 93c-215 0 -321 -199 -321 -401c0 -155 73 -249 180 -249c139 0 218 67 265 152l26 -7l-65 -147c-63 0 -105 -38 -239 -38c-169 0 -267 107 -267 269c0 260 197 461 476 461
c116 0 184 -55 184 -114z" />
    <glyph glyph-name="D" unicode="D" horiz-adv-x="804" 
d="M341 659l-122 -534c-1 -4 -6 -25 -6 -40c0 -36 26 -51 81 -51c222 0 400 129 400 362c0 160 -90 270 -276 270c-34 0 -57 -3 -77 -7zM140 3c-85 0 -132 -3 -132 -3l7 29l21 5c55 13 81 40 94 98l107 469c2 10 4 20 4 29c0 24 -16 31 -46 36l-32 5l7 29s29 -3 117 -3
c48 0 113 3 152 3c229 0 355 -128 355 -284c0 -255 -192 -416 -487 -416c-57 0 -108 3 -167 3z" />
    <glyph glyph-name="E" unicode="E" 
d="M292 34c136 0 177 66 211 126l21 -3l-49 -157s-249 3 -335 3c-88 -1 -132 -3 -132 -3l7 29l21 5c55 13 81 40 94 98l107 469c2 10 4 20 4 29c0 24 -16 31 -46 36l-32 5l7 29s52 -3 140 -3c136 0 319 3 319 3l-40 -149h-20c0 78 -34 115 -146 115c-34 0 -61 -3 -78 -7
l-67 -281h83c49 0 79 28 103 77l19 39h26s-25 -71 -38 -128c-14 -62 -18 -110 -18 -110h-25l-1 25c-1 37 -18 58 -60 58h-99l-51 -214c-1 -4 -6 -25 -6 -40c0 -36 26 -51 81 -51z" />
    <glyph glyph-name="F" unicode="F" 
d="M266 330l-53 -231c-2 -10 -4 -20 -4 -29c0 -24 16 -31 46 -36l32 -5l-7 -29s-54 3 -140 3c-85 0 -132 -3 -132 -3l7 29l21 5c55 13 81 40 94 98l107 469c2 10 4 20 4 29c0 24 -16 31 -46 36l-32 5l7 29s52 -3 140 -3c136 0 319 3 319 3l-40 -149h-20
c0 78 -34 115 -146 115c-34 0 -61 -3 -78 -7l-69 -290h83c49 0 79 28 103 77l19 39h26s-25 -71 -38 -128c-14 -62 -18 -110 -18 -110h-25l-1 25c-1 37 -18 58 -60 58h-99z" />
    <glyph glyph-name="G" unicode="G" horiz-adv-x="737" 
d="M666 523l-16 2c0 65 -15 150 -162 150c-204 0 -331 -192 -331 -401c0 -148 82 -251 202 -251c85 0 155 29 174 105l21 83c2 6 3 12 3 17c0 24 -14 35 -51 40l-39 5l7 29h258l-6 -29l-15 -5c-42 -14 -66 -49 -80 -96l-37 -128c-60 0 -125 -60 -257 -60
c-175 0 -280 94 -280 289c0 243 201 441 466 441c82 0 138 -28 193 -28z" />
    <glyph glyph-name="H" unicode="H" horiz-adv-x="825" 
d="M707 34l32 -5l-7 -29s-54 3 -140 3c-85 0 -132 -3 -132 -3l7 29l21 5c55 13 81 40 94 98l48 210h-362l-55 -243c-2 -10 -4 -20 -4 -29c0 -24 16 -31 46 -36l32 -5l-7 -29s-54 3 -140 3c-85 0 -132 -3 -132 -3l7 29l21 5c55 13 81 40 94 98l107 469c2 10 4 20 4 29
c0 24 -16 31 -46 36l-32 5l7 29s52 -3 140 -3c82 0 132 3 132 3l-7 -29l-21 -5c-55 -13 -81 -40 -94 -98l-42 -185h361l50 218c2 10 4 20 4 29c0 24 -16 31 -46 36l-32 5l7 29s52 -3 140 -3c82 0 132 3 132 3l-7 -29l-21 -5c-55 -13 -81 -40 -94 -98l-107 -469
c-2 -10 -4 -20 -4 -29c0 -24 16 -31 46 -36z" />
    <glyph glyph-name="I" unicode="I" horiz-adv-x="373" 
d="M255 34l32 -5l-7 -29s-54 3 -140 3c-85 0 -132 -3 -132 -3l7 29l21 5c55 13 81 40 94 98l107 469c2 10 4 20 4 29c0 24 -16 31 -46 36l-32 5l7 29s52 -3 140 -3c82 0 132 3 132 3l-7 -29l-21 -5c-55 -13 -81 -40 -94 -98l-107 -469c-2 -10 -4 -20 -4 -29
c0 -24 16 -31 46 -36z" />
    <glyph glyph-name="J" unicode="J" horiz-adv-x="544" 
d="M521 684l-88 -366l78 15v-44l-87 -17l-57 -217c-39 -148 -128 -269 -277 -269c-56 0 -91 24 -91 64c0 32 29 47 50 47c6 0 11 -1 13 -2c-3 -8 -5 -17 -5 -25c0 -26 17 -49 58 -49c50 0 116 41 157 203l59 233l-135 -26l-6 46l151 26l82 335h-4c-22 -25 -51 -37 -85 -37
c-56 0 -92 48 -148 48c-37 0 -68 -26 -68 -65c0 -25 11 -44 41 -44c37 0 51 30 51 30c18 -9 29 -26 29 -48c0 -25 -20 -52 -70 -52c-47 0 -83 41 -83 91c0 75 74 142 155 142c70 0 85 -50 135 -50c63 0 99 108 163 108c52 0 74 -43 74 -43l-6 -26s-24 18 -54 18
c-18 0 -28 -10 -32 -26z" />
    <glyph glyph-name="K" unicode="K" horiz-adv-x="742" 
d="M255 34l32 -5l-7 -29s-54 3 -140 3c-85 0 -132 -3 -132 -3l7 29l21 5c55 13 81 40 94 98l107 469c2 10 4 20 4 29c0 24 -16 31 -46 36l-32 5l7 29s52 -3 140 -3c82 0 132 3 132 3l-7 -29l-21 -5c-55 -13 -81 -40 -94 -98l-49 -213h79l250 265c8 8 11 16 11 23
c0 14 -14 21 -27 23l-29 5l7 29s80 -3 137 -3c49 0 125 3 125 3l-7 -29l-34 -5c-55 -8 -99 -32 -139 -73l-226 -232l140 -257c26 -47 69 -76 119 -76c25 0 36 2 36 2l-4 -21s-33 -17 -84 -17c-74 0 -124 23 -157 87l-92 184c-18 35 -46 51 -77 51c-17 0 -32 -4 -39 -8
l-47 -207c-2 -10 -4 -20 -4 -29c0 -24 16 -31 46 -36z" />
    <glyph glyph-name="L" unicode="L" horiz-adv-x="558" 
d="M255 34c151 0 214 52 260 126l21 -3l-49 -157s-245 2 -347 3c-85 0 -132 -3 -132 -3l7 29l21 5c55 13 81 40 94 98l107 469c2 10 4 20 4 29c0 24 -16 31 -46 36l-32 5l7 29s52 -3 140 -3c82 0 132 3 132 3l-7 -29l-21 -5c-55 -13 -81 -40 -94 -98l-107 -469
c-2 -10 -4 -20 -4 -29c0 -24 17 -36 46 -36z" />
    <glyph glyph-name="M" unicode="M" horiz-adv-x="974" 
d="M102 144l141 457c3 11 4 20 4 29c0 24 -16 29 -46 35l-32 6l7 29s86 -3 164 -3c-1 -4 -2 -12 -2 -18c0 -14 1 -30 6 -50l116 -515l347 490c31 43 47 71 53 93c105 0 169 3 169 3l-7 -29l-21 -5c-55 -13 -88 -54 -94 -98l-67 -462c-1 -8 -2 -16 -2 -23
c0 -24 11 -45 48 -49l47 -5l-7 -29s-78 4 -151 4c-79 0 -151 -4 -151 -4l7 29l21 5c60 14 94 41 105 110l66 406l-392 -555l-31 -4l-129 552l-120 -402c-8 -27 -13 -47 -13 -63c0 -26 15 -39 53 -44l43 -5l-7 -29s-69 4 -151 4c-54 0 -104 -4 -104 -4l7 29l21 5
c54 13 81 43 102 110z" />
    <glyph glyph-name="N" unicode="N" horiz-adv-x="815" 
d="M679 666l-43 5l7 29s73 -3 154 -3c63 0 109 3 109 3l-7 -29l-21 -5c-55 -13 -81 -40 -94 -98l-126 -573l-31 -4l-344 581l-97 -418c-5 -23 -14 -59 -14 -76c0 -26 16 -40 54 -44l45 -5l-7 -29s-84 3 -146 3c-47 0 -110 -3 -110 -3l7 29l21 5c55 13 81 39 94 98l107 469
c1 4 4 21 4 29c0 24 -16 31 -46 36l-32 5l7 29c32 -2 72 -3 161 -3c0 -20 9 -43 21 -64l294 -500l90 447c3 13 5 24 5 33c0 36 -23 48 -62 53z" />
    <glyph glyph-name="O" unicode="O" horiz-adv-x="760" 
d="M368 23c198 0 290 243 290 402c0 161 -95 250 -211 250c-198 0 -290 -243 -290 -402c0 -161 95 -250 211 -250zM495 714c153 0 263 -99 263 -269c0 -244 -196 -461 -438 -461c-153 0 -263 99 -263 269c0 244 196 461 438 461z" />
    <glyph glyph-name="P" unicode="P" horiz-adv-x="597" 
d="M377 349c92 0 157 82 157 172c0 87 -60 145 -135 145c-26 0 -43 -4 -53 -7l-69 -294c27 0 58 -16 100 -16zM310 697c42 0 71 3 123 3c113 0 197 -67 197 -179c0 -127 -111 -215 -223 -215c-83 0 -103 29 -140 29l-54 -236c-2 -10 -4 -20 -4 -29c0 -24 16 -31 46 -36
l32 -5l-7 -29s-54 3 -140 3c-85 0 -132 -3 -132 -3l7 29l21 5c55 13 81 40 94 98l107 469c2 10 4 20 4 29c0 24 -16 31 -46 36l-32 5l7 29s52 -3 140 -3z" />
    <glyph glyph-name="Q" unicode="Q" horiz-adv-x="763" 
d="M787 -85c36 0 65 -22 65 -63c0 -115 -226 -140 -259 -140c-183 0 -404 205 -547 205c-43 0 -92 -18 -92 -58c0 -15 7 -28 22 -28c4 0 8 1 10 2c1 -3 2 -7 2 -11c0 -17 -14 -27 -34 -27c-25 0 -40 24 -40 48c0 204 745 111 745 582c0 161 -95 250 -211 250
c-153 0 -290 -161 -290 -326c0 -73 21 -165 115 -165c79 0 121 66 121 123c0 27 -7 60 -32 82c10 10 27 18 46 18c38 0 66 -29 66 -70c0 -126 -142 -194 -247 -194c-121 0 -169 77 -169 176c0 221 225 395 438 395c153 0 263 -98 263 -269c0 -344 -283 -409 -539 -463
c-50 -11 -100 -22 -150 -37l2 -3c22 6 51 10 74 10c158 0 412 -196 523 -196c51 0 98 22 98 80c0 19 -3 41 -22 65c14 11 31 14 42 14z" />
    <glyph glyph-name="R" unicode="R" horiz-adv-x="677" 
d="M310 697c48 0 67 3 119 3c113 0 201 -65 201 -166c0 -144 -124 -194 -196 -208c24 -21 34 -45 45 -76l43 -124c24 -69 72 -100 119 -100c15 0 30 3 39 5l-5 -21s-31 -18 -90 -18c-90 0 -141 35 -161 115l-34 135c-14 55 -51 78 -90 78c-22 0 -38 -7 -38 -7l-49 -214
c-2 -10 -4 -20 -4 -29c0 -24 16 -31 46 -36l32 -5l-7 -29s-54 3 -140 3c-85 0 -132 -3 -132 -3l7 29l21 5c55 13 81 40 94 98l107 469c2 10 4 20 4 29c0 24 -16 31 -46 36l-32 5l7 29s52 -3 140 -3zM394 666c-26 0 -43 -4 -53 -7l-73 -319c22 14 43 20 70 20
c37 0 66 -16 66 -16c68 26 125 89 125 190c0 73 -56 132 -135 132z" />
    <glyph glyph-name="S" unicode="S" horiz-adv-x="487" 
d="M542 693l-47 -156h-29c2 10 4 28 4 35c0 58 -44 103 -127 103c-71 0 -115 -48 -115 -106c0 -148 214 -166 214 -374c0 -105 -80 -211 -242 -211c-73 0 -113 30 -183 30l30 163h25v-16c0 -98 51 -137 138 -137c92 0 153 54 153 126c0 157 -214 194 -214 380
c0 100 79 184 211 184c73 0 113 -21 182 -21z" />
    <glyph glyph-name="T" unicode="T" horiz-adv-x="681" 
d="M625 661l-136 -2l-130 -560c-2 -10 -4 -20 -4 -29c0 -24 16 -31 46 -36l32 -5l-7 -29s-54 3 -140 3c-85 0 -132 -3 -132 -3l7 29l21 5c55 13 81 40 94 98l122 526h-150c-53 0 -77 -21 -77 -43c0 -11 4 -21 10 -30c-6 -11 -24 -18 -41 -18c-23 0 -46 11 -46 42
c0 60 77 74 156 79l368 21c53 3 73 15 73 40c0 12 -6 30 -12 36c9 5 19 8 36 8c24 0 57 -14 57 -48c0 -59 -57 -83 -147 -84z" />
    <glyph glyph-name="U" unicode="U" horiz-adv-x="795" 
d="M300 568l-61 -261c-9 -40 -14 -75 -14 -105c0 -121 68 -168 171 -168c139 0 194 87 231 252l71 315c2 10 4 20 4 29c0 24 -16 31 -46 36l-32 5l7 29s58 -4 122 -4s115 4 115 4l-7 -29l-21 -5c-55 -13 -81 -40 -94 -98l-64 -286c-40 -177 -102 -297 -298 -297
c-146 0 -250 64 -250 208c0 28 4 59 12 93l71 315c2 10 4 20 4 29c0 24 -16 31 -46 36l-32 5l7 29s52 -3 140 -3c82 0 132 3 132 3l-7 -29l-21 -5c-55 -13 -81 -40 -94 -98z" />
    <glyph glyph-name="V" unicode="V" horiz-adv-x="738" 
d="M822 671l-21 -5c-41 -10 -72 -34 -109 -98l-337 -580l-31 -4l-111 596c-12 63 -25 79 -69 86l-32 5l7 29s53 -4 121 -4c75 0 158 4 158 4l-7 -29l-21 -5c-46 -11 -61 -30 -61 -67c0 -8 1 -18 2 -25l74 -454l256 460c10 18 17 34 17 50c0 24 -14 31 -44 36l-32 5l7 29
s62 -3 130 -3c78 0 110 3 110 3z" />
    <glyph glyph-name="W" unicode="W" horiz-adv-x="1089" 
d="M1070 697c58 0 110 2 110 2l-7 -28l-21 -5c-44 -10 -69 -36 -107 -98l-359 -580l-31 -4l-33 559l-300 -555l-31 -4l-77 599c-7 51 -25 76 -70 83l-32 5l7 29s98 -4 128 -4c31 0 151 4 151 4l-7 -29l-21 -5c-34 -7 -67 -28 -67 -67c0 -5 1 -16 2 -25l50 -452l230 458
c9 18 16 34 16 50c0 27 -21 32 -44 36l-32 5l7 29c33 -2 78 -3 154 -3l37 -578l264 449c9 16 22 40 22 62c0 24 -13 31 -44 36l-32 5l7 29s67 -3 130 -3z" />
    <glyph glyph-name="X" unicode="X" horiz-adv-x="736" 
d="M159 666l-24 5l7 29s55 -3 137 -3c96 0 137 3 137 3l-7 -29l-19 -5c-28 -7 -56 -17 -56 -45c0 -14 9 -32 14 -44l80 -182l161 180c17 19 39 45 39 64c0 13 -12 23 -40 27l-32 5l7 29s44 -3 139 -3c70 0 112 3 112 3l-10 -29l-21 -5c-44 -10 -77 -34 -136 -98l-199 -214
l124 -270c16 -34 43 -43 78 -50l24 -5l-7 -29s-55 3 -137 3c-96 0 -137 -3 -137 -3l7 29l19 5c28 7 56 17 56 45c0 14 -9 32 -14 44l-76 172l-152 -170c-17 -19 -39 -45 -39 -64c0 -13 12 -23 40 -27l32 -5l-7 -29s-44 3 -139 3c-70 0 -112 -3 -112 -3l10 29l21 5
c44 10 77 34 136 98l190 204l-128 280c-16 34 -43 43 -78 50z" />
    <glyph glyph-name="Y" unicode="Y" horiz-adv-x="695" 
d="M412 300l-46 -201c-2 -10 -4 -20 -4 -29c0 -24 16 -31 46 -36l32 -5l-7 -29s-54 3 -140 3c-85 0 -132 -3 -132 -3l7 29l21 5c55 13 81 40 94 98l41 178l-25 139c-25 137 -44 212 -117 212c-25 0 -39 -8 -57 -24l-5 23c21 27 59 54 104 54c115 0 141 -118 158 -236
l19 -131c8 21 158 367 316 367c40 0 68 -21 68 -60c0 -30 -30 -53 -52 -53c-3 0 -6 0 -9 1c1 4 1 7 1 9c0 14 -9 32 -39 32c-98 0 -251 -277 -274 -343z" />
    <glyph glyph-name="Z" unicode="Z" horiz-adv-x="649" 
d="M692 700l8 -22l-575 -637l194 3c174 3 218 78 287 183l24 -6l-83 -221h-548l-4 14l578 644l-218 -6c-125 -3 -167 -60 -197 -122l-24 3l58 183h28s2 -16 45 -16h427z" />
    <glyph glyph-name="a" unicode="a" horiz-adv-x="478" 
d="M374 50c34 0 68 49 93 90l15 -10c-23 -54 -79 -147 -149 -147c-31 0 -52 15 -52 57c0 44 20 89 30 115h-4c-29 -60 -83 -172 -185 -172c-61 0 -88 49 -88 114c0 162 137 342 286 342c39 0 60 -17 77 -31c5 16 24 57 58 57c16 0 29 -7 38 -15c-30 -35 -138 -280 -138 -378
c0 -14 5 -22 19 -22zM159 42c84 0 180 211 208 314c-12 29 -35 45 -67 45c-104 0 -188 -153 -188 -284c0 -52 11 -75 47 -75z" />
    <glyph glyph-name="b" unicode="b" horiz-adv-x="472" 
d="M343 409c-83 0 -226 -211 -226 -330c0 -41 17 -58 52 -58c125 0 222 220 222 325c0 42 -13 63 -48 63zM345 750l-175 -462h4c36 68 111 178 204 178c61 0 95 -35 95 -101c0 -162 -151 -381 -325 -381c-75 0 -103 50 -103 117c0 42 12 87 27 126l146 394c2 6 7 22 7 33
c0 22 -22 28 -64 28v22s97 4 184 46z" />
    <glyph glyph-name="c" unicode="c" horiz-adv-x="395" 
d="M357 349c4 11 6 20 6 28c0 25 -16 41 -51 41c-116 0 -185 -182 -185 -302c0 -49 24 -75 64 -75c63 0 118 50 151 96l15 -11c-27 -55 -87 -142 -186 -142c-86 0 -126 41 -126 121c0 163 140 361 318 361c35 0 73 -15 73 -55c0 -38 -32 -64 -65 -64c-5 0 -11 1 -14 2z" />
    <glyph glyph-name="d" unicode="d" horiz-adv-x="526" 
d="M164 43c86 0 218 183 218 334c0 30 -15 48 -40 48c-126 0 -229 -212 -229 -320c0 -42 16 -62 51 -62zM614 750l-207 -586c-14 -39 -25 -77 -25 -93c0 -13 6 -21 20 -21c38 0 84 65 106 96l15 -11c-31 -59 -93 -152 -167 -152c-31 0 -49 11 -49 58c0 35 18 80 30 114h-4
c-29 -57 -101 -171 -205 -171c-61 0 -93 34 -93 102c0 162 149 380 323 380c33 0 57 -14 67 -26l62 181c2 6 7 22 7 33c0 22 -22 28 -64 28v22s97 4 184 46z" />
    <glyph glyph-name="e" unicode="e" horiz-adv-x="404" 
d="M346 390c0 23 -13 36 -34 36c-84 0 -142 -126 -163 -185c68 20 197 63 197 149zM423 397c0 -78 -95 -134 -282 -183c-10 -34 -15 -63 -15 -98c0 -37 17 -75 69 -75c63 0 126 61 150 96l15 -11c-14 -25 -83 -142 -194 -142c-80 0 -122 45 -122 121c0 143 116 361 302 361
c57 0 77 -36 77 -69z" />
    <glyph glyph-name="f" unicode="f" horiz-adv-x="306" 
d="M620 713c0 -33 -30 -58 -63 -58c-16 0 -26 4 -34 8c5 9 9 20 9 31c0 21 -16 41 -74 41c-80 0 -139 -74 -187 -227l-19 -62h136l-21 -50h-131l-83 -248c-60 -182 -174 -451 -344 -451c-60 0 -81 30 -81 60c0 39 31 54 58 54c7 0 13 -1 13 -1c-4 -9 -6 -17 -6 -25
c0 -24 16 -40 48 -40c82 0 137 90 186 252l123 408h-76l7 24l83 17l9 27c55 167 178 306 333 306c78 0 114 -30 114 -66z" />
    <glyph glyph-name="g" unicode="g" horiz-adv-x="438" 
d="M267 439c-77 0 -105 -128 -105 -191c0 -61 20 -91 53 -91c77 0 107 127 107 191c0 52 -15 91 -55 91zM156 -226c106 0 141 53 141 94c0 44 -29 62 -97 82c-64 19 -130 38 -130 99c0 53 49 80 91 86c-41 12 -71 47 -71 106c0 110 90 225 199 225c32 0 52 -7 75 -28
c14 -3 37 -6 51 -6c26 0 51 7 70 20c8 -6 17 -17 17 -32c0 -22 -15 -40 -45 -40c-32 0 -55 23 -73 28c6 -13 10 -30 10 -59c0 -107 -81 -209 -182 -218c-34 -6 -74 -20 -74 -53c0 -31 42 -42 99 -59c98 -28 132 -68 132 -131c0 -87 -91 -151 -226 -151
c-113 0 -185 52 -185 129c0 52 36 82 77 82c20 0 36 -11 38 -25c-23 -4 -47 -20 -47 -57c0 -47 46 -92 130 -92z" />
    <glyph glyph-name="h" unicode="h" horiz-adv-x="508" 
d="M375 750c-150 -395 -215 -563 -217 -570h4c69 138 178 286 279 286c39 0 53 -18 53 -50c0 -19 -8 -57 -19 -88l-60 -170c-17 -48 -27 -78 -27 -94c0 -10 5 -14 15 -14c25 0 65 52 86 82l15 -11c-32 -59 -89 -137 -158 -137c-24 0 -38 9 -38 38c0 27 11 70 34 136l60 171
c8 23 12 38 12 50c0 11 -3 20 -15 20c-101 0 -276 -303 -276 -407c0 0 -12 -8 -36 -8c-23 0 -38 13 -38 35c0 9 2 19 5 29l194 573c2 6 7 22 7 33c0 22 -22 28 -64 28v22s97 4 184 46z" />
    <glyph glyph-name="i" unicode="i" horiz-adv-x="279" 
d="M274 465l-118 -307c-18 -48 -27 -78 -27 -94c0 -10 4 -14 13 -14c25 0 96 67 117 97l15 -10c-32 -59 -118 -153 -187 -153c-24 0 -38 9 -38 38c0 28 6 58 25 110l73 205c3 8 7 20 7 32c0 23 -22 28 -64 28v22s97 4 184 46zM246 610c-25 0 -42 18 -42 43c0 29 24 61 57 61
c25 0 42 -18 42 -43c0 -29 -24 -61 -57 -61z" />
    <glyph glyph-name="j" unicode="j" horiz-adv-x="272" 
d="M261 610c-25 0 -42 18 -42 43c0 29 24 61 57 61c25 0 42 -18 42 -43c0 -29 -24 -61 -57 -61zM59 21l102 315c1 4 6 21 6 33c0 23 -26 28 -68 28v22s97 4 184 46l-134 -416c-26 -80 -55 -142 -120 -189c-58 -42 -125 -30 -190 -71l-6 19c50 43 115 47 156 86
c33 31 51 66 70 127z" />
    <glyph glyph-name="k" unicode="k" horiz-adv-x="533" 
d="M371 750c-153 -399 -216 -563 -218 -570h4c71 148 171 286 285 286c73 0 92 -49 92 -79c0 -102 -112 -152 -219 -178l14 -51c26 -96 61 -131 120 -131c21 0 41 5 58 12l7 -10s-34 -46 -98 -46c-88 0 -129 47 -152 158l-15 72c71 21 207 81 207 151c0 21 -10 35 -42 35
c-126 0 -296 -303 -296 -407c0 0 -12 -8 -36 -8c-23 0 -38 13 -38 35c0 9 2 19 5 29l195 573c2 6 7 22 7 33c0 22 -22 28 -64 28v22s97 4 184 46z" />
    <glyph glyph-name="l" unicode="l" horiz-adv-x="306" 
d="M372 750l-202 -585c-16 -46 -24 -71 -24 -90c0 -14 6 -21 20 -21c41 0 84 61 106 93l15 -11c-31 -58 -93 -152 -167 -152c-30 0 -58 16 -58 66c0 20 6 47 17 81l166 490c2 6 7 22 7 33c0 22 -22 28 -64 28v22s97 4 184 46z" />
    <glyph glyph-name="m" unicode="m" horiz-adv-x="757" 
d="M466 319c-34 -88 -55 -128 -59 -139h4c70 129 178 286 279 286c39 0 53 -18 53 -50c0 -19 -8 -57 -19 -88l-60 -170c-17 -48 -27 -78 -27 -94c0 -10 5 -14 15 -14c25 0 65 52 86 82l15 -11c-32 -59 -89 -137 -158 -137c-24 0 -38 9 -38 38c0 27 11 70 34 136l60 171
c8 23 12 38 12 50c0 11 -3 20 -15 20c-101 0 -276 -303 -276 -407c0 0 -12 -8 -36 -8c-23 0 -38 13 -38 35c0 9 2 19 5 29c26 92 55 175 94 281c8 23 12 38 12 50c0 11 -3 20 -15 20c-101 0 -276 -303 -276 -407c0 0 -12 -8 -36 -8c-23 0 -38 13 -38 35c0 9 2 19 5 29
l91 289c2 6 7 21 7 32c0 23 -22 28 -64 28v22s97 4 184 46c-78 -193 -106 -263 -114 -285h4c70 129 178 286 279 286c39 0 53 -18 53 -50c0 -29 -11 -65 -23 -97z" />
    <glyph glyph-name="n" unicode="n" horiz-adv-x="529" 
d="M398 50c25 0 65 52 86 82l15 -11c-32 -59 -89 -137 -158 -137c-24 0 -38 9 -38 38c0 27 11 70 34 136l60 171c8 23 12 38 12 50c0 11 -3 20 -15 20c-101 0 -276 -303 -276 -407c0 0 -12 -8 -36 -8c-23 0 -38 13 -38 35c0 9 2 19 5 29l91 289c3 10 7 22 7 32
c0 23 -22 28 -64 28v22s97 4 184 46c-78 -193 -106 -263 -114 -285h4c70 129 178 286 279 286c39 0 53 -18 53 -50c0 -19 -8 -57 -19 -88l-60 -170c-17 -48 -27 -78 -27 -94c0 -10 5 -14 15 -14z" />
    <glyph glyph-name="o" unicode="o" horiz-adv-x="435" 
d="M161 -16c-70 0 -116 51 -116 139c0 148 119 343 273 343c71 0 117 -51 117 -140c0 -148 -119 -342 -274 -342zM190 21c91 0 163 182 163 295c0 73 -21 112 -63 112c-91 0 -163 -181 -163 -294c0 -73 21 -113 63 -113z" />
    <glyph glyph-name="p" unicode="p" horiz-adv-x="512" 
d="M353 401c-36 0 -75 -20 -75 -20l-105 -311s6 -49 64 -49c102 0 195 174 195 284c0 43 -13 96 -79 96zM326 570c16 0 24 -3 34 -7c-32 -36 -67 -141 -67 -141s34 17 89 17c85 0 131 -53 131 -124c0 -137 -138 -331 -296 -331c-35 0 -62 12 -71 24l-68 -183
c-8 -22 -15 -49 -15 -68c0 -24 12 -36 50 -42l48 -8v-25h-293v25l23 7c60 18 89 52 114 122l187 518c-58 -26 -114 -65 -114 -65l-9 24s56 43 136 82l32 98c16 48 41 77 89 77z" />
    <glyph glyph-name="q" unicode="q" horiz-adv-x="496" 
d="M173 43c86 0 218 183 218 334c0 30 -15 48 -40 48c-126 0 -229 -212 -229 -320c0 -42 16 -62 51 -62zM441 432c7 31 38 55 70 55c9 0 21 -3 28 -8c-24 -29 -36 -61 -68 -152l-179 -502c-8 -22 -15 -49 -15 -68c0 -24 12 -36 50 -42l48 -8v-25h-293v25l23 7
c57 17 86 53 114 122l127 319h-4c-29 -57 -101 -171 -205 -171c-61 0 -93 34 -93 102c0 162 149 380 323 380c33 0 60 -14 74 -34z" />
    <glyph glyph-name="r" unicode="r" horiz-adv-x="412" 
d="M56 48l81 287c2 7 7 25 7 34c0 23 -22 28 -64 28v22s97 4 184 46c-78 -193 -106 -263 -114 -285h4s119 285 242 285c42 0 64 -26 64 -59c0 -41 -35 -59 -62 -59c-4 0 -7 1 -7 1s2 6 2 13c0 11 -6 31 -36 31c-96 0 -232 -300 -232 -400c0 0 -12 -7 -36 -7
c-23 0 -36 18 -36 40c0 9 0 13 3 23z" />
    <glyph glyph-name="s" unicode="s" horiz-adv-x="335" 
d="M368 409c0 -30 -23 -55 -60 -55c-7 0 -12 1 -16 2c3 6 5 14 5 20c0 23 -12 43 -52 43c-52 0 -75 -39 -75 -70c0 -74 98 -114 98 -214c0 -96 -105 -151 -177 -151c-42 0 -87 11 -87 53c0 35 29 56 60 56c5 0 10 -1 10 -1c-4 -7 -6 -14 -6 -22c0 -21 24 -35 50 -35
c45 0 82 17 82 67c0 82 -84 120 -84 219c0 84 92 145 162 145c57 0 90 -25 90 -57z" />
    <glyph glyph-name="t" unicode="t" horiz-adv-x="329" 
d="M310 573c-23 -23 -53 -120 -53 -120h127l-18 -44h-124l-67 -182c-29 -78 -44 -125 -44 -148c0 -14 8 -19 17 -19c35 0 89 65 121 112l17 -10c-30 -58 -112 -178 -185 -178c-34 0 -52 22 -52 62c0 22 4 50 16 84l98 281l-54 2l3 29l67 14l26 71c14 40 38 57 71 57
c15 0 30 -7 34 -11z" />
    <glyph glyph-name="u" unicode="u" horiz-adv-x="496" 
d="M145 400c-25 0 -65 -52 -86 -82l-15 10c32 60 89 138 158 138c24 0 38 -9 38 -39c0 -26 -11 -69 -34 -135l-60 -172c-8 -22 -12 -37 -12 -50c0 -10 3 -19 15 -19c101 0 276 303 276 407c0 0 10 8 34 8c23 0 38 -13 38 -36c0 -8 -2 -18 -5 -28l-94 -289
c-3 -10 -7 -22 -7 -32c0 -23 27 -28 69 -28v-22s-97 -4 -184 -46c78 192 106 263 114 285h-4c-70 -129 -178 -286 -279 -286c-39 0 -53 18 -53 50c0 19 8 57 19 87l60 171c17 48 27 78 27 94c0 10 -5 14 -15 14z" />
    <glyph glyph-name="v" unicode="v" horiz-adv-x="448" 
d="M168 466c35 0 42 -31 42 -63c0 -77 -26 -338 -26 -338c76 0 201 163 201 277c0 32 -13 60 -44 65c6 36 32 58 62 58c40 0 64 -30 64 -69c0 -112 -131 -331 -345 -411l-11 10s18 289 21 385c0 12 -3 20 -13 20c-30 0 -54 -55 -68 -95l-16 2c6 39 47 159 133 159z" />
    <glyph glyph-name="w" unicode="w" horiz-adv-x="689" 
d="M414 466c35 0 42 -31 42 -63c0 -77 -26 -338 -26 -338c76 0 201 163 201 277c0 32 -13 60 -44 65c6 36 32 58 62 58c40 0 64 -30 64 -69c0 -112 -131 -331 -345 -411l-11 10s5 108 11 203c-52 -95 -140 -176 -246 -213l-11 10s18 289 21 385c0 12 -3 20 -13 20
c-30 0 -54 -55 -68 -95l-16 2c6 39 47 159 133 159c35 0 42 -31 42 -63c0 -77 -26 -338 -26 -338c85 2 194 169 194 315c0 12 -3 20 -13 20c-30 0 -54 -55 -68 -95l-16 2c6 39 47 159 133 159z" />
    <glyph glyph-name="x" unicode="x" horiz-adv-x="548" 
d="M331 258c0 0 21 -205 60 -205c34 0 67 62 91 113l19 -5c-25 -78 -64 -177 -130 -177c-79 0 -98 193 -98 193s-123 -193 -221 -193c-28 0 -53 12 -53 46c0 33 33 54 46 54c0 -16 7 -26 28 -26c73 0 191 161 191 161s-11 180 -50 180s-91 -115 -91 -115l-15 12
s55 170 145 170c54 0 70 -166 70 -166s85 165 192 165c38 0 61 -20 61 -50c0 -40 -45 -59 -67 -59c1 4 2 8 2 13c0 16 -11 26 -31 26c-66 0 -149 -137 -149 -137z" />
    <glyph glyph-name="y" unicode="y" horiz-adv-x="488" 
d="M503 396c0 -181 -353 -639 -583 -639c-40 0 -65 21 -65 53c0 31 22 49 45 55c6 -20 21 -32 53 -32c103 0 200 71 222 117c5 11 6 44 6 86c0 127 -21 308 -24 341c-1 14 -3 23 -12 23c-37 0 -69 -92 -70 -95l-16 2c6 39 47 159 133 159c35 0 40 -30 42 -62
c5 -88 11 -237 11 -401c86 82 176 242 176 339c0 31 -13 60 -44 65c6 36 32 58 62 58c40 0 64 -30 64 -69z" />
    <glyph glyph-name="z" unicode="z" horiz-adv-x="503" 
d="M246 460c81 0 125 -68 178 -68c45 0 71 62 73 74c12 0 25 -6 25 -20c0 -56 -114 -131 -165 -171c-84 -66 -179 -115 -241 -167l3 -3c5 3 14 7 30 7c83 0 158 -76 211 -76c44 0 76 18 76 55c0 22 -14 42 -44 42c-5 0 -12 -1 -16 -3c0 40 35 59 58 59c32 0 54 -18 54 -52
c0 -63 -74 -157 -168 -157c-108 0 -144 87 -208 87c-22 0 -38 -19 -38 -37s5 -25 12 -35c-7 -6 -14 -11 -30 -11c-20 0 -34 16 -34 38c0 58 66 104 143 156c64 44 168 108 249 180l-3 3c-8 -3 -21 -8 -44 -8c-60 0 -122 49 -176 49c-23 0 -48 -13 -48 -41
c0 -31 25 -42 54 -42c-5 -31 -29 -50 -58 -50c-34 0 -50 26 -50 52c0 81 97 139 157 139z" />
    <glyph glyph-name="comma" unicode="," horiz-adv-x="268" 
d="M106 104c34 0 55 -28 55 -64c0 -100 -92 -179 -186 -199l-3 15c52 19 106 64 106 127c0 27 -8 51 -33 64c6 30 29 57 61 57z" />
    <glyph glyph-name="hyphen" unicode="-" horiz-adv-x="389" 
d="M354 259c-92 -5 -190 -24 -285 -55l-7 14c51 34 162 92 250 92c28 0 48 -11 48 -32c0 -9 -3 -15 -6 -19z" />
    <glyph glyph-name="period" unicode="." horiz-adv-x="268" 
d="M95 -16c-30 0 -50 21 -50 50c0 34 28 70 67 70c30 0 49 -21 49 -50c0 -34 -28 -70 -66 -70z" />
    <glyph glyph-name="space" unicode=" " horiz-adv-x="233" 
 />
    <glyph glyph-name="colon" unicode=":" horiz-adv-x="268" 
d="M95 -16c-30 0 -50 21 -50 50c0 34 28 70 67 70c30 0 49 -21 49 -50c0 -34 -28 -70 -66 -70zM160 294c-30 0 -50 21 -50 50c0 34 28 70 67 70c30 0 49 -21 49 -50c0 -34 -28 -70 -66 -70z" />
    <glyph glyph-name="semicolon" unicode=";" horiz-adv-x="268" 
d="M160 294c-30 0 -50 21 -50 50c0 34 28 70 67 70c30 0 49 -21 49 -50c0 -34 -28 -70 -66 -70zM106 104c34 0 55 -28 55 -64c0 -100 -92 -179 -186 -199l-3 15c52 19 106 64 106 127c0 27 -8 51 -33 64c6 30 29 57 61 57z" />
    <glyph glyph-name="acute" unicode="&#xb4;" horiz-adv-x="249" 
d="M329 669c0 -65 -161 -146 -214 -159c0 0 -4 10 -5 13c74 52 141 114 197 177c9 -2 22 -13 22 -31z" />
    <glyph glyph-name="at" unicode="@" horiz-adv-x="785" 
d="M483 103c-28 0 -47 12 -47 43s15 65 22 84h-4c-18 -40 -60 -127 -137 -127c-46 0 -66 37 -66 84c0 119 103 251 214 251c30 0 46 -12 58 -22c4 12 19 42 43 42c12 0 22 -5 29 -11c-23 -26 -103 -205 -103 -278c0 -14 2 -24 18 -24c99 0 215 60 215 225
c0 122 -91 220 -261 220c-219 0 -340 -208 -340 -362c0 -151 86 -287 311 -287c98 0 172 36 200 60c1 -2 1 -5 1 -7c0 -41 -112 -89 -231 -89c-217 0 -353 120 -353 322c0 169 140 399 421 399c181 0 297 -115 297 -252c0 -170 -145 -271 -287 -271zM344 147
c64 0 136 155 157 231c-9 21 -27 32 -51 32c-78 0 -140 -112 -140 -208c0 -38 7 -55 34 -55z" />
    <glyph glyph-name="ampersand" unicode="&#x26;" horiz-adv-x="731" 
d="M386 714c67 0 110 -36 110 -88c0 -48 -36 -81 -82 -81c-13 0 -34 4 -45 12c18 16 34 41 34 69c0 27 -12 50 -52 50c-34 0 -85 -30 -85 -119c0 -44 7 -75 14 -107c53 0 87 -21 87 -57c0 -25 -21 -38 -43 -38c1 4 2 15 2 20c0 35 -19 50 -51 50c-92 0 -145 -104 -145 -187
c0 -141 93 -199 236 -199s268 104 268 221c0 69 -44 131 -110 145c-45 -21 -82 -57 -82 -113c0 -39 31 -60 59 -60c10 0 20 2 29 6c1 -4 2 -9 2 -20c-1 -32 -28 -50 -62 -50c-57 0 -99 41 -99 98c0 189 331 168 331 348c0 32 -21 63 -56 75c9 18 27 31 51 31
c57 0 88 -51 88 -99c0 -108 -85 -150 -197 -183v-4c60 -43 81 -98 81 -163c0 -155 -171 -287 -360 -287c-141 0 -273 66 -273 217c0 166 141 237 219 247c-15 15 -48 54 -48 114c0 89 72 152 179 152z" />
    <glyph glyph-name="grave" unicode="`" horiz-adv-x="349" 
d="M130 669c0 18 13 29 22 31c56 -63 123 -125 197 -177c-1 -3 -5 -13 -5 -13c-53 13 -214 94 -214 159z" />
    <glyph glyph-name="dieresis" unicode="&#xa8;" horiz-adv-x="279" 
d="M143 546c-24 0 -40 17 -40 40c0 27 22 56 54 56c24 0 39 -17 39 -40c0 -27 -23 -56 -53 -56zM313 546c-24 0 -40 17 -40 40c0 27 22 56 54 56c24 0 39 -17 39 -40c0 -27 -23 -56 -53 -56z" />
    <glyph glyph-name="tilde" unicode="&#x2dc;" horiz-adv-x="380" 
d="M212 639c59 0 75 -48 128 -48c29 0 58 14 80 51l10 -16c-23 -54 -67 -90 -122 -90c-61 0 -75 48 -128 48c-29 0 -58 -14 -80 -51l-10 16c23 54 67 90 122 90z" />
    <glyph glyph-name="Agrave" unicode="&#xc0;" horiz-adv-x="673" 
d="M441 303l-26 294l-163 -294h189zM428 705l67 11l57 -623c3 -37 19 -53 57 -59l32 -5l-7 -29s-54 3 -125 3c-72 0 -155 -3 -155 -3l7 29l21 5c50 10 78 37 74 90l-10 138h-213l-72 -137c-14 -26 -25 -43 -25 -64c0 -16 14 -23 41 -27l32 -5l-7 -29s-72 3 -119 3
c-45 0 -120 -3 -120 -3l7 29l21 5c64 15 89 54 119 107zM321 928c0 18 13 29 22 31c56 -63 123 -125 197 -177c-1 -3 -5 -13 -5 -13c-53 13 -214 94 -214 159z" />
    <glyph glyph-name="circumflex" unicode="&#x2c6;" horiz-adv-x="337" 
d="M95 520l198 180s48 -111 109 -173c0 -10 -8 -26 -30 -26c-53 0 -91 121 -93 153l-146 -153z" />
    <glyph glyph-name="caron" unicode="&#x2c7;" horiz-adv-x="337" 
d="M204 501l-107 180l49 19l68 -153c19 32 108 153 161 153c21 0 26 -15 26 -26c-94 -65 -197 -173 -197 -173z" />
    <glyph glyph-name="Adieresis" unicode="&#xc4;" horiz-adv-x="623" 
d="M418 303l-26 294l-163 -294h189zM405 705l67 11l57 -623c3 -37 19 -53 57 -59l32 -5l-7 -29s-54 3 -125 3c-72 0 -155 -3 -155 -3l7 29l21 5c50 10 78 37 74 90l-10 138h-213l-72 -137c-14 -26 -25 -43 -25 -64c0 -16 14 -23 41 -27l32 -5l-7 -29s-72 3 -119 3
c-45 0 -120 -3 -120 -3l7 29l21 5c64 15 89 54 119 107zM356 785c-24 0 -40 17 -40 40c0 27 22 56 54 56c24 0 39 -17 39 -40c0 -27 -23 -56 -53 -56zM526 785c-24 0 -40 17 -40 40c0 27 22 56 54 56c24 0 39 -17 39 -40c0 -27 -23 -56 -53 -56z" />
    <glyph glyph-name="Eacute" unicode="&#xc9;" 
d="M292 34c136 0 177 66 211 126l21 -3l-49 -157s-249 3 -335 3c-88 -1 -132 -3 -132 -3l7 29l21 5c55 13 81 40 94 98l107 469c2 10 4 20 4 29c0 24 -16 31 -46 36l-32 5l7 29s52 -3 140 -3c136 0 319 3 319 3l-40 -149h-20c0 78 -34 115 -146 115c-34 0 -61 -3 -78 -7
l-67 -281h83c49 0 79 28 103 77l19 39h26s-25 -71 -38 -128c-14 -62 -18 -110 -18 -110h-25l-1 25c-1 37 -18 58 -60 58h-99l-51 -214c-1 -4 -6 -25 -6 -40c0 -36 26 -51 81 -51zM577 928c0 -65 -161 -146 -214 -159c0 0 -4 10 -5 13c74 52 141 114 197 177
c9 -2 22 -13 22 -31z" />
    <glyph glyph-name="Ntilde" unicode="&#xd1;" horiz-adv-x="815" 
d="M679 666l-43 5l7 29s73 -3 154 -3c63 0 109 3 109 3l-7 -29l-21 -5c-55 -13 -81 -40 -94 -98l-126 -573l-31 -4l-344 581l-97 -418c-5 -23 -14 -59 -14 -76c0 -26 16 -40 54 -44l45 -5l-7 -29s-84 3 -146 3c-47 0 -110 -3 -110 -3l7 29l21 5c55 13 81 39 94 98l107 469
c1 4 4 21 4 29c0 24 -16 31 -46 36l-32 5l7 29c32 -2 72 -3 161 -3c0 -20 9 -43 21 -64l294 -500l90 447c3 13 5 24 5 33c0 36 -23 48 -62 53zM528 898c59 0 75 -48 128 -48c29 0 58 14 80 51l10 -16c-23 -54 -67 -90 -122 -90c-61 0 -75 48 -128 48c-29 0 -58 -14 -80 -51
l-10 16c23 54 67 90 122 90z" />
    <glyph glyph-name="Odieresis" unicode="&#xd6;" horiz-adv-x="760" 
d="M368 23c198 0 290 243 290 402c0 161 -95 250 -211 250c-198 0 -290 -243 -290 -402c0 -161 95 -250 211 -250zM495 714c153 0 263 -99 263 -269c0 -244 -196 -461 -438 -461c-153 0 -263 99 -263 269c0 244 196 461 438 461zM420 785c-24 0 -40 17 -40 40
c0 27 22 56 54 56c24 0 39 -17 39 -40c0 -27 -23 -56 -53 -56zM590 785c-24 0 -40 17 -40 40c0 27 22 56 54 56c24 0 39 -17 39 -40c0 -27 -23 -56 -53 -56z" />
    <glyph glyph-name="Udieresis" unicode="&#xdc;" horiz-adv-x="795" 
d="M300 568l-61 -261c-9 -40 -14 -75 -14 -105c0 -121 68 -168 171 -168c139 0 194 87 231 252l71 315c2 10 4 20 4 29c0 24 -16 31 -46 36l-32 5l7 29s58 -4 122 -4s115 4 115 4l-7 -29l-21 -5c-55 -13 -81 -40 -94 -98l-64 -286c-40 -177 -102 -297 -298 -297
c-146 0 -250 64 -250 208c0 28 4 59 12 93l71 315c2 10 4 20 4 29c0 24 -16 31 -46 36l-32 5l7 29s52 -3 140 -3c82 0 132 3 132 3l-7 -29l-21 -5c-55 -13 -81 -40 -94 -98zM457 785c-24 0 -40 17 -40 40c0 27 22 56 54 56c24 0 39 -17 39 -40c0 -27 -23 -56 -53 -56z
M627 785c-24 0 -40 17 -40 40c0 27 22 56 54 56c24 0 39 -17 39 -40c0 -27 -23 -56 -53 -56z" />
    <glyph glyph-name="Atilde" unicode="&#xc3;" horiz-adv-x="673" 
d="M441 303l-26 294l-163 -294h189zM428 705l67 11l57 -623c3 -37 19 -53 57 -59l32 -5l-7 -29s-54 3 -125 3c-72 0 -155 -3 -155 -3l7 29l21 5c50 10 78 37 74 90l-10 138h-213l-72 -137c-14 -26 -25 -43 -25 -64c0 -16 14 -23 41 -27l32 -5l-7 -29s-72 3 -119 3
c-45 0 -120 -3 -120 -3l7 29l21 5c64 15 89 54 119 107zM429 901c59 0 75 -48 128 -48c29 0 58 14 80 51l10 -16c-23 -54 -67 -90 -122 -90c-61 0 -75 48 -128 48c-29 0 -58 -14 -80 -51l-10 16c23 54 67 90 122 90z" />
    <glyph glyph-name="Otilde" unicode="&#xd5;" horiz-adv-x="760" 
d="M368 23c198 0 290 243 290 402c0 161 -95 250 -211 250c-198 0 -290 -243 -290 -402c0 -161 95 -250 211 -250zM495 714c153 0 263 -99 263 -269c0 -244 -196 -461 -438 -461c-153 0 -263 99 -263 269c0 244 196 461 438 461zM446 901c59 0 75 -48 128 -48
c29 0 58 14 80 51l10 -16c-23 -54 -67 -90 -122 -90c-61 0 -75 48 -128 48c-29 0 -58 -14 -80 -51l-10 16c23 54 67 90 122 90z" />
    <glyph glyph-name="ydieresis" unicode="&#xff;" horiz-adv-x="488" 
d="M503 396c0 -181 -353 -639 -583 -639c-40 0 -65 21 -65 53c0 31 22 49 45 55c6 -20 21 -32 53 -32c103 0 200 71 222 117c5 11 6 44 6 86c0 127 -21 308 -24 341c-1 14 -3 23 -12 23c-37 0 -69 -92 -70 -95l-16 2c6 39 47 159 133 159c35 0 40 -30 42 -62
c5 -88 11 -237 11 -401c86 82 176 242 176 339c0 31 -13 60 -44 65c6 36 32 58 62 58c40 0 64 -30 64 -69zM270 546c-24 0 -40 17 -40 40c0 27 22 56 54 56c24 0 39 -17 39 -40c0 -27 -23 -56 -53 -56zM440 546c-24 0 -40 17 -40 40c0 27 22 56 54 56c24 0 39 -17 39 -40
c0 -27 -23 -56 -53 -56z" />
    <glyph glyph-name="Ydieresis" unicode="&#x178;" horiz-adv-x="695" 
d="M412 300l-46 -201c-2 -10 -4 -20 -4 -29c0 -24 16 -31 46 -36l32 -5l-7 -29s-54 3 -140 3c-85 0 -132 -3 -132 -3l7 29l21 5c55 13 81 40 94 98l41 178l-25 139c-25 137 -44 212 -117 212c-25 0 -39 -8 -57 -24l-5 23c21 27 59 54 104 54c115 0 141 -118 158 -236
l19 -131c8 21 158 367 316 367c40 0 68 -21 68 -60c0 -30 -30 -53 -52 -53c-3 0 -6 0 -9 1c1 4 1 7 1 9c0 14 -9 32 -39 32c-98 0 -251 -277 -274 -343zM409 785c-24 0 -40 17 -40 40c0 27 22 56 54 56c24 0 39 -17 39 -40c0 -27 -23 -56 -53 -56zM579 785
c-24 0 -40 17 -40 40c0 27 22 56 54 56c24 0 39 -17 39 -40c0 -27 -23 -56 -53 -56z" />
    <glyph glyph-name="Acircumflex" unicode="&#xc2;" horiz-adv-x="673" 
d="M441 303l-26 294l-163 -294h189zM428 705l67 11l57 -623c3 -37 19 -53 57 -59l32 -5l-7 -29s-54 3 -125 3c-72 0 -155 -3 -155 -3l7 29l21 5c50 10 78 37 74 90l-10 138h-213l-72 -137c-14 -26 -25 -43 -25 -64c0 -16 14 -23 41 -27l32 -5l-7 -29s-72 3 -119 3
c-45 0 -120 -3 -120 -3l7 29l21 5c64 15 89 54 119 107zM306 779l198 180s48 -111 109 -173c0 -10 -8 -26 -30 -26c-53 0 -91 121 -93 153l-146 -153z" />
    <glyph glyph-name="Ecircumflex" unicode="&#xca;" 
d="M292 34c136 0 177 66 211 126l21 -3l-49 -157s-249 3 -335 3c-88 -1 -132 -3 -132 -3l7 29l21 5c55 13 81 40 94 98l107 469c2 10 4 20 4 29c0 24 -16 31 -46 36l-32 5l7 29s52 -3 140 -3c136 0 319 3 319 3l-40 -149h-20c0 78 -34 115 -146 115c-34 0 -61 -3 -78 -7
l-67 -281h83c49 0 79 28 103 77l19 39h26s-25 -71 -38 -128c-14 -62 -18 -110 -18 -110h-25l-1 25c-1 37 -18 58 -60 58h-99l-51 -214c-1 -4 -6 -25 -6 -40c0 -36 26 -51 81 -51zM276 779l198 180s48 -111 109 -173c0 -10 -8 -26 -30 -26c-53 0 -91 121 -93 153l-146 -153z
" />
    <glyph glyph-name="Aacute" unicode="&#xc1;" horiz-adv-x="673" 
d="M441 303l-26 294l-163 -294h189zM428 705l67 11l57 -623c3 -37 19 -53 57 -59l32 -5l-7 -29s-54 3 -125 3c-72 0 -155 -3 -155 -3l7 29l21 5c50 10 78 37 74 90l-10 138h-213l-72 -137c-14 -26 -25 -43 -25 -64c0 -16 14 -23 41 -27l32 -5l-7 -29s-72 3 -119 3
c-45 0 -120 -3 -120 -3l7 29l21 5c64 15 89 54 119 107zM600 928c0 -65 -161 -146 -214 -159c0 0 -4 10 -5 13c74 52 141 114 197 177c9 -2 22 -13 22 -31z" />
    <glyph glyph-name="Edieresis" unicode="&#xcb;" 
d="M292 34c136 0 177 66 211 126l21 -3l-49 -157s-249 3 -335 3c-88 -1 -132 -3 -132 -3l7 29l21 5c55 13 81 40 94 98l107 469c2 10 4 20 4 29c0 24 -16 31 -46 36l-32 5l7 29s52 -3 140 -3c136 0 319 3 319 3l-40 -149h-20c0 78 -34 115 -146 115c-34 0 -61 -3 -78 -7
l-67 -281h83c49 0 79 28 103 77l19 39h26s-25 -71 -38 -128c-14 -62 -18 -110 -18 -110h-25l-1 25c-1 37 -18 58 -60 58h-99l-51 -214c-1 -4 -6 -25 -6 -40c0 -36 26 -51 81 -51zM349 785c-24 0 -40 17 -40 40c0 27 22 56 54 56c24 0 39 -17 39 -40c0 -27 -23 -56 -53 -56z
M519 785c-24 0 -40 17 -40 40c0 27 22 56 54 56c24 0 39 -17 39 -40c0 -27 -23 -56 -53 -56z" />
    <glyph glyph-name="Egrave" unicode="&#xc8;" 
d="M292 34c136 0 177 66 211 126l21 -3l-49 -157s-249 3 -335 3c-88 -1 -132 -3 -132 -3l7 29l21 5c55 13 81 40 94 98l107 469c2 10 4 20 4 29c0 24 -16 31 -46 36l-32 5l7 29s52 -3 140 -3c136 0 319 3 319 3l-40 -149h-20c0 78 -34 115 -146 115c-34 0 -61 -3 -78 -7
l-67 -281h83c49 0 79 28 103 77l19 39h26s-25 -71 -38 -128c-14 -62 -18 -110 -18 -110h-25l-1 25c-1 37 -18 58 -60 58h-99l-51 -214c-1 -4 -6 -25 -6 -40c0 -36 26 -51 81 -51zM345 928c0 18 13 29 22 31c56 -63 123 -125 197 -177c-1 -3 -5 -13 -5 -13
c-53 13 -214 94 -214 159z" />
    <glyph glyph-name="Iacute" unicode="&#xcd;" horiz-adv-x="373" 
d="M255 34l32 -5l-7 -29s-54 3 -140 3c-85 0 -132 -3 -132 -3l7 29l21 5c55 13 81 40 94 98l107 469c2 10 4 20 4 29c0 24 -16 31 -46 36l-32 5l7 29s52 -3 140 -3c82 0 132 3 132 3l-7 -29l-21 -5c-55 -13 -81 -40 -94 -98l-107 -469c-2 -10 -4 -20 -4 -29
c0 -24 16 -31 46 -36zM446 928c0 -65 -161 -146 -214 -159c0 0 -4 10 -5 13c74 52 141 114 197 177c9 -2 22 -13 22 -31z" />
    <glyph glyph-name="Icircumflex" unicode="&#xce;" horiz-adv-x="373" 
d="M255 34l32 -5l-7 -29s-54 3 -140 3c-85 0 -132 -3 -132 -3l7 29l21 5c55 13 81 40 94 98l107 469c2 10 4 20 4 29c0 24 -16 31 -46 36l-32 5l7 29s52 -3 140 -3c82 0 132 3 132 3l-7 -29l-21 -5c-55 -13 -81 -40 -94 -98l-107 -469c-2 -10 -4 -20 -4 -29
c0 -24 16 -31 46 -36zM161 779l198 180s48 -111 109 -173c0 -10 -8 -26 -30 -26c-53 0 -91 121 -93 153l-146 -153z" />
    <glyph glyph-name="Idieresis" unicode="&#xcf;" horiz-adv-x="373" 
d="M255 34l32 -5l-7 -29s-54 3 -140 3c-85 0 -132 -3 -132 -3l7 29l21 5c55 13 81 40 94 98l107 469c2 10 4 20 4 29c0 24 -16 31 -46 36l-32 5l7 29s52 -3 140 -3c82 0 132 3 132 3l-7 -29l-21 -5c-55 -13 -81 -40 -94 -98l-107 -469c-2 -10 -4 -20 -4 -29
c0 -24 16 -31 46 -36zM233 785c-24 0 -40 17 -40 40c0 27 22 56 54 56c24 0 39 -17 39 -40c0 -27 -23 -56 -53 -56zM403 785c-24 0 -40 17 -40 40c0 27 22 56 54 56c24 0 39 -17 39 -40c0 -27 -23 -56 -53 -56z" />
    <glyph glyph-name="Igrave" unicode="&#xcc;" horiz-adv-x="373" 
d="M255 34l32 -5l-7 -29s-54 3 -140 3c-85 0 -132 -3 -132 -3l7 29l21 5c55 13 81 40 94 98l107 469c2 10 4 20 4 29c0 24 -16 31 -46 36l-32 5l7 29s52 -3 140 -3c82 0 132 3 132 3l-7 -29l-21 -5c-55 -13 -81 -40 -94 -98l-107 -469c-2 -10 -4 -20 -4 -29
c0 -24 16 -31 46 -36zM221 928c0 18 13 29 22 31c56 -63 123 -125 197 -177c-1 -3 -5 -13 -5 -13c-53 13 -214 94 -214 159z" />
    <glyph glyph-name="Oacute" unicode="&#xd3;" horiz-adv-x="760" 
d="M368 23c198 0 290 243 290 402c0 161 -95 250 -211 250c-198 0 -290 -243 -290 -402c0 -161 95 -250 211 -250zM495 714c153 0 263 -99 263 -269c0 -244 -196 -461 -438 -461c-153 0 -263 99 -263 269c0 244 196 461 438 461zM640 928c0 -65 -161 -146 -214 -159
c0 0 -4 10 -5 13c74 52 141 114 197 177c9 -2 22 -13 22 -31z" />
    <glyph glyph-name="Ocircumflex" unicode="&#xd4;" horiz-adv-x="760" 
d="M368 23c198 0 290 243 290 402c0 161 -95 250 -211 250c-198 0 -290 -243 -290 -402c0 -161 95 -250 211 -250zM495 714c153 0 263 -99 263 -269c0 -244 -196 -461 -438 -461c-153 0 -263 99 -263 269c0 244 196 461 438 461zM345 779l198 180s48 -111 109 -173
c0 -10 -8 -26 -30 -26c-53 0 -91 121 -93 153l-146 -153z" />
    <glyph glyph-name="Ograve" unicode="&#xd2;" horiz-adv-x="759" 
d="M368 23c198 0 290 243 290 402c0 161 -95 250 -211 250c-198 0 -290 -243 -290 -402c0 -161 95 -250 211 -250zM495 714c153 0 263 -99 263 -269c0 -244 -196 -461 -438 -461c-153 0 -263 99 -263 269c0 244 196 461 438 461zM401 928c0 18 13 29 22 31
c56 -63 123 -125 197 -177c-1 -3 -5 -13 -5 -13c-53 13 -214 94 -214 159z" />
    <glyph glyph-name="Uacute" unicode="&#xda;" horiz-adv-x="795" 
d="M300 568l-61 -261c-9 -40 -14 -75 -14 -105c0 -121 68 -168 171 -168c139 0 194 87 231 252l71 315c2 10 4 20 4 29c0 24 -16 31 -46 36l-32 5l7 29s58 -4 122 -4s115 4 115 4l-7 -29l-21 -5c-55 -13 -81 -40 -94 -98l-64 -286c-40 -177 -102 -297 -298 -297
c-146 0 -250 64 -250 208c0 28 4 59 12 93l71 315c2 10 4 20 4 29c0 24 -16 31 -46 36l-32 5l7 29s52 -3 140 -3c82 0 132 3 132 3l-7 -29l-21 -5c-55 -13 -81 -40 -94 -98zM674 928c0 -65 -161 -146 -214 -159c0 0 -4 10 -5 13c74 52 141 114 197 177c9 -2 22 -13 22 -31z
" />
    <glyph glyph-name="Ucircumflex" unicode="&#xdb;" horiz-adv-x="795" 
d="M300 568l-61 -261c-9 -40 -14 -75 -14 -105c0 -121 68 -168 171 -168c139 0 194 87 231 252l71 315c2 10 4 20 4 29c0 24 -16 31 -46 36l-32 5l7 29s58 -4 122 -4s115 4 115 4l-7 -29l-21 -5c-55 -13 -81 -40 -94 -98l-64 -286c-40 -177 -102 -297 -298 -297
c-146 0 -250 64 -250 208c0 28 4 59 12 93l71 315c2 10 4 20 4 29c0 24 -16 31 -46 36l-32 5l7 29s52 -3 140 -3c82 0 132 3 132 3l-7 -29l-21 -5c-55 -13 -81 -40 -94 -98zM394 779l198 180s48 -111 109 -173c0 -10 -8 -26 -30 -26c-53 0 -91 121 -93 153l-146 -153z" />
    <glyph glyph-name="Ugrave" unicode="&#xd9;" horiz-adv-x="795" 
d="M300 568l-61 -261c-9 -40 -14 -75 -14 -105c0 -121 68 -168 171 -168c139 0 194 87 231 252l71 315c2 10 4 20 4 29c0 24 -16 31 -46 36l-32 5l7 29s58 -4 122 -4s115 4 115 4l-7 -29l-21 -5c-55 -13 -81 -40 -94 -98l-64 -286c-40 -177 -102 -297 -298 -297
c-146 0 -250 64 -250 208c0 28 4 59 12 93l71 315c2 10 4 20 4 29c0 24 -16 31 -46 36l-32 5l7 29s52 -3 140 -3c82 0 132 3 132 3l-7 -29l-21 -5c-55 -13 -81 -40 -94 -98zM431 928c0 18 13 29 22 31c56 -63 123 -125 197 -177c-1 -3 -5 -13 -5 -13
c-53 13 -214 94 -214 159z" />
    <glyph glyph-name="cedilla" unicode="&#xb8;" horiz-adv-x="221" 
d="M204 0h15c-18 -9 -38 -22 -38 -48c0 -34 54 -43 54 -85c0 -67 -82 -95 -132 -95c-38 0 -64 17 -64 43c0 27 24 43 45 43c7 0 14 -2 17 -5c-9 -6 -17 -16 -17 -28s8 -26 37 -26c27 0 55 13 55 40c0 37 -43 43 -43 90c0 38 44 66 71 71z" />
    <glyph glyph-name="ring" unicode="&#x2da;" horiz-adv-x="282" 
d="M223 685c-43 0 -66 -46 -66 -80s23 -46 48 -46c43 0 66 46 66 80s-23 46 -48 46zM185 530c-38 0 -65 22 -65 61c0 67 61 123 123 123c38 0 65 -22 65 -61c0 -67 -61 -123 -123 -123z" />
    <glyph glyph-name="Aring" unicode="&#xc5;" horiz-adv-x="623" 
d="M418 303l-26 294l-163 -294h189zM405 705l67 11l57 -623c3 -37 19 -53 57 -59l32 -5l-7 -29s-54 3 -125 3c-72 0 -155 -3 -155 -3l7 29l21 5c50 10 78 37 74 90l-10 138h-213l-72 -137c-14 -26 -25 -43 -25 -64c0 -16 14 -23 41 -27l32 -5l-7 -29s-72 3 -119 3
c-45 0 -120 -3 -120 -3l7 29l21 5c64 15 89 54 119 107zM452 923c-43 0 -66 -46 -66 -80s23 -46 48 -46c43 0 66 46 66 80s-23 46 -48 46zM414 768c-38 0 -65 22 -65 61c0 67 61 123 123 123c38 0 65 -22 65 -61c0 -67 -61 -123 -123 -123z" />
    <glyph glyph-name="breve" unicode="&#x2d8;" horiz-adv-x="349" 
d="M366 698h26c-23 -96 -87 -155 -172 -155c-64 0 -100 35 -100 100c0 16 2 35 7 55h54c-3 -13 -5 -24 -5 -35c0 -40 24 -64 70 -64c58 0 105 38 120 99z" />
    <glyph glyph-name="macron" unicode="&#xaf;" horiz-adv-x="321" 
d="M104 577c0 0 67 -3 129 -3c67 0 130 3 130 3l-14 -55s-59 3 -129 3c-60 0 -130 -3 -130 -3z" />
    <glyph glyph-name="dotaccent" unicode="&#x2d9;" horiz-adv-x="220" 
d="M172 563c-31 0 -52 22 -52 52c0 36 29 74 71 74c31 0 51 -22 51 -53c0 -35 -30 -73 -70 -73z" />
    <glyph glyph-name="Ccedilla" unicode="&#xc7;" horiz-adv-x="679" 
d="M718 600c0 -67 -47 -93 -94 -93c-22 0 -32 7 -32 7c17 17 27 40 27 67c0 44 -49 93 -140 93c-215 0 -321 -199 -321 -401c0 -155 73 -249 180 -249c139 0 218 67 265 152l26 -7l-65 -147c-62 0 -103 -36 -231 -38c-8 -8 -14 -18 -14 -32c0 -34 54 -43 54 -85
c0 -67 -82 -95 -132 -95c-38 0 -64 17 -64 43c0 27 24 43 45 43c7 0 14 -2 17 -5c-9 -6 -17 -16 -17 -28s8 -26 37 -26c27 0 55 13 55 40c0 37 -43 43 -43 90c0 23 16 43 35 56c-158 8 -248 112 -248 268c0 260 197 461 476 461c116 0 184 -55 184 -114z" />
    <glyph glyph-name="degree" unicode="&#xb0;" horiz-adv-x="327" 
d="M164 578c0 -45 37 -83 82 -83s81 38 81 83c0 48 -36 86 -81 86s-82 -38 -82 -86zM120 578c0 72 55 127 126 127s126 -55 126 -127c0 -70 -55 -125 -126 -125s-126 55 -126 125z" />
    <glyph glyph-name="guillemotleft" unicode="&#xab;" horiz-adv-x="439" 
d="M90 237l211 216l11 -45l-174 -169c34 -33 91 -101 91 -163c0 -28 -15 -61 -41 -61c-39 132 -98 222 -98 222zM257 237l192 196l10 -41l-157 -153c31 -29 81 -89 81 -144c0 -25 -11 -59 -38 -59c-34 121 -88 201 -88 201z" />
    <glyph glyph-name="guillemotright" unicode="&#xbb;" horiz-adv-x="439" 
d="M389 231l-211 -216l-11 45l174 169c-34 33 -91 108 -91 170c0 28 17 54 41 54c41 -118 98 -222 98 -222zM222 231l-192 -196l-10 41l157 153c-31 29 -81 96 -81 151c0 25 13 52 38 52c32 -94 88 -201 88 -201z" />
    <glyph glyph-name="plus" unicode="+" horiz-adv-x="457" 
d="M199 441h59v-191h191v-59h-191v-191h-59v191h-191v59h191v191z" />
    <glyph glyph-name="less" unicode="&#x3c;" horiz-adv-x="555" 
d="M489 4l-431 188v57l431 188v-61l-361 -156l361 -155v-61z" />
    <glyph glyph-name="equal" unicode="=" horiz-adv-x="457" 
d="M449 91h-441v57h441v-57zM449 350v-57h-441v57h441z" />
    <glyph glyph-name="greater" unicode="&#x3e;" horiz-adv-x="545" 
d="M489 193l-431 -189v61l361 155l-361 156v61l431 -188v-56z" />
    <glyph glyph-name="asciicircum" unicode="^" horiz-adv-x="556" 
d="M309 689l180 -364h-68l-143 291l-143 -291h-68l181 364h61z" />
    <glyph glyph-name="underscore" unicode="_" horiz-adv-x="566" 
d="M516 -66l-17 -65h-504l17 65h504z" />
    <glyph glyph-name="minus" unicode="&#x2212;" horiz-adv-x="457" 
d="M8 250h441v-59h-441v59z" />
    <glyph glyph-name="plusminus" unicode="&#xb1;" horiz-adv-x="456" 
d="M197 313v143h62v-143h189v-57h-189v-143h-62v143h-190v57h190zM7 0v57h441v-57h-441z" />
    <glyph glyph-name="lessequal" unicode="&#x2264;" horiz-adv-x="456" 
d="M443 105l-436 147v55l436 146v-61l-343 -113l343 -113v-61zM448 61v-61h-441v61h441z" />
    <glyph glyph-name="greaterequal" unicode="&#x2265;" horiz-adv-x="456" 
d="M448 252l-436 -147v61l343 113l-343 113v61l436 -146v-55zM7 0v61h441v-61h-441z" />
    <glyph glyph-name="logicalnot" unicode="&#xac;" horiz-adv-x="456" 
d="M448 350v-274h-62v217h-379v57h441z" />
    <glyph glyph-name="endash" unicode="&#x2013;" horiz-adv-x="612" 
d="M550 208h-504l15 54h504z" />
    <glyph glyph-name="emdash" unicode="&#x2014;" horiz-adv-x="1108" 
d="M1046 208h-1000l15 54h1000z" />
    <glyph glyph-name="quotedblleft" unicode="&#x201c;" horiz-adv-x="414" 
d="M175 446c-34 0 -55 28 -55 64c0 100 92 179 186 199l3 -15c-52 -19 -106 -64 -106 -127c0 -27 8 -51 33 -64c-6 -30 -29 -57 -61 -57zM345 446c-34 0 -55 28 -55 64c0 100 92 179 186 199l3 -15c-52 -19 -106 -64 -106 -127c0 -27 8 -51 33 -64c-6 -30 -29 -57 -61 -57z
" />
    <glyph glyph-name="quotedblright" unicode="&#x201d;" horiz-adv-x="414" 
d="M374 709c34 0 55 -28 55 -64c0 -100 -92 -179 -186 -199l-3 15c52 19 106 64 106 127c0 27 -8 51 -33 64c6 30 29 57 61 57zM204 709c34 0 55 -28 55 -64c0 -100 -92 -179 -186 -199l-3 15c52 19 106 64 106 127c0 27 -8 51 -33 64c6 30 29 57 61 57z" />
    <glyph glyph-name="notequal" unicode="&#x2260;" horiz-adv-x="457" 
d="M277 293l-44 -145h216v-57h-236c-35 -115 -69 -235 -69 -235h-66s40 117 79 235h-149v57h171l43 145h-214v57h234c36 116 70 236 70 236h66s-39 -117 -79 -236h150v-57h-172z" />
    <glyph glyph-name="bracketleft" unicode="[" horiz-adv-x="422" 
d="M490 720c7 -6 12 -16 12 -26c0 -44 -60 -57 -101 -57c-32 0 -77 6 -77 6l-198 -782s26 6 72 6c48 0 83 -19 83 -47c0 -20 -15 -33 -30 -36c-31 34 -109 51 -201 51l211 833c93 0 180 18 229 52z" />
    <glyph glyph-name="backslash" unicode="\" horiz-adv-x="451" 
d="M275 239c5 -146 26 -475 26 -475h-62s-5 329 -12 475c-6 146 -27 475 -27 475h62s5 -329 13 -475z" />
    <glyph glyph-name="bracketright" unicode="]" horiz-adv-x="423" 
d="M190 720c31 -34 109 -52 202 -52l-212 -833c-93 0 -179 -17 -228 -51c-6 3 -13 14 -13 25c0 45 57 58 92 58c33 0 86 -6 86 -6l198 782s-46 -6 -78 -6c-33 0 -77 11 -77 44c0 18 11 32 30 39z" />
    <glyph glyph-name="divide" unicode="&#xf7;" horiz-adv-x="456" 
d="M291 51c0 -37 -28 -64 -63 -64c-36 0 -63 27 -63 64c0 35 27 62 63 62c35 0 63 -27 63 -62zM291 392c0 -37 -28 -64 -63 -64c-36 0 -63 27 -63 64c0 35 27 62 63 62c35 0 63 -27 63 -62zM449 191h-441v59h441v-59z" />
    <glyph glyph-name="braceleft" unicode="{" horiz-adv-x="377" 
d="M185 252c31 -6 62 -34 62 -84c0 -100 -79 -212 -79 -297c0 -33 17 -49 40 -49c21 0 37 10 44 22c9 -2 15 -9 15 -19c0 -31 -45 -39 -66 -39c-47 0 -96 28 -96 99c0 109 92 191 92 298c0 34 -16 56 -60 56h-20l7 26h20c59 0 89 41 104 97c19 75 3 118 26 211
c29 115 99 145 164 145c33 0 49 -17 49 -31c0 -17 -14 -24 -27 -27c-2 12 -13 22 -33 22c-30 0 -56 -27 -76 -79c-29 -78 -19 -119 -47 -229c-19 -75 -77 -115 -119 -122z" />
    <glyph glyph-name="braceright" unicode="}" horiz-adv-x="377" 
d="M238 252c-33 6 -63 33 -63 84c0 99 79 192 79 297c0 33 -18 49 -40 49s-36 -9 -45 -22c-8 3 -15 9 -15 19c0 28 41 39 66 39c47 0 97 -27 97 -97c0 -107 -93 -194 -93 -300c0 -34 17 -56 60 -56h20l-7 -26h-20c-58 0 -89 -41 -103 -97c-21 -82 -7 -132 -27 -211
c-27 -106 -108 -145 -162 -145c-36 0 -50 14 -50 28c0 15 11 27 27 30c3 -13 11 -22 33 -22c28 0 57 26 75 79c27 80 20 130 48 229c21 75 72 116 120 122z" />
    <glyph glyph-name="parenleft" unicode="(" horiz-adv-x="342" 
d="M432 704c-183 -151 -316 -376 -316 -623c0 -99 26 -195 85 -281l-20 -16c-73 71 -136 189 -136 335c0 241 171 468 375 601z" />
    <glyph glyph-name="parenright" unicode=")" horiz-adv-x="342" 
d="M246 425c0 100 -26 192 -86 279l20 16c67 -59 136 -188 136 -342c0 -248 -183 -466 -374 -594l-12 16c189 163 316 387 316 625z" />
    <glyph glyph-name="bullet" unicode="&#x2022;" horiz-adv-x="500" 
d="M75 220c0 97 78 175 175 175s175 -78 175 -175c0 -96 -78 -175 -175 -175s-175 79 -175 175z" />
    <glyph glyph-name="paragraph" unicode="&#xb6;" horiz-adv-x="577" 
d="M582 697c66 0 110 3 110 3l-8 -29c-1 0 -20 -5 -20 -5c-40 -10 -75 -40 -88 -98l-89 -399c-56 -248 -190 -354 -342 -354c-60 0 -115 31 -115 88c0 40 27 73 71 73c16 0 32 -5 40 -15c-19 -14 -33 -41 -33 -68c0 -21 12 -37 48 -37c85 0 128 116 154 232l44 197
s-10 -1 -33 -1c-103 0 -180 35 -180 142c0 170 116 274 283 274c77 0 108 -3 158 -3zM411 118l119 541h-45l-121 -551c-25 -114 -53 -180 -111 -231c84 33 133 123 158 241z" />
    <glyph glyph-name="section" unicode="&#xa7;" 
d="M170 -132c64 0 124 55 124 124c0 112 -159 236 -159 399c0 183 176 323 359 323c72 0 101 -31 101 -64c0 -35 -30 -68 -68 -68c-15 0 -29 4 -36 10c7 9 13 21 13 34c0 18 -13 36 -49 36c-64 0 -125 -54 -125 -123c0 -112 159 -232 159 -398c0 -178 -175 -325 -359 -325
c-71 0 -100 37 -100 70c0 35 30 62 67 62c16 0 29 -4 36 -10c-7 -9 -13 -21 -13 -34c0 -18 13 -36 50 -36zM350 644c-83 -31 -143 -121 -143 -214c0 -150 153 -258 153 -393c0 -61 -34 -114 -86 -151c88 33 144 127 144 222c0 158 -153 255 -153 386c0 62 32 113 85 150z
" />
    <glyph glyph-name="question" unicode="?" horiz-adv-x="401" 
d="M187 188h-19c-12 19 -23 52 -23 88c0 157 251 175 251 315c0 32 -31 77 -92 77c-42 0 -69 -17 -69 -46c0 -17 7 -28 7 -28c-12 -5 -21 -7 -38 -7c-27 0 -50 18 -50 46c0 60 61 81 113 81c87 0 174 -64 174 -146c0 -216 -258 -196 -258 -358c0 -9 2 -17 4 -22zM120 -16
c-30 0 -50 21 -50 50c0 34 28 70 67 70c30 0 49 -21 49 -50c0 -34 -28 -70 -66 -70z" />
    <glyph glyph-name="registered" unicode="&#xae;" horiz-adv-x="390" 
d="M114 574c0 -65 49 -119 116 -119c66 0 115 54 115 119c0 66 -49 120 -115 120c-67 0 -116 -54 -116 -120zM90 574c0 78 62 140 140 140c77 0 140 -62 140 -140c0 -77 -63 -140 -140 -140c-82 0 -140 63 -140 140zM248 574c0 0 5 -3 10 -11l25 -41c6 -10 15 -13 25 -13
c4 0 8 1 8 1v-8s-8 -4 -18 -4c-19 0 -29 4 -42 24l-24 37c-4 7 -10 9 -14 9s-6 -1 -6 -1v-45c0 -10 4 -12 11 -13l9 -1v-8s-19 1 -33 1c-17 0 -32 -1 -32 -1v8l6 1c9 2 13 10 13 23v91c0 13 -3 17 -11 19l-8 2v8s16 -1 30 -1c13 0 22 1 32 1c30 0 51 -15 51 -38
c0 -32 -32 -40 -32 -40zM224 642c-5 0 -9 -1 -12 -2v-63c5 4 10 5 14 5c6 0 10 -2 10 -2c11 7 14 22 14 34c0 21 -14 28 -26 28z" />
    <glyph glyph-name="copyright" unicode="&#xa9;" horiz-adv-x="853" 
d="M149 349c0 -175 136 -317 305 -317c168 0 305 142 305 317s-137 317 -305 317c-169 0 -305 -142 -305 -317zM90 349c0 201 163 364 364 364s364 -163 364 -364s-163 -364 -364 -364s-364 163 -364 364zM603 530v-96h-19c-6 51 -54 91 -128 91c-80 0 -135 -69 -135 -168
c0 -125 68 -180 157 -180c66 0 104 47 117 108l18 -1l-13 -120c-41 0 -78 -21 -139 -21c-113 0 -210 57 -210 196c0 112 77 216 216 216c50 0 104 -25 136 -25z" />
    <glyph glyph-name="trademark" unicode="&#x2122;" horiz-adv-x="597" 
d="M299 704h7l-4 -53l-7 1c0 21 -15 31 -37 31h-26v-152c0 -18 6 -23 18 -24l9 -1v-13s-25 1 -45 1c-28 0 -48 -1 -48 -1v13l8 1c15 2 20 18 20 39v137h-21c-30 0 -43 -11 -47 -32l-6 2l3 51h7s5 -4 12 -4h144c10 0 13 4 13 4zM347 549l10 110c1 14 -2 24 -16 26l-11 2v13
s32 -2 57 -2c0 -7 1 -14 5 -23l64 -141l57 137c7 16 7 27 7 27c27 0 44 1 67 2v-13l-11 -2c-10 -2 -14 -9 -13 -20l12 -137c1 -13 7 -19 22 -21l9 -1v-13s-19 1 -55 1c-27 0 -46 -1 -46 -1v13l8 1c16 2 22 15 20 38l-11 111l-66 -163l-11 -4l-72 164l-9 -114
c-1 -17 1 -30 19 -32l9 -1v-13s-21 1 -44 1c-17 0 -36 -1 -36 -1v13l7 1c16 2 26 19 28 42z" />
    <glyph glyph-name="periodcentered" unicode="&#xb7;" horiz-adv-x="207" 
d="M105 231c-30 0 -50 21 -50 50c0 34 28 70 67 70c30 0 49 -21 49 -50c0 -34 -28 -70 -66 -70z" />
    <glyph glyph-name="numbersign" unicode="#" horiz-adv-x="485" 
d="M439 160l-14 -46h-85l-34 -114h-52l34 114h-107l-34 -114h-52l34 114h-84l13 46h84l37 129h-83l13 46h84l35 121h52l-35 -121h107l35 121h52l-35 -121h86l-14 -46h-86l-37 -129h86zM301 160l37 129h-107l-37 -129h107z" />
    <glyph glyph-name="exclam" unicode="!" horiz-adv-x="286" 
d="M283 714c30 0 49 -21 49 -50c0 -5 -1 -12 -2 -17c-25 -126 -103 -280 -132 -413c-6 -29 -7 -47 -7 -47h-34s6 18 12 47c29 133 12 296 46 419c12 43 40 61 68 61zM130 -16c-30 0 -50 21 -50 50c0 34 28 70 67 70c30 0 49 -21 49 -50c0 -34 -28 -70 -66 -70z" />
    <glyph glyph-name="exclamdown" unicode="&#xa1;" horiz-adv-x="286" 
d="M65 -228c-30 0 -49 21 -49 50c0 5 1 12 2 17c25 126 103 280 132 413c6 29 7 47 7 47h34s-6 -18 -12 -47c-29 -133 -12 -296 -46 -419c-12 -43 -40 -61 -68 -61zM218 502c30 0 50 -21 50 -50c0 -34 -28 -70 -67 -70c-30 0 -49 21 -49 50c0 34 28 70 66 70z" />
    <glyph glyph-name="asciitilde" unicode="~" horiz-adv-x="567" 
d="M256 305c87 0 115 -68 190 -68c41 0 84 23 111 63l20 -17c-26 -60 -83 -110 -167 -110c-82 0 -110 65 -184 65c-41 0 -84 -20 -111 -60l-20 17c27 58 85 110 161 110z" />
    <glyph glyph-name="germandbls" unicode="&#xdf;" horiz-adv-x="548" 
d="M557 655c0 54 -27 80 -91 80c-94 0 -153 -99 -195 -227l-118 -360c-60 -182 -174 -451 -344 -451c-60 0 -81 30 -81 60c0 39 31 54 58 54c7 0 13 -1 13 -1c-4 -9 -6 -17 -6 -25c0 -24 16 -40 48 -40c82 0 137 90 186 252l123 408h-76l7 24l83 17l9 27
c55 167 178 306 333 306c88 0 133 -49 133 -114c0 -203 -258 -196 -258 -316c0 -74 98 -114 98 -214c0 -96 -105 -151 -177 -151c-42 0 -87 11 -87 53c0 35 29 56 60 56c5 0 10 -1 10 -1c-4 -7 -6 -14 -6 -22c0 -21 24 -35 50 -35c45 0 82 17 82 67c0 82 -84 120 -84 219
c0 144 230 155 230 334z" />
    <glyph glyph-name="OE" unicode="&#x152;" horiz-adv-x="918" 
d="M645 34c136 0 177 66 211 126l21 -3l-49 -157s-249 3 -335 3c-20 0 -38 0 -53 -1c-38 -11 -78 -18 -120 -18c-153 0 -263 99 -263 269c0 244 196 461 438 461c36 0 70 -6 101 -17h67c136 0 319 3 319 3l-40 -149h-20c0 78 -34 115 -146 115c-34 0 -61 -3 -78 -7l-67 -281
h83c49 0 79 28 103 77l19 39h26s-25 -71 -38 -128c-14 -62 -18 -110 -18 -110h-25l-1 25c-1 37 -18 58 -60 58h-99l-51 -214c-1 -4 -6 -25 -6 -40c0 -36 26 -51 81 -51zM368 23c59 0 99 36 113 97l103 436c2 9 3 17 3 25c0 62 -61 94 -140 94c-198 0 -290 -243 -290 -402
c0 -161 95 -250 211 -250z" />
    <glyph glyph-name="oe" unicode="&#x153;" horiz-adv-x="686" 
d="M705 397c0 -78 -95 -134 -282 -183c-10 -34 -15 -63 -15 -98c0 -37 17 -75 69 -75c63 0 126 61 150 96l15 -11c-14 -25 -83 -142 -194 -142c-64 0 -105 33 -115 84c-42 -48 -105 -84 -167 -84c-70 0 -116 51 -116 139c0 148 119 343 273 343c57 0 97 -42 109 -102
c47 55 118 102 196 102c57 0 77 -36 77 -69zM195 21c91 0 163 182 163 295c0 73 -21 112 -63 112c-91 0 -163 -181 -163 -294c0 -73 21 -113 63 -113zM628 390c0 23 -13 36 -34 36c-84 0 -142 -126 -163 -185c68 20 197 63 197 149z" />
    <glyph glyph-name="hungarumlaut" unicode="&#x2dd;" horiz-adv-x="436" 
d="M326 669c0 -65 -161 -146 -214 -159c0 0 -4 10 -5 13c74 52 141 114 197 177c9 -2 22 -13 22 -31zM480 669c0 -65 -161 -146 -214 -159c0 0 -4 10 -5 13c74 52 141 114 197 177c9 -2 22 -13 22 -31z" />
    <glyph glyph-name="ogonek" unicode="&#x2db;" horiz-adv-x="208" 
d="M170 -157c0 -30 -38 -44 -85 -44c-43 0 -69 19 -69 53c0 70 74 134 130 165l11 -17c-34 -30 -80 -75 -80 -126c0 -21 13 -31 39 -31s38 10 44 17c7 -4 10 -12 10 -17z" />
    <glyph glyph-name="ae" unicode="&#xe6;" horiz-adv-x="657" 
d="M676 397c0 -78 -95 -134 -282 -183c-10 -34 -15 -63 -15 -98c0 -37 17 -75 69 -75c63 0 126 61 150 96l15 -11c-14 -25 -83 -142 -194 -142c-80 0 -122 45 -122 121c0 6 0 12 1 19c-32 -61 -84 -141 -170 -141c-61 0 -88 49 -88 114c0 162 137 342 286 342
c47 0 81 -23 98 -46c47 44 106 73 175 73c57 0 77 -36 77 -69zM165 42c84 0 180 211 208 314c-12 29 -35 45 -67 45c-104 0 -188 -153 -188 -284c0 -52 11 -75 47 -75zM599 390c0 23 -13 36 -34 36c-55 0 -98 -53 -128 -106c-11 -24 -22 -52 -33 -79c69 21 195 64 195 149z
" />
    <glyph glyph-name="AE" unicode="&#xc6;" horiz-adv-x="902" 
d="M629 34c136 0 177 66 211 126l21 -3l-49 -157s-249 3 -335 3c-88 -1 -132 -3 -132 -3l7 29l21 5c55 13 81 40 94 98l29 130h-202l-114 -137c-19 -22 -44 -47 -44 -67c0 -15 19 -20 38 -24l25 -5l-7 -29s-79 3 -126 3c-45 0 -112 -3 -112 -3l7 29l22 5
c69 15 102 51 151 107l440 506c-7 11 -21 15 -42 19l-32 5l7 29s52 -3 140 -3c136 0 319 3 319 3l-40 -149h-20c0 78 -34 115 -146 115c-34 0 -61 -3 -78 -7l-67 -281h83c49 0 79 28 103 77l19 39h26s-25 -71 -38 -128c-14 -62 -18 -110 -18 -110h-25l-1 25
c-1 37 -18 58 -60 58h-99l-51 -214c-1 -4 -6 -25 -6 -40c0 -36 26 -51 81 -51zM326 303h180l65 284z" />
    <glyph glyph-name="dollar" unicode="$" horiz-adv-x="335" 
d="M368 409c0 -30 -23 -55 -60 -55c-7 0 -12 1 -16 2c3 6 5 14 5 20c0 23 -12 43 -52 43c-52 0 -75 -39 -75 -70c0 -74 98 -114 98 -214c0 -82 -77 -134 -144 -147c-27 -82 -51 -152 -51 -152h-37s26 69 54 148c-42 0 -86 11 -86 53c0 35 29 56 60 56c5 0 10 -1 10 -1
c-4 -7 -6 -14 -6 -22c0 -21 24 -35 50 -35c45 0 82 17 82 67c0 82 -84 120 -84 219c0 76 76 134 142 143c28 85 55 163 55 163h37s-31 -78 -58 -162c48 -4 76 -27 76 -56z" />
    <glyph glyph-name="quotedbl" unicode="&#x22;" horiz-adv-x="323" 
d="M188 709c19 0 31 -13 31 -30c0 -5 -1 -11 -2 -16c-15 -74 -48 -101 -66 -186c-3 -13 -4 -27 -4 -27h-27s4 14 7 27c9 41 9 67 9 106c0 27 0 56 8 87c6 22 21 39 44 39zM312 709c19 0 31 -13 31 -30c0 -5 -1 -11 -2 -16c-15 -74 -48 -101 -66 -186c-3 -13 -4 -27 -4 -27
h-27s4 14 7 27c9 41 9 67 9 106c0 27 0 56 8 87c6 22 21 39 44 39z" />
    <glyph glyph-name="cent" unicode="&#xa2;" horiz-adv-x="394" 
d="M356 349c4 11 6 20 6 28c0 25 -16 41 -51 41c-116 0 -185 -182 -185 -302c0 -49 24 -75 64 -75c63 0 118 50 151 96l15 -11c-26 -52 -81 -132 -170 -141c-26 -81 -50 -149 -50 -149h-37s27 69 55 149c-75 5 -110 46 -110 120c0 152 122 336 284 358c27 85 55 164 55 164
h37s-31 -78 -58 -161c35 0 73 -15 73 -55c0 -38 -32 -64 -65 -64c-5 0 -11 1 -14 2z" />
    <glyph glyph-name="yen" unicode="&#xa5;" horiz-adv-x="499" 
d="M473 439c46 0 66 2 66 2l-6 -25l-13 -2c-24 -4 -41 -15 -58 -36l-152 -186c59 0 144 2 144 2l-9 -33s-89 1 -148 2l-27 -91c-2 -8 -4 -15 -4 -21c0 -15 8 -23 26 -24l22 -2l-6 -25s-35 3 -95 3c-58 0 -91 -3 -91 -3l9 25l20 3c26 4 45 29 60 81l16 54
c-59 -1 -147 -2 -147 -2l10 33s81 -1 140 -2l-58 193c-5 16 -17 25 -34 28l-19 3l6 25s29 -3 77 -3c42 0 83 3 83 3l-7 -25l-10 -2c-16 -4 -22 -17 -22 -32c0 -5 1 -10 2 -15l40 -157l136 167c5 6 12 15 12 25c0 7 -5 11 -18 12l-18 2l6 25s31 -2 67 -2z" />
    <glyph glyph-name="quoteleft" unicode="&#x2018;" horiz-adv-x="244" 
d="M175 446c-34 0 -55 28 -55 64c0 100 92 179 186 199l3 -15c-52 -19 -106 -64 -106 -127c0 -27 8 -51 33 -64c-6 -30 -29 -57 -61 -57z" />
    <glyph glyph-name="quoteright" unicode="&#x2019;" horiz-adv-x="244" 
d="M204 709c34 0 55 -28 55 -64c0 -100 -92 -179 -186 -199l-3 15c52 19 106 64 106 127c0 27 -8 51 -33 64c6 30 29 57 61 57z" />
    <glyph glyph-name="quotesingle" unicode="'" horiz-adv-x="199" 
d="M188 709c19 0 31 -13 31 -30c0 -5 -1 -11 -2 -16c-15 -74 -48 -101 -66 -186c-3 -13 -4 -27 -4 -27h-27s4 14 7 27c9 41 9 67 9 106c0 27 0 56 8 87c6 22 21 39 44 39z" />
    <glyph glyph-name="percent" unicode="%" horiz-adv-x="758" 
d="M662 635h61s-213 -252 -284 -337c-68 -80 -267 -323 -267 -323h-62s217 253 289 339c67 80 263 321 263 321zM297 603c-67 0 -97 -114 -97 -166c0 -47 21 -74 50 -74c66 0 97 111 97 164c0 42 -15 76 -50 76zM321 643c64 0 97 -45 97 -106c0 -110 -90 -214 -192 -214
c-57 0 -96 38 -96 104c0 110 89 216 191 216zM574 245c-67 0 -97 -114 -97 -166c0 -47 21 -74 50 -74c66 0 97 111 97 164c0 42 -15 76 -50 76zM598 285c64 0 97 -45 97 -106c0 -110 -90 -214 -192 -214c-57 0 -96 38 -96 104c0 110 89 216 191 216z" />
    <glyph glyph-name="asterisk" unicode="*" horiz-adv-x="324" 
d="M264 565c41 -15 75 -23 102 -40c8 -5 13 -13 13 -22c0 -15 -12 -26 -25 -26c-4 0 -8 1 -12 3c-28 16 -56 40 -85 69c7 -42 16 -77 16 -109c0 -13 -11 -24 -26 -24c-13 0 -24 11 -24 24c0 32 8 67 14 109c-29 -29 -57 -53 -85 -69c-4 -2 -8 -3 -12 -3c-13 0 -25 11 -25 26
c0 9 5 17 13 22c27 17 61 25 102 40c-41 15 -75 23 -102 40c-8 5 -13 13 -13 22c0 15 12 26 25 26c4 0 8 -1 12 -3c28 -16 56 -40 85 -69c-6 42 -14 77 -14 109c0 13 11 24 24 24c15 0 26 -11 26 -24c0 -32 -9 -67 -16 -109c29 29 57 53 85 69c4 2 8 3 12 3
c13 0 25 -11 25 -26c0 -9 -5 -17 -13 -22c-27 -17 -61 -25 -102 -40z" />
    <glyph glyph-name="bar" unicode="|" horiz-adv-x="221" 
d="M103 248c21 97 110 516 110 516h61s-96 -419 -117 -516c-21 -98 -110 -516 -110 -516h-60s95 418 116 516z" />
    <glyph glyph-name="slash" unicode="/" horiz-adv-x="411" 
d="M182 239c76 146 237 475 237 475h62s-176 -329 -252 -475s-236 -475 -236 -475h-63s176 329 252 475z" />
    <glyph glyph-name="ordfeminine" unicode="&#xaa;" horiz-adv-x="333" 
d="M63 277l11 39s62 -3 123 -3c65 0 127 3 127 3l-11 -39s-58 3 -124 3c-59 0 -126 -3 -126 -3zM301 400c21 0 40 29 54 52l12 -7c-13 -32 -45 -88 -90 -88c-18 0 -32 10 -32 35c0 13 4 29 7 40h-4c-17 -32 -46 -75 -93 -75c-38 0 -55 30 -55 69c0 93 82 191 170 191
c21 0 33 -6 44 -15c4 10 15 31 35 31c10 0 18 -5 24 -11c-17 -21 -80 -154 -80 -210c0 -8 2 -12 8 -12zM176 395c47 0 102 112 120 172c-7 14 -20 25 -38 25c-59 0 -108 -82 -108 -155c0 -29 6 -42 26 -42z" />
    <glyph glyph-name="ordmasculine" unicode="&#xba;" horiz-adv-x="322" 
d="M201 357c-41 0 -69 30 -69 81c0 85 70 195 160 195c43 0 70 -30 70 -80c0 -86 -70 -196 -161 -196zM218 382c52 0 93 101 93 166c0 38 -10 60 -35 60c-52 0 -92 -101 -92 -165c0 -38 11 -61 34 -61zM63 277l11 39s62 -3 123 -3c65 0 127 3 127 3l-11 -39s-58 3 -124 3
c-59 0 -126 -3 -126 -3z" />
    <glyph glyph-name="perthousand" unicode="&#x2030;" horiz-adv-x="1089" 
d="M662 635h61s-213 -252 -284 -337c-68 -80 -267 -323 -267 -323h-62s217 253 289 339c67 80 263 321 263 321zM297 603c-67 0 -97 -114 -97 -166c0 -47 21 -74 50 -74c66 0 97 111 97 164c0 42 -15 76 -50 76zM321 643c64 0 97 -45 97 -106c0 -110 -90 -214 -192 -214
c-57 0 -96 38 -96 104c0 110 89 216 191 216zM574 245c-67 0 -97 -114 -97 -166c0 -47 21 -74 50 -74c66 0 97 111 97 164c0 42 -15 76 -50 76zM598 285c64 0 97 -45 97 -106c0 -110 -90 -214 -192 -214c-57 0 -96 38 -96 104c0 110 89 216 191 216zM905 245
c-67 0 -97 -114 -97 -166c0 -47 21 -74 50 -74c66 0 97 111 97 164c0 42 -15 76 -50 76zM929 285c64 0 97 -45 97 -106c0 -110 -90 -214 -192 -214c-57 0 -96 38 -96 104c0 110 89 216 191 216z" />
    <glyph glyph-name="guilsinglleft" unicode="&#x2039;" horiz-adv-x="292" 
d="M90 237l211 216l11 -45l-174 -169c34 -33 91 -101 91 -163c0 -28 -15 -61 -41 -61c-39 132 -98 222 -98 222z" />
    <glyph glyph-name="guilsinglright" unicode="&#x203a;" horiz-adv-x="292" 
d="M242 231l-211 -216l-11 45l174 169c-34 33 -91 108 -91 170c0 28 17 54 41 54c41 -118 98 -222 98 -222z" />
    <glyph glyph-name="quotesinglbase" unicode="&#x201a;" horiz-adv-x="245" 
d="M114 104c34 0 55 -28 55 -64c0 -100 -92 -179 -186 -199l-3 15c52 19 106 64 106 127c0 27 -8 51 -33 64c6 30 29 57 61 57z" />
    <glyph glyph-name="quotedblbase" unicode="&#x201e;" horiz-adv-x="415" 
d="M284 104c34 0 55 -28 55 -64c0 -100 -92 -179 -186 -199l-3 15c52 19 106 64 106 127c0 27 -8 51 -33 64c6 30 29 57 61 57zM114 104c34 0 55 -28 55 -64c0 -100 -92 -179 -186 -199l-3 15c52 19 106 64 106 127c0 27 -8 51 -33 64c6 30 29 57 61 57z" />
    <glyph glyph-name="Euro" unicode="&#x20ac;" horiz-adv-x="400" 
d="M356 349c4 11 6 20 6 28c0 25 -16 41 -51 41c-68 0 -120 -62 -151 -138h12c66 0 147 3 147 3l-10 -34s-78 2 -160 2c-5 -15 -10 -32 -13 -47h14c66 0 147 2 147 2l-10 -34s-80 2 -145 2h-12c-3 -20 -4 -39 -4 -58c0 -49 24 -75 64 -75c63 0 118 50 151 96l15 -11
c-27 -55 -87 -142 -186 -142c-86 0 -126 41 -126 121c0 21 2 45 7 67h-43l9 34s18 -1 43 -1c4 15 10 30 16 45c-27 -1 -47 -1 -47 -1l9 34s22 -1 54 -3c55 102 155 186 270 186c35 0 73 -15 73 -55c0 -38 -32 -64 -65 -64c-5 0 -11 1 -14 2z" />
    <glyph glyph-name="sterling" unicode="&#xa3;" horiz-adv-x="472" 
d="M414 466c52 0 78 -25 78 -55c0 -40 -31 -62 -66 -62c-15 0 -27 2 -34 6c13 9 24 22 24 41c0 15 -16 30 -39 30c-61 0 -92 -46 -110 -111l-23 -82h124l-8 -29h-125l-19 -67c-14 -51 -44 -79 -90 -97l1 -3c9 4 31 12 64 12c42 0 80 -24 119 -24c33 0 66 18 82 48l12 -8
c-11 -38 -40 -103 -132 -103c-70 0 -97 29 -159 29c-41 0 -73 -11 -97 -22l-6 16c46 30 100 66 132 170l15 49h-73l5 15s44 4 78 13l11 41c36 137 148 193 236 193z" />
    <glyph glyph-name="Oslash" unicode="&#xd8;" horiz-adv-x="760" 
d="M495 714c67 0 127 -19 172 -56l51 56h63c-24 -25 -48 -49 -83 -86c38 -45 60 -107 60 -183c0 -244 -196 -461 -438 -461c-66 0 -125 18 -169 53c-29 -32 -48 -53 -48 -53h-63s33 34 79 83c-39 45 -62 108 -62 186c0 244 196 461 438 461zM185 137c73 76 156 165 212 226
l212 231c-39 53 -97 81 -162 81c-198 0 -290 -243 -290 -402c0 -54 10 -99 28 -136zM368 23c198 0 290 243 290 402c0 52 -10 96 -27 132l-210 -223c-41 -44 -137 -150 -213 -234c39 -50 96 -77 160 -77z" />
    <glyph glyph-name="fraction" unicode="&#x2044;" horiz-adv-x="494" 
d="M543 750h62s-176 -234 -291 -383c-105 -136 -284 -383 -284 -383h-62s176 234 290 383c105 136 285 383 285 383z" />
    <glyph glyph-name="mu" unicode="&#xb5;" horiz-adv-x="496" 
d="M145 400c-25 0 -65 -52 -86 -82l-15 10c32 60 89 138 158 138c24 0 38 -9 38 -39c0 -26 -11 -69 -34 -135l-60 -172c-8 -22 -12 -37 -12 -50c0 -10 3 -19 15 -19c101 0 276 303 276 407c0 0 10 8 34 8c23 0 38 -13 38 -36c0 -8 -2 -18 -5 -28l-94 -289
c-3 -10 -7 -22 -7 -32c0 -23 27 -28 69 -28v-22s-97 -4 -184 -46c78 192 106 263 114 285h-4c-70 -129 -178 -286 -279 -286c-13 0 -29 4 -35 16c-20 -44 -37 -113 -37 -156c0 -23 7 -34 16 -40c-8 -19 -32 -38 -54 -38c-19 0 -34 11 -34 35c0 10 3 24 8 40
c28 95 69 187 102 280l60 171c17 48 27 78 27 94c0 10 -5 14 -15 14z" />
    <glyph glyph-name="dagger" unicode="&#x2020;" horiz-adv-x="607" 
d="M221 -192h-23l69 273c4 16 6 31 6 45c0 34 -10 63 -24 92c41 41 74 84 88 137c8 30 12 58 12 58h-6c-49 0 -113 -32 -159 -32c-20 0 -52 4 -52 30c0 36 37 51 71 51c47 0 95 -30 145 -30h6l2 8c4 20 6 43 6 68c0 27 -2 54 -2 80c0 21 1 39 5 55c10 41 36 71 75 71
c30 0 43 -18 43 -44c0 -8 -1 -17 -4 -27c-13 -53 -80 -145 -95 -203l-2 -8h6c50 0 113 30 160 30c24 0 51 -7 51 -31c0 -36 -40 -50 -72 -50c-46 0 -95 32 -144 32h-6s-9 -28 -17 -58c-4 -16 -5 -31 -5 -45c0 -33 9 -63 23 -92c-41 -41 -75 -84 -88 -137z" />
    <glyph glyph-name="daggerdbl" unicode="&#x2021;" horiz-adv-x="606" 
d="M209 -192c-30 0 -43 19 -43 44c0 76 77 150 98 227l2 8h-6c-50 0 -113 -29 -160 -29c-24 0 -51 6 -51 29c0 37 41 51 73 51c46 0 94 -31 143 -31h6s6 16 10 33c3 11 4 23 4 34c0 33 -10 63 -26 85c36 34 72 74 83 120c5 18 7 34 7 34h-6c-49 0 -113 -32 -160 -32
c-20 0 -51 4 -51 30c0 36 40 51 70 51c48 0 95 -30 146 -30h5l2 8c5 20 7 43 7 68c0 27 -2 54 -2 80c0 21 1 39 5 55c10 41 35 71 75 71c25 0 43 -17 43 -43c0 -81 -77 -150 -99 -231l-2 -8h6c50 0 113 30 160 30c24 0 51 -7 51 -31c0 -36 -40 -50 -72 -50
c-46 0 -95 32 -144 32h-6s-6 -16 -10 -34c-3 -11 -4 -22 -4 -33c0 -32 11 -61 26 -87c-36 -29 -72 -74 -83 -119c-4 -17 -7 -33 -7 -33h6c49 0 114 31 161 31c19 0 50 -5 50 -31c0 -36 -40 -49 -70 -49c-48 0 -95 29 -146 29h-5l-2 -8c-4 -17 -6 -36 -6 -56
c0 -30 3 -62 3 -91c0 -20 -2 -38 -6 -53c-9 -37 -32 -71 -75 -71z" />
    <glyph glyph-name="oslash" unicode="&#xf8;" horiz-adv-x="435" 
d="M161 -16c-38 0 -69 15 -89 41c-14 -14 -27 -27 -39 -41h-60l80 81c-5 17 -8 36 -8 58c0 148 119 343 273 343c37 0 67 -14 87 -40l38 39h63c-30 -28 -56 -53 -80 -77c6 -18 9 -38 9 -62c0 -148 -119 -342 -274 -342zM190 21c91 0 163 182 163 295
c-49 -48 -88 -88 -109 -109l-114 -119c8 -43 28 -67 60 -67zM127 141l221 226c-8 40 -28 61 -58 61c-89 0 -160 -174 -163 -287z" />
    <glyph glyph-name="questiondown" unicode="&#xbf;" horiz-adv-x="395" 
d="M304 298h19c12 -19 23 -52 23 -88c0 -157 -251 -175 -251 -315c0 -32 31 -77 92 -77c42 0 69 17 69 46c0 17 -7 28 -7 28c12 5 21 7 38 7c27 0 50 -18 50 -46c0 -60 -61 -81 -113 -81c-87 0 -174 64 -174 146c0 216 258 196 258 358c0 9 -2 17 -4 22zM371 502
c30 0 50 -21 50 -50c0 -34 -28 -70 -67 -70c-30 0 -49 21 -49 50c0 34 28 70 66 70z" />
    <glyph glyph-name="one" unicode="1" horiz-adv-x="395" 
d="M392 700c0 0 -16 -62 -163 -608c-2 -8 -3 -15 -3 -21c0 -24 15 -37 41 -39l44 -4l-7 -28s-62 3 -141 3c-75 0 -140 -3 -140 -3l7 28l30 4c44 6 82 32 100 98l108 405c4 17 7 35 7 48c0 33 -15 47 -80 47l7 28c59 3 151 24 190 42z" />
    <glyph glyph-name="zero" unicode="0" horiz-adv-x="574" 
d="M257 30c144 0 248 293 248 462c0 111 -42 176 -106 176c-144 0 -248 -293 -248 -462c0 -111 42 -176 106 -176zM434 714c101 0 164 -76 164 -209c0 -193 -136 -521 -376 -521c-101 0 -164 76 -164 209c0 193 136 521 376 521z" />
    <glyph glyph-name="two" unicode="2" horiz-adv-x="554" 
d="M373 659c-51 0 -114 -33 -114 -87c0 -17 10 -23 19 -27c-8 -18 -27 -28 -46 -28c-22 0 -44 12 -44 40c0 92 128 157 223 157c108 0 163 -61 163 -138c0 -220 -327 -404 -441 -506h214c53 0 118 37 146 89l21 -5l-87 -154h-416l-2 24l185 155c96 80 284 238 284 369
c0 53 -29 111 -105 111z" />
    <glyph glyph-name="three" unicode="3" horiz-adv-x="511" 
d="M385 714c105 0 150 -49 150 -110c0 -99 -91 -168 -182 -203v-4c82 0 136 -51 136 -125c0 -174 -191 -288 -358 -288c-84 0 -114 30 -114 77c0 34 29 57 66 57c9 0 14 -1 19 -3c-6 -7 -9 -19 -9 -31c0 -31 31 -45 76 -45c116 0 228 97 228 222c0 66 -48 98 -124 98
c-29 0 -54 -6 -54 -6s1 19 1 36c89 19 222 76 222 189c0 41 -24 81 -94 81c-44 0 -115 -33 -115 -87c0 -17 10 -23 19 -27c-8 -18 -28 -28 -47 -28c-22 0 -43 12 -43 40c0 92 124 157 223 157z" />
    <glyph glyph-name="four" unicode="4" horiz-adv-x="529" 
d="M509 190h-133l-28 -109c-1 -6 -2 -11 -2 -15c0 -23 18 -31 37 -33l30 -3l-8 -30h-226l8 30l26 5c32 6 54 29 63 63l24 92h-272l-7 25l218 235c47 50 111 122 111 199c0 21 -8 35 -13 42c10 13 29 23 48 23c29 0 53 -22 53 -54c0 -92 -101 -187 -169 -252l-164 -158h210
l38 149l86 42l-48 -191h133z" />
    <glyph glyph-name="five" unicode="5" horiz-adv-x="523" 
d="M115 -16c-69 0 -113 29 -113 74c0 34 29 60 65 60c9 0 15 -1 20 -3c-6 -7 -10 -19 -10 -30c0 -32 32 -46 77 -46c118 0 224 107 224 232c0 78 -65 119 -160 119c-49 0 -78 -8 -78 -8l116 318h224c45 0 81 15 110 61l21 -4l-66 -129h-274l-61 -167c12 2 26 4 57 4
c139 0 206 -69 206 -164c0 -179 -178 -317 -358 -317z" />
    <glyph glyph-name="six" unicode="6" horiz-adv-x="518" 
d="M188 317c-15 -43 -24 -94 -24 -145c0 -85 31 -150 98 -150c94 0 147 122 147 207c0 68 -34 126 -100 126c-46 0 -82 -29 -121 -38zM546 730l4 -28c-177 -45 -306 -188 -354 -354c28 10 83 62 159 62c80 0 148 -55 148 -153c0 -137 -120 -272 -271 -272
c-92 0 -158 71 -158 192c0 261 210 494 472 553z" />
    <glyph glyph-name="seven" unicode="7" horiz-adv-x="505" 
d="M177 700h403l6 -17l-231 -283c-70 -86 -146 -195 -146 -316c0 -50 14 -79 14 -79c-20 -14 -36 -21 -58 -21c-39 0 -64 31 -64 77c0 101 75 195 144 276l253 296h-217c-79 0 -128 -47 -153 -105l-18 4z" />
    <glyph glyph-name="eight" unicode="8" horiz-adv-x="512" 
d="M255 335c-52 -60 -118 -123 -118 -213c0 -59 39 -97 93 -97c72 0 139 62 139 138c0 98 -114 172 -114 172zM362 672c-76 0 -129 -59 -129 -133c0 -63 51 -105 115 -156c46 58 103 92 103 196c0 52 -33 93 -89 93zM534 585c0 -113 -85 -154 -163 -217c0 0 97 -64 97 -162
c0 -121 -120 -222 -244 -222c-94 0 -169 49 -169 136c0 117 96 161 175 233c-59 53 -91 88 -91 147c0 121 107 214 233 214c90 0 162 -51 162 -129z" />
    <glyph glyph-name="nine" unicode="9" horiz-adv-x="523" 
d="M426 382c15 43 24 94 24 145c0 85 -31 150 -98 150c-94 0 -147 -122 -147 -207c0 -68 34 -126 100 -126c46 0 82 29 121 38zM68 -31l-4 28c177 45 306 188 354 354c-28 -10 -83 -62 -159 -62c-80 0 -148 55 -148 153c0 137 120 272 271 272c92 0 158 -71 158 -192
c0 -261 -210 -494 -472 -553z" />
    <glyph glyph-name="scaron" unicode="&#x161;" horiz-adv-x="335" 
d="M368 409c0 -30 -23 -55 -60 -55c-7 0 -12 1 -16 2c3 6 5 14 5 20c0 23 -12 43 -52 43c-52 0 -75 -39 -75 -70c0 -74 98 -114 98 -214c0 -96 -105 -151 -177 -151c-42 0 -87 11 -87 53c0 35 29 56 60 56c5 0 10 -1 10 -1c-4 -7 -6 -14 -6 -22c0 -21 24 -35 50 -35
c45 0 82 17 82 67c0 82 -84 120 -84 219c0 84 92 145 162 145c57 0 90 -25 90 -57zM274 501l-107 180l49 19l68 -153c19 32 108 153 161 153c21 0 26 -15 26 -26c-94 -65 -197 -173 -197 -173z" />
    <glyph glyph-name="yacute" unicode="&#xfd;" horiz-adv-x="488" 
d="M503 396c0 -181 -353 -639 -583 -639c-40 0 -65 21 -65 53c0 31 22 49 45 55c6 -20 21 -32 53 -32c103 0 200 71 222 117c5 11 6 44 6 86c0 127 -21 308 -24 341c-1 14 -3 23 -12 23c-37 0 -69 -92 -70 -95l-16 2c6 39 47 159 133 159c35 0 40 -30 42 -62
c5 -88 11 -237 11 -401c86 82 176 242 176 339c0 31 -13 60 -44 65c6 36 32 58 62 58c40 0 64 -30 64 -69zM535 669c0 -65 -161 -146 -214 -159c0 0 -4 10 -5 13c74 52 141 114 197 177c9 -2 22 -13 22 -31z" />
    <glyph glyph-name="Yacute" unicode="&#xdd;" horiz-adv-x="695" 
d="M412 300l-46 -201c-2 -10 -4 -20 -4 -29c0 -24 16 -31 46 -36l32 -5l-7 -29s-54 3 -140 3c-85 0 -132 -3 -132 -3l7 29l21 5c55 13 81 40 94 98l41 178l-25 139c-25 137 -44 212 -117 212c-25 0 -39 -8 -57 -24l-5 23c21 27 59 54 104 54c115 0 141 -118 158 -236
l19 -131c8 21 158 367 316 367c40 0 68 -21 68 -60c0 -30 -30 -53 -52 -53c-3 0 -6 0 -9 1c1 4 1 7 1 9c0 14 -9 32 -39 32c-98 0 -251 -277 -274 -343zM676 896c0 -65 -161 -146 -214 -159c0 0 -4 10 -5 13c74 52 141 114 197 177c9 -2 22 -13 22 -31z" />
    <glyph glyph-name="Scaron" unicode="&#x160;" horiz-adv-x="487" 
d="M542 693l-47 -156h-29c2 10 4 28 4 35c0 58 -44 103 -127 103c-71 0 -115 -48 -115 -106c0 -148 214 -166 214 -374c0 -105 -80 -211 -242 -211c-73 0 -113 30 -183 30l30 163h25v-16c0 -98 51 -137 138 -137c92 0 153 54 153 126c0 157 -214 194 -214 380
c0 100 79 184 211 184c73 0 113 -21 182 -21zM397 760l-107 180l49 19l68 -153c19 32 108 153 161 153c21 0 26 -15 26 -26c-94 -65 -197 -173 -197 -173z" />
    <glyph glyph-name="zcaron" unicode="&#x17e;" horiz-adv-x="503" 
d="M246 460c81 0 125 -68 178 -68c45 0 71 62 73 74c12 0 25 -6 25 -20c0 -56 -114 -131 -165 -171c-84 -66 -179 -115 -241 -167l3 -3c5 3 14 7 30 7c83 0 158 -76 211 -76c44 0 76 18 76 55c0 22 -14 42 -44 42c-5 0 -12 -1 -16 -3c0 40 35 59 58 59c32 0 54 -18 54 -52
c0 -63 -74 -157 -168 -157c-108 0 -144 87 -208 87c-22 0 -38 -19 -38 -37s5 -25 12 -35c-7 -6 -14 -11 -30 -11c-20 0 -34 16 -34 38c0 58 66 104 143 156c64 44 168 108 249 180l-3 3c-8 -3 -21 -8 -44 -8c-60 0 -122 49 -176 49c-23 0 -48 -13 -48 -41
c0 -31 25 -42 54 -42c-5 -31 -29 -50 -58 -50c-34 0 -50 26 -50 52c0 81 97 139 157 139zM343 504l-107 180l49 19l68 -153c19 32 108 153 161 153c21 0 26 -15 26 -26c-94 -65 -197 -173 -197 -173z" />
    <glyph glyph-name="Zcaron" unicode="&#x17d;" horiz-adv-x="649" 
d="M692 700l8 -22l-575 -637l194 3c174 3 218 78 287 183l24 -6l-83 -221h-548l-4 14l578 644l-218 -6c-125 -3 -167 -60 -197 -122l-24 3l58 183h28s2 -16 45 -16h427zM449 760l-107 180l49 19l68 -153c19 32 108 153 161 153c21 0 26 -15 26 -26
c-94 -65 -197 -173 -197 -173z" />
    <glyph glyph-name="Eth" unicode="&#xd0;" horiz-adv-x="804" 
d="M140 3c-85 0 -132 -3 -132 -3l7 29l21 5c55 13 81 40 94 98l43 190c-50 -1 -107 -2 -107 -2l12 56s56 -1 107 -2l52 227c2 10 4 20 4 29c0 24 -16 31 -46 36l-32 5l7 29s29 -3 117 -3c48 0 113 3 152 3c229 0 355 -128 355 -284c0 -255 -192 -416 -487 -416
c-57 0 -108 3 -167 3zM341 659l-66 -286c8 0 137 3 173 3l-13 -56c-32 0 -165 2 -171 2l-45 -197c-1 -4 -6 -25 -6 -40c0 -36 26 -51 81 -51c222 0 400 129 400 362c0 160 -90 270 -276 270c-34 0 -57 -3 -77 -7z" />
    <glyph glyph-name="multiply" unicode="&#xd7;" horiz-adv-x="556" 
d="M443 3l-165 174l-165 -174l-44 46l166 172l-166 175l45 45l164 -174l164 174l46 -45l-167 -175l167 -172z" />
    <glyph glyph-name="Lslash" unicode="&#x141;" horiz-adv-x="558" 
d="M255 34c151 0 214 52 260 126l21 -3l-49 -157s-245 2 -347 3c-85 0 -132 -3 -132 -3l7 29l21 5c55 13 81 40 94 98l40 175c-46 -24 -80 -43 -80 -43l-12 45s47 22 104 51l55 241c2 10 4 20 4 29c0 24 -16 31 -46 36l-32 5l7 29s52 -3 140 -3c82 0 132 3 132 3l-7 -29
l-21 -5c-55 -13 -81 -40 -94 -98l-35 -150c79 41 180 96 180 96l12 -45c-67 -31 -136 -66 -203 -100l-61 -270c-2 -10 -4 -20 -4 -29c0 -24 17 -36 46 -36z" />
    <glyph glyph-name="lslash" unicode="&#x142;" horiz-adv-x="306" 
d="M372 750l-113 -327c82 44 110 66 110 66l12 -46c-68 -33 -67 -34 -141 -73l-70 -205c-16 -46 -24 -71 -24 -90c0 -14 6 -21 20 -21c41 0 84 61 106 93l15 -11c-31 -58 -93 -152 -167 -152c-30 0 -58 16 -58 66c0 20 6 47 17 81l63 186c-52 -27 -57 -32 -57 -32l-11 45
s19 9 87 43l84 248c2 6 7 22 7 33c0 22 -22 28 -64 28v22s97 4 184 46z" />
    <glyph glyph-name="thorn" unicode="&#xfe;" horiz-adv-x="512" 
d="M353 401c-36 0 -75 -20 -75 -20l-105 -311s6 -49 64 -49c102 0 195 174 195 284c0 43 -13 96 -79 96zM205 395l77 226c2 6 7 22 7 33c0 22 -22 28 -64 28v22s97 4 184 46l-116 -328s34 17 89 17c85 0 131 -53 131 -124c0 -137 -138 -331 -296 -331c-35 0 -62 12 -71 24
l-64 -183c-8 -22 -15 -49 -15 -68c0 -24 12 -36 50 -42l48 -8v-25h-293v25l23 7c57 17 89 52 114 122l183 518c-58 -26 -114 -65 -114 -65l-9 24s56 43 136 82z" />
    <glyph glyph-name="Thorn" unicode="&#xde;" horiz-adv-x="566" 
d="M255 34l32 -5l-7 -29s-54 3 -140 3c-85 0 -132 -3 -132 -3l7 29l21 5c55 13 81 40 94 98l107 469c2 10 4 20 4 29c0 24 -16 31 -46 36l-32 5l7 29s52 -3 140 -3c82 0 132 3 132 3l-7 -29l-21 -5c-55 -13 -81 -40 -94 -98l-10 -47c23 8 51 29 99 29
c100 0 183 -74 183 -186c0 -127 -111 -215 -223 -215c-82 0 -103 28 -138 29l-18 -79c-2 -10 -4 -20 -4 -29c0 -24 16 -31 46 -36zM376 507c-32 0 -56 -13 -75 -16l-63 -283c27 0 59 -16 101 -16c92 0 157 82 157 172c0 87 -45 143 -120 143z" />
    <glyph glyph-name="onehalf" unicode="&#xbd;" horiz-adv-x="880" 
d="M764 714h63s-193 -232 -312 -380c-111 -136 -275 -350 -275 -350h-63s191 230 311 379c110 136 276 351 276 351zM358 284l-6 -20s-42 3 -98 3c-61 0 -94 -3 -94 -3l6 20l20 5c39 9 56 36 66 76l54 213c1 5 2 11 2 15c0 14 -8 21 -24 21c-9 0 -29 -4 -56 -8v20
c51 10 109 35 155 66h19l-90 -351c-3 -12 -4 -22 -4 -29c0 -17 8 -23 24 -25zM584 62h120c42 0 86 23 115 74l12 -5s-35 -69 -65 -131h-267l1 22l157 143c57 52 102 107 102 169c0 33 -19 52 -49 52c-37 0 -73 -29 -73 -65c0 -13 9 -20 18 -22c-5 -18 -23 -28 -39 -28
s-31 11 -31 35c0 80 91 132 157 132c62 0 98 -33 98 -85c0 -103 -134 -201 -217 -262z" />
    <glyph glyph-name="onequarter" unicode="&#xbc;" horiz-adv-x="865" 
d="M763 714h62s-192 -232 -312 -380c-110 -136 -275 -350 -275 -350h-62s191 230 311 378c110 137 276 352 276 352zM813 112h-80l-11 -46c-2 -7 -3 -14 -3 -19c0 -16 9 -22 25 -24l27 -3l-6 -20s-55 3 -92 3c-38 0 -102 -3 -102 -3l6 20l21 5c31 7 54 33 64 69l5 18h-186
l-4 17l182 210c31 36 39 61 39 77c0 15 -7 22 -10 24c6 7 20 17 37 17c19 0 31 -13 31 -33c0 -54 -61 -101 -102 -142l-124 -125h148l33 128l74 30l-40 -158h80zM358 284l-6 -20s-42 3 -98 3c-61 0 -94 -3 -94 -3l6 20l20 5c39 9 56 36 66 76l54 213c1 5 2 11 2 15
c0 14 -8 21 -24 21c-9 0 -29 -4 -56 -8v20c51 10 109 35 155 66h19l-90 -351c-3 -12 -4 -22 -4 -29c0 -17 8 -23 24 -25z" />
    <glyph glyph-name="threequarters" unicode="&#xbe;" horiz-adv-x="895" 
d="M792 714h63s-193 -232 -313 -380c-110 -136 -274 -350 -274 -350h-63s191 230 311 379c110 136 276 351 276 351zM842 112h-80l-11 -46c-2 -7 -3 -14 -3 -19c0 -16 9 -22 25 -24l27 -3l-6 -20s-55 3 -92 3c-38 0 -102 -3 -102 -3l6 20l21 5c31 7 54 33 64 69l5 18h-186
l-4 17l182 210c31 36 39 61 39 77c0 15 -7 22 -10 24c6 7 20 17 37 17c19 0 31 -13 31 -33c0 -54 -61 -101 -102 -142l-124 -125h148l33 128l74 30l-40 -158h80zM419 613c0 25 -16 45 -53 45c-51 0 -76 -34 -76 -57c0 -10 5 -18 15 -20c-9 -14 -24 -22 -39 -22
c-16 0 -30 9 -30 30c0 78 102 111 160 111c57 0 93 -32 93 -75c0 -69 -69 -115 -127 -128v-5s5 1 13 1c49 0 81 -27 81 -71c0 -115 -140 -168 -232 -168c-22 0 -44 2 -64 7l7 24c10 -2 20 -3 32 -3c84 0 179 50 179 133c0 39 -30 54 -74 54h-41v22c64 7 156 47 156 122z" />
    <glyph glyph-name="threesuperior" unicode="&#xb3;" horiz-adv-x="369" 
d="M369 811c0 25 -16 45 -53 45c-51 0 -76 -34 -76 -57c0 -10 5 -18 15 -20c-9 -14 -24 -22 -39 -22c-16 0 -30 9 -30 30c0 78 102 111 160 111c57 0 93 -32 93 -75c0 -69 -69 -115 -127 -128v-5s5 1 13 1c49 0 81 -27 81 -71c0 -115 -140 -168 -232 -168c-22 0 -44 2 -64 7
l7 24c10 -2 20 -3 32 -3c84 0 179 50 179 133c0 39 -30 54 -74 54h-41v22c64 7 156 47 156 122z" />
    <glyph glyph-name="twosuperior" unicode="&#xb2;" horiz-adv-x="381" 
d="M195 522h120c42 0 86 23 115 74l12 -5s-35 -69 -65 -131h-267l1 22l157 143c57 52 102 107 102 169c0 33 -19 52 -49 52c-37 0 -73 -29 -73 -65c0 -13 9 -20 18 -22c-5 -18 -23 -28 -39 -28s-31 11 -31 35c0 80 91 132 157 132c62 0 98 -33 98 -85
c0 -103 -134 -201 -217 -262z" />
    <glyph glyph-name="onesuperior" unicode="&#xb9;" horiz-adv-x="282" 
d="M308 480l-6 -20s-42 3 -98 3c-61 0 -94 -3 -94 -3l6 20l20 5c39 9 56 36 66 76l54 213c1 5 2 11 2 15c0 14 -8 21 -24 21c-9 0 -29 -4 -56 -8v20c51 10 109 35 155 66h19l-90 -351c-3 -12 -4 -22 -4 -29c0 -17 8 -23 24 -25z" />
    <glyph glyph-name="florin" unicode="&#x192;" horiz-adv-x="527" 
d="M573 451c-15 0 -25 4 -30 8c13 12 25 29 25 47c0 14 -9 25 -32 25c-63 0 -117 -49 -157 -142l-37 -88h116l-7 -30h-122l-43 -110c-63 -161 -201 -326 -319 -326c-40 0 -67 11 -67 41c0 43 47 70 81 70c14 0 18 -1 26 -4c-12 -10 -20 -26 -20 -40c0 -11 6 -20 25 -20
c73 0 117 90 169 218l71 174h-75l6 15s38 4 80 18l28 66c54 130 169 198 262 198c61 0 96 -20 96 -54c0 -41 -42 -66 -76 -66z" />
    <glyph glyph-name="c_t" horiz-adv-x="731" 
d="M384 464c27 -6 51 -21 51 -53c0 -38 -32 -64 -65 -64c-5 0 -11 1 -14 2c4 11 6 20 6 28c0 25 -16 41 -51 41c-116 0 -185 -182 -185 -302c0 -49 24 -75 64 -75c63 0 118 50 151 96l15 -11c-27 -55 -87 -142 -186 -142c-86 0 -126 41 -126 121c0 152 121 335 282 358
c21 107 109 225 240 225c97 0 130 -57 130 -98c0 -21 -5 -41 -9 -53l-28 -84h127l-18 -44h-124l-67 -182c-29 -78 -44 -125 -44 -148c0 -14 8 -19 17 -19c35 0 89 65 121 112l17 -10c-30 -58 -112 -178 -185 -178c-34 0 -52 22 -52 62c0 22 4 50 16 84l98 281l-54 2l3 29
l70 14c15 38 34 82 34 107c0 41 -20 74 -93 74c-49 0 -93 -24 -123 -58c-15 -27 -20 -58 -20 -84c0 -15 1 -24 2 -31z" />
    <glyph glyph-name="s_t" unicode="&#xfb06;" horiz-adv-x="664" 
d="M317 461c33 -9 51 -29 51 -52c0 -30 -23 -55 -60 -55c-7 0 -12 1 -16 2c3 6 5 14 5 20c0 23 -12 43 -52 43c-52 0 -75 -39 -75 -70c0 -74 98 -114 98 -214c0 -96 -105 -151 -177 -151c-42 0 -87 11 -87 53c0 35 29 56 60 56c5 0 10 -1 10 -1c-4 -7 -6 -14 -6 -22
c0 -21 24 -35 50 -35c45 0 82 17 82 67c0 82 -84 120 -84 219c0 77 77 134 143 143c21 107 109 224 240 224c97 0 130 -57 130 -98c0 -21 -5 -41 -9 -53l-28 -84h127l-18 -44h-124l-67 -182c-29 -78 -44 -125 -44 -148c0 -14 8 -19 17 -19c35 0 89 65 121 112l17 -10
c-30 -58 -112 -178 -185 -178c-34 0 -52 22 -52 62c0 22 4 50 16 84l98 281l-54 2l3 29l70 14c15 38 34 82 34 107c0 41 -20 74 -93 74c-49 0 -93 -24 -123 -58c-15 -27 -20 -58 -20 -84c0 -15 1 -27 2 -34z" />
    <glyph glyph-name="eth" unicode="&#xf0;" horiz-adv-x="445" 
d="M161 -16c-70 0 -116 51 -116 139c0 148 119 343 273 343c28 0 52 -8 71 -23c1 8 2 19 2 29c0 32 -6 60 -16 87l-109 -46l-5 37l98 42c-23 53 -94 89 -149 89l27 30c64 0 143 -37 177 -96l119 50l5 -37l-109 -46c17 -41 25 -90 25 -143c0 -63 -11 -131 -30 -198
c-35 -129 -137 -257 -263 -257zM190 21c91 0 163 182 163 295c0 73 -21 112 -63 112c-91 0 -163 -181 -163 -294c0 -73 21 -113 63 -113z" />
    <glyph glyph-name="A" unicode="A" horiz-adv-x="673" 
d="M441 303l-26 294l-163 -294h189zM428 705l67 11l57 -623c3 -37 19 -53 57 -59l32 -5l-7 -29s-54 3 -125 3c-72 0 -155 -3 -155 -3l7 29l21 5c50 10 78 37 74 90l-10 138h-213l-72 -137c-14 -26 -25 -43 -25 -64c0 -16 14 -23 41 -27l32 -5l-7 -29s-72 3 -119 3
c-45 0 -120 -3 -120 -3l7 29l21 5c64 15 89 54 119 107z" />
    <glyph glyph-name="approxequal" unicode="&#x2248;" horiz-adv-x="555" 
d="M288 305c83 0 107 -66 179 -66c39 0 80 23 107 61l18 -17c-27 -58 -82 -106 -162 -106c-77 0 -102 63 -172 63c-39 0 -81 -20 -108 -58l-19 17c28 56 85 106 157 106zM255 169c83 0 107 -66 179 -66c39 0 80 23 107 61l18 -17c-27 -58 -82 -106 -162 -106
c-77 0 -102 63 -172 63c-39 0 -81 -20 -108 -58l-19 17c28 56 85 106 157 106z" />
    <glyph glyph-name="uni2215" unicode="&#x2215;" horiz-adv-x="494" 
d="M543 750h62s-176 -234 -291 -383c-105 -136 -284 -383 -284 -383h-62s176 234 290 383c105 136 285 383 285 383z" />
    <glyph glyph-name="one.onum" horiz-adv-x="368" 
d="M387 450l-38 -19c-46 -22 -68 -52 -87 -127l-52 -210c-2 -8 -3 -15 -3 -22c0 -24 14 -37 39 -39l42 -4l-7 -29s-56 3 -131 3c-72 0 -132 -3 -132 -3l6 29l28 4c43 6 79 32 95 100l54 217c1 4 2 11 2 16c0 20 -11 32 -33 35l-48 7l7 29s71 0 136 10c74 11 118 32 118 32z
" />
    <glyph glyph-name="two.onum" horiz-adv-x="468" 
d="M156 86l-31 -19h184c53 0 99 32 132 95l17 -5l-87 -157h-355l-1 24l211 159c58 42 125 102 125 175c0 37 -25 67 -71 67c-47 0 -103 -36 -103 -84c0 -17 10 -23 19 -27c-8 -18 -29 -28 -48 -28c-22 0 -42 12 -42 40c0 98 135 155 212 155c75 0 121 -37 121 -96
c0 -132 -176 -236 -283 -299z" />
    <glyph glyph-name="three.onum" horiz-adv-x="419" 
d="M314 366c0 32 -20 59 -73 59c-48 0 -101 -33 -101 -82c0 -15 7 -26 19 -29c-12 -19 -30 -28 -47 -28c-23 0 -43 14 -43 43c0 97 146 152 219 152c74 0 114 -39 114 -93c0 -101 -112 -192 -195 -219v-4c95 0 139 -38 139 -99c0 -187 -225 -270 -404 -270l9 33
c138 5 308 74 308 229c0 48 -30 73 -93 73c-36 0 -71 -4 -71 -4l1 31c93 24 218 99 218 208z" />
    <glyph glyph-name="four.onum" horiz-adv-x="517" 
d="M480 33h-125l-36 -147c-1 -4 -2 -10 -2 -15c0 -22 17 -29 35 -31l28 -3l-8 -29h-214l8 29l25 5c31 6 51 27 59 60l33 131h-257l-6 23l218 228c41 42 86 94 86 149c0 17 -6 32 -12 40c9 10 25 23 45 23c23 0 45 -20 45 -49c0 -74 -80 -148 -140 -204l-164 -153h199l34 134
l82 41l-44 -175h126z" />
    <glyph glyph-name="five.onum" horiz-adv-x="457" 
d="M500 550l17 -4l-76 -151h-240l-47 -113c109 0 183 -66 183 -167c0 -169 -164 -320 -322 -320c-78 0 -105 36 -105 67c0 34 25 68 57 68c14 0 30 -8 34 -19c-11 -7 -17 -22 -17 -34c0 -21 13 -41 53 -41c117 0 211 146 211 249c0 111 -111 123 -149 123
c-9 0 -14 -1 -14 -1l111 259h184c45 0 83 26 120 84z" />
    <glyph glyph-name="six.onum" horiz-adv-x="473" 
d="M166 267c-17 -46 -30 -94 -30 -141c0 -66 29 -104 80 -104c86 0 141 121 141 192c0 55 -31 88 -79 88c-46 0 -72 -26 -112 -35zM541 665l2 -29c-196 -65 -323 -222 -368 -341c24 3 91 63 158 63c64 0 117 -41 117 -118c0 -136 -128 -255 -255 -255
c-97 0 -140 69 -140 156c0 288 309 487 486 524z" />
    <glyph glyph-name="seven.onum" horiz-adv-x="485" 
d="M142 463h389l4 -17l-253 -282c-68 -76 -151 -188 -151 -287c0 -37 15 -58 15 -58c-21 -14 -40 -21 -62 -21c-34 0 -59 23 -59 64c0 101 123 218 180 279l239 257h-216c-70 -4 -123 -60 -148 -110l-17 4z" />
    <glyph glyph-name="eight.onum" horiz-adv-x="456" 
d="M115 101c0 -50 32 -82 79 -82c72 0 137 57 137 135c0 86 -95 151 -95 151c-64 -73 -121 -124 -121 -204zM358 617c-71 0 -130 -62 -130 -129c0 -56 43 -94 94 -139c41 54 109 95 109 194c0 45 -31 74 -73 74zM343 335c0 0 80 -55 80 -140c0 -124 -129 -213 -237 -213
c-81 0 -146 41 -146 116c0 114 107 146 175 223c-48 46 -74 78 -74 127c0 124 119 208 229 208c78 0 136 -38 136 -105c0 -134 -112 -156 -163 -216z" />
    <glyph glyph-name="nine.onum" horiz-adv-x="473" 
d="M339 199c17 46 30 94 30 141c0 66 -29 104 -80 104c-86 0 -141 -121 -141 -192c0 -55 31 -88 79 -88c46 0 72 26 112 35zM-36 -199l-2 29c196 65 323 222 368 341c-24 -3 -91 -63 -158 -63c-64 0 -117 41 -117 118c0 136 128 255 255 255c97 0 140 -69 140 -156
c0 -288 -309 -487 -486 -524z" />
    <glyph glyph-name="zero.onum" horiz-adv-x="513" 
d="M321 442c-124 0 -181 -184 -181 -280c0 -90 44 -139 102 -139c124 0 181 184 181 280c0 90 -44 139 -102 139zM354 481c93 0 159 -61 159 -166c0 -167 -140 -331 -304 -331c-93 0 -159 61 -159 166c0 167 140 331 304 331z" />
    <glyph glyph-name="infinity" unicode="&#x221e;" horiz-adv-x="763" 
d="M580 76c-73 0 -123 54 -169 105c-66 -51 -138 -105 -211 -105c-71 0 -121 47 -121 118c0 100 85 184 180 184c74 0 123 -54 169 -105c56 45 133 105 211 105c71 0 122 -47 122 -119c0 -99 -87 -183 -181 -183zM378 227c-43 46 -76 92 -132 92c-62 0 -102 -60 -102 -113
c0 -35 18 -71 67 -71c51 0 100 38 167 92zM461 226c49 -50 81 -91 132 -91c60 0 103 59 103 111c0 36 -18 73 -68 73s-101 -41 -167 -93z" />
    <glyph glyph-name="partialdiff" unicode="&#x2202;" horiz-adv-x="508" 
d="M311 409c81 0 105 -51 135 -68c19 57 35 121 35 186c0 93 -43 168 -128 168c-49 0 -85 -12 -118 -53c-11 0 -26 10 -26 28c0 55 84 72 128 72c149 0 209 -119 209 -252c0 -159 -112 -506 -322 -506c-92 0 -149 54 -149 152c0 126 98 273 236 273zM321 372
c-99 0 -166 -155 -166 -248c0 -51 17 -103 63 -103c114 0 178 186 214 286c-38 25 -62 65 -111 65z" />
    <glyph glyph-name="pi" unicode="&#x3c0;" horiz-adv-x="571" 
d="M429 377h-131c-71 -216 -93 -393 -195 -393c-18 0 -37 15 -37 40c91 48 148 220 189 353c-65 0 -112 -18 -145 -88l-14 5c18 98 74 147 171 147h241c52 0 67 4 86 15l8 -5c-21 -56 -59 -73 -137 -74c-35 -69 -71 -189 -71 -272c0 -35 12 -52 40 -52c32 0 57 22 91 62
l14 -12c-45 -77 -99 -119 -156 -119c-51 0 -64 37 -64 77c0 112 62 215 110 316z" />
    <glyph glyph-name="uni03A9" unicode="&#x3a9;" horiz-adv-x="833" 
d="M534 675c-160 0 -275 -145 -275 -289c0 -122 95 -230 95 -349c0 -12 -1 -24 -3 -37h-270l10 159h25c1 -48 15 -85 84 -85h101c-6 68 -141 167 -141 310c0 215 198 330 382 330c159 0 278 -75 278 -228c0 -185 -226 -333 -283 -412h109c70 0 98 37 116 85h26l-48 -159
h-279c52 191 259 293 259 492c0 112 -63 183 -186 183z" />
    <glyph glyph-name="radical" unicode="&#x221a;" horiz-adv-x="589" 
d="M268 0h-9l-107 450l-81 -27l-3 20l175 57l81 -366l325 566h26z" />
    <glyph glyph-name="lozenge" unicode="&#x25ca;" horiz-adv-x="556" 
d="M479 363l-102 320l-218 -320l99 -320zM95 363l267 393h58l123 -393l-269 -393h-58z" />
    <glyph glyph-name="Delta" unicode="&#x2206;" horiz-adv-x="679" 
d="M610 0h-552l-10 29l401 681l49 6l133 -687zM117 50h420l-96 563z" />
    <glyph glyph-name="product" unicode="&#x220f;" horiz-adv-x="810" 
d="M545 19l143 624c2 7 3 14 3 19c0 26 -21 32 -50 32h-239c-35 0 -61 -8 -71 -51l-149 -657c-2 -10 -4 -18 -4 -25c0 -26 16 -36 47 -40l37 -5l-8 -29s-67 3 -145 3c-70 0 -137 -3 -137 -3l8 29l27 5c44 8 72 40 85 98l143 624c2 10 4 19 4 26c0 26 -16 34 -47 39l-32 5
l8 29s139 -3 370 -3c196 0 366 3 366 3l-8 -29l-26 -5c-44 -8 -79 -40 -92 -98l-143 -624c-2 -10 -4 -18 -4 -25c0 -26 16 -36 47 -40l37 -5l-8 -29s-67 3 -145 3c-70 0 -138 -3 -138 -3l8 29l27 5c45 8 73 40 86 98z" />
    <glyph glyph-name="integral" unicode="&#x222b;" horiz-adv-x="333" 
d="M130 248l78 288c57 213 109 279 189 279c44 0 62 -24 62 -46c0 -34 -36 -63 -70 -63c-7 0 -12 1 -15 2c4 5 9 14 9 22s-6 14 -22 14c-19 0 -49 -17 -60 -58c-20 -74 -19 -148 -51 -266l-78 -288c-57 -213 -109 -279 -188 -279c-44 0 -62 28 -62 50c0 34 30 59 64 59
c7 0 18 -1 21 -2c-4 -5 -9 -14 -9 -22s6 -14 21 -14c19 0 49 17 60 58c20 74 20 148 51 266z" />
    <glyph glyph-name="summation" unicode="&#x2211;" horiz-adv-x="654" 
d="M31 -80h284c113 0 178 54 215 133l23 -3l-44 -167h-556l-3 22l411 384l-196 429l15 22h557l-44 -167l-25 -3c0 81 -32 133 -145 133h-234l174 -376z" />
    <glyph glyph-name="brokenbar" unicode="&#xa6;" horiz-adv-x="220" 
d="M185 336h-55c34 156 91 428 91 428h62s-63 -272 -98 -428zM91 160h54c-33 -157 -90 -428 -90 -428h-59s60 271 95 428z" />
    <glyph glyph-name="ornament.A" horiz-adv-x="837" 
d="M508 542c-35 -77 -58 -168 -58 -258c0 -80 19 -153 57 -216l6 2c-13 24 -38 108 -38 193c0 101 33 202 156 202c61 0 116 -38 116 -103c0 -139 -189 -129 -189 -246c0 -39 27 -93 76 -93c46 0 65 24 65 50c0 25 -12 48 -37 57c13 28 37 39 59 39c37 0 59 -29 59 -60
c0 -95 -112 -125 -216 -125c-194 0 -380 147 -380 361c0 86 54 165 147 165c56 0 91 -27 108 -44c7 25 19 57 34 89c-70 28 -133 50 -215 50c-98 0 -151 -52 -151 -129c0 -27 8 -58 25 -90c0 0 -12 -28 -49 -28c-34 0 -56 31 -56 74c0 128 102 210 231 210
c84 0 168 -30 230 -56c35 65 96 128 187 128c65 0 136 -35 136 -104c0 -79 -87 -103 -155 -103c-52 0 -101 17 -148 35zM668 675c-66 0 -112 -46 -145 -102c49 -19 88 -28 133 -28c41 0 98 15 98 65c0 39 -36 65 -86 65z" />
    <glyph glyph-name="ornament.B" horiz-adv-x="801" 
d="M689 349c36 -17 73 -67 73 -116c0 -67 -44 -118 -102 -149c-25 -54 -78 -100 -146 -100c-46 0 -86 23 -114 59c-27 -36 -68 -59 -113 -59c-68 0 -121 46 -146 100c-58 31 -102 82 -102 149c0 49 37 99 73 116c-36 17 -73 67 -73 116c0 67 44 118 102 149
c25 54 78 100 146 100c45 0 86 -23 113 -59c28 36 68 59 114 59c68 0 121 -46 146 -100c58 -31 102 -82 102 -149c0 -49 -37 -99 -73 -116zM287 660c53 0 96 -55 96 -108c0 -37 -18 -72 -18 -114c0 -25 4 -45 9 -61c-16 5 -38 10 -63 10c-38 0 -72 -17 -112 -17
c-49 0 -106 40 -106 95c0 61 45 94 86 109c20 48 51 86 108 86zM403 389h-4c-4 14 -8 30 -8 49c0 20 5 40 9 55c5 -15 10 -35 10 -55c0 -19 -3 -35 -7 -49zM359 352v-5c-12 -3 -29 -7 -48 -7c-21 0 -40 5 -56 10c15 4 35 9 56 9c19 0 36 -4 48 -7zM514 660
c57 0 88 -38 108 -86c41 -15 86 -48 86 -109c0 -55 -57 -95 -106 -95c-41 0 -75 17 -112 17c-25 0 -48 -5 -64 -10c6 16 10 36 10 61c0 42 -18 77 -18 114c0 53 42 108 96 108zM287 38c-57 0 -88 38 -108 86c-41 15 -86 48 -86 109c0 55 57 95 106 95c40 0 74 -17 112 -17
c25 0 47 5 63 10c-5 -16 -9 -36 -9 -61c0 -42 18 -77 18 -114c0 -53 -43 -108 -96 -108zM399 309h4c4 -14 7 -30 7 -49c0 -20 -5 -40 -10 -55c-4 15 -9 35 -9 55c0 19 4 35 8 49zM643 349c51 20 92 63 92 116c0 65 -47 106 -94 128c-28 65 -76 94 -127 94
c-52 0 -97 -39 -114 -85c-16 46 -61 85 -113 85c-51 0 -99 -29 -127 -94c-48 -22 -94 -63 -94 -128c0 -53 41 -96 92 -116c-51 -20 -92 -63 -92 -116c0 -65 46 -106 94 -128c28 -65 76 -94 127 -94c52 0 97 39 113 85c17 -46 62 -85 114 -85c51 0 99 29 127 94
c47 22 94 63 94 128c0 53 -41 96 -92 116zM514 38c-54 0 -96 55 -96 108c0 37 18 72 18 114c0 25 -4 45 -10 61c16 -5 39 -10 64 -10c37 0 71 17 112 17c49 0 106 -40 106 -95c0 -61 -45 -94 -86 -109c-20 -48 -51 -86 -108 -86zM442 347v5c12 3 29 7 48 7c20 0 40 -5 55 -9
c-15 -5 -35 -10 -55 -10c-19 0 -36 4 -48 7zM384 351c0 8 8 16 16 16s16 -8 16 -16s-8 -16 -16 -16s-16 8 -16 16z" />
    <glyph glyph-name="R.salt" horiz-adv-x="664" 
d="M394 666c-26 0 -43 -4 -53 -7l-73 -319c22 14 43 20 70 20c37 0 66 -16 66 -16c68 26 125 89 125 190c0 73 -56 132 -135 132zM440 103l-47 132c-21 59 -52 85 -93 85c-23 0 -38 -7 -38 -7l-49 -214c-2 -10 -4 -20 -4 -29c0 -24 16 -31 46 -36l32 -5l-7 -29s-54 3 -140 3
c-85 0 -132 -3 -132 -3l7 29l21 5c55 13 81 40 94 98l107 469c2 10 4 20 4 29c0 24 -16 31 -46 36l-32 5l7 29s52 -3 140 -3c48 0 67 3 119 3c113 0 201 -65 201 -166c0 -144 -124 -194 -196 -208c24 -15 43 -52 56 -84l43 -104c79 -195 204 -353 470 -353
c119 0 226 31 239 84c0 0 4 2 10 2c8 0 19 -5 19 -18c0 -75 -203 -103 -287 -103c-285 0 -459 115 -544 353z" />
    <glyph glyph-name="K.salt" horiz-adv-x="712" 
d="M418 361l126 -223c103 -183 204 -353 470 -353c119 0 226 31 239 84c0 0 4 2 10 2c8 0 19 -5 19 -18c0 -75 -203 -103 -287 -103c-285 0 -436 124 -544 353l-73 153c-17 37 -43 58 -83 58c-15 0 -28 -4 -35 -8l-47 -207c-2 -10 -4 -20 -4 -29c0 -24 16 -31 46 -36l32 -5
l-7 -29s-54 3 -140 3c-85 0 -132 -3 -132 -3l7 29l21 5c55 13 81 40 94 98l107 469c2 10 4 20 4 29c0 24 -16 31 -46 36l-32 5l7 29s52 -3 140 -3c82 0 132 3 132 3l-7 -29l-21 -5c-55 -13 -81 -40 -94 -98l-49 -213h79l250 265c8 8 11 16 11 23c0 14 -14 21 -27 23l-29 5
l7 29s80 -3 137 -3c49 0 125 3 125 3l-7 -29l-34 -5c-55 -8 -99 -32 -139 -73z" />
    <glyph glyph-name="ornament.C" horiz-adv-x="801" 
d="M408 512h-15l-6 -119h-19c-8 111 -33 191 -91 240c0 14 13 29 32 29c20 0 41 -13 54 -30c0 36 16 71 37 82c22 -11 38 -46 38 -82c13 17 34 30 53 30c20 0 33 -15 33 -29c-58 -49 -83 -129 -91 -240h-19zM393 186h15l6 119h19c8 -111 33 -191 91 -240
c0 -14 -13 -29 -33 -29c-19 0 -40 13 -53 30c0 -36 -16 -71 -38 -82c-21 11 -37 46 -37 82c-13 -17 -34 -30 -54 -30c-19 0 -32 15 -32 29c58 49 83 129 91 240h19zM237 356v-15l119 -6v-19c-111 -8 -191 -33 -240 -91c-14 0 -29 13 -29 33c0 19 13 40 30 53
c-36 0 -71 16 -82 38c11 21 46 36 82 36c-17 14 -30 35 -30 55c0 19 15 32 29 32c49 -58 129 -83 240 -91v-19zM563 341v15l-119 6v19c111 8 191 33 240 91c14 0 29 -13 29 -32c0 -20 -13 -41 -30 -55c36 0 71 -15 82 -36c-11 -22 -46 -38 -82 -38c17 -13 30 -34 30 -53
c0 -20 -15 -33 -29 -33c-49 58 -129 83 -240 91v19zM387 349c0 6 7 13 13 13c7 0 14 -7 14 -13c0 -7 -7 -14 -14 -14c-6 0 -13 7 -13 14z" />
    <glyph glyph-name="hyphen.caps" horiz-adv-x="362" 
d="M342 358c-92 -5 -190 -24 -285 -55l-7 14c51 34 162 92 250 92c28 0 48 -11 48 -32c0 -9 -3 -15 -6 -19z" />
    <glyph glyph-name="endash.caps" horiz-adv-x="612" 
d="M575 334h-504l15 54h504z" />
    <glyph glyph-name="emdash.caps" horiz-adv-x="1108" 
d="M1076 334h-1000l15 54h1000z" />
    <glyph glyph-name="guillemotleft.caps" horiz-adv-x="439" 
d="M95 349l211 216l11 -45l-174 -169c34 -33 91 -101 91 -163c0 -28 -15 -61 -41 -61c-39 132 -98 222 -98 222zM262 349l192 196l10 -41l-157 -153c31 -29 81 -89 81 -144c0 -25 -11 -59 -38 -59c-34 121 -88 201 -88 201z" />
    <glyph glyph-name="guillemotright.caps" horiz-adv-x="439" 
d="M409 343l-211 -216l-11 45l174 169c-34 33 -91 108 -91 170c0 28 17 54 41 54c41 -118 98 -222 98 -222zM242 343l-192 -196l-10 41l157 153c-31 29 -81 96 -81 151c0 25 13 52 38 52c32 -94 88 -201 88 -201z" />
    <glyph glyph-name="guilsinglleft.caps" horiz-adv-x="292" 
d="M95 349l211 216l11 -45l-174 -169c34 -33 91 -101 91 -163c0 -28 -15 -61 -41 -61c-39 132 -98 222 -98 222z" />
    <glyph glyph-name="guilsinglright.caps" horiz-adv-x="292" 
d="M277 343l-211 -216l-11 45l174 169c-34 33 -91 108 -91 170c0 28 17 54 41 54c41 -118 98 -222 98 -222z" />
    <glyph glyph-name="parenleft.caps" horiz-adv-x="342" 
d="M447 802c-183 -151 -316 -376 -316 -623c0 -99 26 -195 85 -281l-20 -16c-73 71 -136 189 -136 335c0 241 171 468 375 601z" />
    <glyph glyph-name="parenright.caps" horiz-adv-x="341" 
d="M241 523c0 100 -26 192 -86 279l20 16c67 -59 136 -188 136 -342c0 -248 -183 -466 -374 -594l-12 16c189 163 316 387 316 625z" />
    <glyph glyph-name="bracketleft.caps" horiz-adv-x="422" 
d="M506 818c7 -6 12 -16 12 -26c0 -44 -60 -57 -101 -57c-32 0 -77 6 -77 6l-198 -782s26 6 72 6c48 0 83 -19 83 -47c0 -20 -15 -33 -30 -36c-31 34 -109 51 -201 51l211 833c93 0 180 18 229 52z" />
    <glyph glyph-name="bracketright.caps" horiz-adv-x="423" 
d="M192 818c31 -34 109 -52 202 -52l-212 -833c-93 0 -179 -17 -228 -51c-6 3 -13 14 -13 25c0 45 57 58 92 58c33 0 86 -6 86 -6l198 782s-46 -6 -78 -6c-33 0 -77 11 -77 44c0 18 11 32 30 39z" />
    <glyph glyph-name="braceleft.caps" horiz-adv-x="377" 
d="M188 352c31 -6 62 -34 62 -84c0 -100 -79 -212 -79 -297c0 -33 17 -49 40 -49c21 0 37 10 44 22c9 -2 15 -9 15 -19c0 -31 -45 -39 -66 -39c-47 0 -96 28 -96 99c0 109 92 191 92 298c0 34 -16 56 -60 56h-20l7 26h20c59 0 89 41 104 97c19 75 3 118 26 211
c29 115 99 145 164 145c33 0 49 -17 49 -31c0 -17 -14 -24 -27 -27c-2 12 -13 22 -33 22c-30 0 -56 -27 -76 -79c-29 -78 -19 -119 -47 -229c-19 -75 -77 -115 -119 -122z" />
    <glyph glyph-name="bar.caps" horiz-adv-x="221" 
d="M127 360c21 97 110 516 110 516h61s-96 -419 -117 -516c-21 -98 -110 -516 -110 -516h-60s95 418 116 516z" />
    <glyph glyph-name="braceright.caps" horiz-adv-x="377" 
d="M256 352c-33 6 -63 33 -63 84c0 99 79 192 79 297c0 33 -18 49 -40 49s-36 -9 -45 -22c-8 3 -15 9 -15 19c0 28 41 39 66 39c47 0 97 -27 97 -97c0 -107 -93 -194 -93 -300c0 -34 17 -56 60 -56h20l-7 -26h-20c-58 0 -89 -41 -103 -97c-21 -82 -7 -132 -27 -211
c-27 -106 -108 -145 -162 -145c-36 0 -50 14 -50 28c0 15 11 27 27 30c3 -13 11 -22 33 -22c28 0 57 26 75 79c27 80 20 130 48 229c21 75 72 116 120 122z" />
    <glyph glyph-name="slash.caps" horiz-adv-x="378" 
d="M202 361c76 146 237 475 237 475h62s-176 -329 -252 -475s-236 -475 -236 -475h-63s176 329 252 475z" />
    <glyph glyph-name="backslash.caps" horiz-adv-x="451" 
d="M275 360c5 -146 26 -475 26 -475h-62s-5 329 -12 475c-6 146 -27 475 -27 475h62s5 -329 13 -475z" />
    <glyph glyph-name="exclamdown.caps" horiz-adv-x="290" 
d="M105 -16c-30 0 -49 21 -49 50c0 5 1 12 2 17c25 126 103 280 132 413c6 29 7 47 7 47h34s-6 -18 -12 -47c-29 -133 -12 -296 -46 -419c-12 -43 -40 -61 -68 -61zM258 714c30 0 50 -21 50 -50c0 -34 -28 -70 -67 -70c-30 0 -49 21 -49 50c0 34 28 70 66 70z" />
    <glyph glyph-name="questiondown.caps" horiz-adv-x="409" 
d="M304 510h19c12 -19 23 -52 23 -88c0 -157 -251 -175 -251 -315c0 -32 31 -77 92 -77c42 0 69 17 69 46c0 17 -7 28 -7 28c12 5 21 7 38 7c27 0 50 -18 50 -46c0 -60 -61 -81 -113 -81c-87 0 -174 64 -174 146c0 216 258 196 258 358c0 9 -2 17 -4 22zM371 714
c30 0 50 -21 50 -50c0 -34 -28 -70 -67 -70c-30 0 -49 21 -49 50c0 34 28 70 66 70z" />
    <glyph glyph-name="periodcentered.caps" horiz-adv-x="207" 
d="M125 297c-30 0 -50 21 -50 50c0 34 28 70 67 70c30 0 49 -21 49 -50c0 -34 -28 -70 -66 -70z" />
    <glyph glyph-name="bullet.caps" horiz-adv-x="500" 
d="M100 356c0 97 78 175 175 175s175 -78 175 -175c0 -96 -78 -175 -175 -175s-175 79 -175 175z" />
    <glyph glyph-name="aacute" unicode="&#xe1;" horiz-adv-x="478" 
d="M374 50c34 0 68 49 93 90l15 -10c-23 -54 -79 -147 -149 -147c-31 0 -52 15 -52 57c0 44 20 89 30 115h-4c-29 -60 -83 -172 -185 -172c-61 0 -88 49 -88 114c0 162 137 342 286 342c39 0 60 -17 77 -31c5 16 24 57 58 57c16 0 29 -7 38 -15c-30 -35 -138 -280 -138 -378
c0 -14 5 -22 19 -22zM159 42c84 0 180 211 208 314c-12 29 -35 45 -67 45c-104 0 -188 -153 -188 -284c0 -52 11 -75 47 -75zM560 669c0 -65 -161 -146 -214 -159c0 0 -4 10 -5 13c74 52 141 114 197 177c9 -2 22 -13 22 -31z" />
    <glyph glyph-name="agrave" unicode="&#xe0;" horiz-adv-x="478" 
d="M374 50c34 0 68 49 93 90l15 -10c-23 -54 -79 -147 -149 -147c-31 0 -52 15 -52 57c0 44 20 89 30 115h-4c-29 -60 -83 -172 -185 -172c-61 0 -88 49 -88 114c0 162 137 342 286 342c39 0 60 -17 77 -31c5 16 24 57 58 57c16 0 29 -7 38 -15c-30 -35 -138 -280 -138 -378
c0 -14 5 -22 19 -22zM159 42c84 0 180 211 208 314c-12 29 -35 45 -67 45c-104 0 -188 -153 -188 -284c0 -52 11 -75 47 -75zM220 669c0 18 13 29 22 31c56 -63 123 -125 197 -177c-1 -3 -5 -13 -5 -13c-53 13 -214 94 -214 159z" />
    <glyph glyph-name="adieresis" unicode="&#xe4;" horiz-adv-x="478" 
d="M374 50c34 0 68 49 93 90l15 -10c-23 -54 -79 -147 -149 -147c-31 0 -52 15 -52 57c0 44 20 89 30 115h-4c-29 -60 -83 -172 -185 -172c-61 0 -88 49 -88 114c0 162 137 342 286 342c39 0 60 -17 77 -31c5 16 24 57 58 57c16 0 29 -7 38 -15c-30 -35 -138 -280 -138 -378
c0 -14 5 -22 19 -22zM159 42c84 0 180 211 208 314c-12 29 -35 45 -67 45c-104 0 -188 -153 -188 -284c0 -52 11 -75 47 -75zM294 546c-24 0 -40 17 -40 40c0 27 22 56 54 56c24 0 39 -17 39 -40c0 -27 -23 -56 -53 -56zM464 546c-24 0 -40 17 -40 40c0 27 22 56 54 56
c24 0 39 -17 39 -40c0 -27 -23 -56 -53 -56z" />
    <glyph glyph-name="acircumflex" unicode="&#xe2;" horiz-adv-x="478" 
d="M374 50c34 0 68 49 93 90l15 -10c-23 -54 -79 -147 -149 -147c-31 0 -52 15 -52 57c0 44 20 89 30 115h-4c-29 -60 -83 -172 -185 -172c-61 0 -88 49 -88 114c0 162 137 342 286 342c39 0 60 -17 77 -31c5 16 24 57 58 57c16 0 29 -7 38 -15c-30 -35 -138 -280 -138 -378
c0 -14 5 -22 19 -22zM159 42c84 0 180 211 208 314c-12 29 -35 45 -67 45c-104 0 -188 -153 -188 -284c0 -52 11 -75 47 -75zM196 520l198 180s48 -111 109 -173c0 -10 -8 -26 -30 -26c-53 0 -91 121 -93 153l-146 -153z" />
    <glyph glyph-name="atilde" unicode="&#xe3;" horiz-adv-x="478" 
d="M374 50c34 0 68 49 93 90l15 -10c-23 -54 -79 -147 -149 -147c-31 0 -52 15 -52 57c0 44 20 89 30 115h-4c-29 -60 -83 -172 -185 -172c-61 0 -88 49 -88 114c0 162 137 342 286 342c39 0 60 -17 77 -31c5 16 24 57 58 57c16 0 29 -7 38 -15c-30 -35 -138 -280 -138 -378
c0 -14 5 -22 19 -22zM159 42c84 0 180 211 208 314c-12 29 -35 45 -67 45c-104 0 -188 -153 -188 -284c0 -52 11 -75 47 -75zM327 639c59 0 75 -48 128 -48c29 0 58 14 80 51l10 -16c-23 -54 -67 -90 -122 -90c-61 0 -75 48 -128 48c-29 0 -58 -14 -80 -51l-10 16
c23 54 67 90 122 90z" />
    <glyph glyph-name="aring" unicode="&#xe5;" horiz-adv-x="478" 
d="M374 50c34 0 68 49 93 90l15 -10c-23 -54 -79 -147 -149 -147c-31 0 -52 15 -52 57c0 44 20 89 30 115h-4c-29 -60 -83 -172 -185 -172c-61 0 -88 49 -88 114c0 162 137 342 286 342c39 0 60 -17 77 -31c5 16 24 57 58 57c16 0 29 -7 38 -15c-30 -35 -138 -280 -138 -378
c0 -14 5 -22 19 -22zM159 42c84 0 180 211 208 314c-12 29 -35 45 -67 45c-104 0 -188 -153 -188 -284c0 -52 11 -75 47 -75zM393 685c-43 0 -66 -46 -66 -80s23 -46 48 -46c43 0 66 46 66 80s-23 46 -48 46zM355 530c-38 0 -65 22 -65 61c0 67 61 123 123 123
c38 0 65 -22 65 -61c0 -67 -61 -123 -123 -123z" />
    <glyph glyph-name="ccedilla" unicode="&#xe7;" horiz-adv-x="395" 
d="M357 349c4 11 6 20 6 28c0 25 -16 41 -51 41c-116 0 -185 -182 -185 -302c0 -49 24 -75 64 -75c63 0 118 50 151 96l15 -11c-27 -55 -87 -142 -186 -142c-5 0 -9 1 -14 1c-8 -8 -14 -18 -14 -33c0 -34 54 -43 54 -85c0 -67 -82 -95 -132 -95c-38 0 -64 17 -64 43
c0 27 24 43 45 43c7 0 14 -2 17 -5c-9 -6 -17 -16 -17 -28s8 -26 37 -26c27 0 55 13 55 40c0 37 -43 43 -43 90c0 25 19 46 39 58c-61 11 -89 50 -89 118c0 163 140 361 318 361c35 0 73 -15 73 -55c0 -38 -32 -64 -65 -64c-5 0 -11 1 -14 2z" />
    <glyph glyph-name="eacute" unicode="&#xe9;" horiz-adv-x="404" 
d="M346 390c0 23 -13 36 -34 36c-84 0 -142 -126 -163 -185c68 20 197 63 197 149zM423 397c0 -78 -95 -134 -282 -183c-10 -34 -15 -63 -15 -98c0 -37 17 -75 69 -75c63 0 126 61 150 96l15 -11c-14 -25 -83 -142 -194 -142c-80 0 -122 45 -122 121c0 143 116 361 302 361
c57 0 77 -36 77 -69zM530 669c0 -65 -161 -146 -214 -159c0 0 -4 10 -5 13c74 52 141 114 197 177c9 -2 22 -13 22 -31z" />
    <glyph glyph-name="egrave" unicode="&#xe8;" horiz-adv-x="404" 
d="M346 390c0 23 -13 36 -34 36c-84 0 -142 -126 -163 -185c68 20 197 63 197 149zM423 397c0 -78 -95 -134 -282 -183c-10 -34 -15 -63 -15 -98c0 -37 17 -75 69 -75c63 0 126 61 150 96l15 -11c-14 -25 -83 -142 -194 -142c-80 0 -122 45 -122 121c0 143 116 361 302 361
c57 0 77 -36 77 -69zM245 669c0 18 13 29 22 31c56 -63 123 -125 197 -177c-1 -3 -5 -13 -5 -13c-53 13 -214 94 -214 159z" />
    <glyph glyph-name="ecircumflex" unicode="&#xea;" horiz-adv-x="404" 
d="M346 390c0 23 -13 36 -34 36c-84 0 -142 -126 -163 -185c68 20 197 63 197 149zM423 397c0 -78 -95 -134 -282 -183c-10 -34 -15 -63 -15 -98c0 -37 17 -75 69 -75c63 0 126 61 150 96l15 -11c-14 -25 -83 -142 -194 -142c-80 0 -122 45 -122 121c0 143 116 361 302 361
c57 0 77 -36 77 -69zM182 520l198 180s48 -111 109 -173c0 -10 -8 -26 -30 -26c-53 0 -91 121 -93 153l-146 -153z" />
    <glyph glyph-name="edieresis" unicode="&#xeb;" horiz-adv-x="404" 
d="M346 390c0 23 -13 36 -34 36c-84 0 -142 -126 -163 -185c68 20 197 63 197 149zM423 397c0 -78 -95 -134 -282 -183c-10 -34 -15 -63 -15 -98c0 -37 17 -75 69 -75c63 0 126 61 150 96l15 -11c-14 -25 -83 -142 -194 -142c-80 0 -122 45 -122 121c0 143 116 361 302 361
c57 0 77 -36 77 -69zM274 546c-24 0 -40 17 -40 40c0 27 22 56 54 56c24 0 39 -17 39 -40c0 -27 -23 -56 -53 -56zM444 546c-24 0 -40 17 -40 40c0 27 22 56 54 56c24 0 39 -17 39 -40c0 -27 -23 -56 -53 -56z" />
    <glyph glyph-name="ntilde" unicode="&#xf1;" horiz-adv-x="529" 
d="M398 50c25 0 65 52 86 82l15 -11c-32 -59 -89 -137 -158 -137c-24 0 -38 9 -38 38c0 27 11 70 34 136l60 171c8 23 12 38 12 50c0 11 -3 20 -15 20c-101 0 -276 -303 -276 -407c0 0 -12 -8 -36 -8c-23 0 -38 13 -38 35c0 9 2 19 5 29l91 289c3 10 7 22 7 32
c0 23 -22 28 -64 28v22s97 4 184 46c-78 -193 -106 -263 -114 -285h4c70 129 178 286 279 286c39 0 53 -18 53 -50c0 -19 -8 -57 -19 -88l-60 -170c-17 -48 -27 -78 -27 -94c0 -10 5 -14 15 -14zM345 639c59 0 75 -48 128 -48c29 0 58 14 80 51l10 -16
c-23 -54 -67 -90 -122 -90c-61 0 -75 48 -128 48c-29 0 -58 -14 -80 -51l-10 16c23 54 67 90 122 90z" />
    <glyph glyph-name="oacute" unicode="&#xf3;" horiz-adv-x="435" 
d="M161 -16c-70 0 -116 51 -116 139c0 148 119 343 273 343c71 0 117 -51 117 -140c0 -148 -119 -342 -274 -342zM190 21c91 0 163 182 163 295c0 73 -21 112 -63 112c-91 0 -163 -181 -163 -294c0 -73 21 -113 63 -113zM518 669c0 -65 -161 -146 -214 -159c0 0 -4 10 -5 13
c74 52 141 114 197 177c9 -2 22 -13 22 -31z" />
    <glyph glyph-name="ograve" unicode="&#xf2;" horiz-adv-x="435" 
d="M161 -16c-70 0 -116 51 -116 139c0 148 119 343 273 343c71 0 117 -51 117 -140c0 -148 -119 -342 -274 -342zM190 21c91 0 163 182 163 295c0 73 -21 112 -63 112c-91 0 -163 -181 -163 -294c0 -73 21 -113 63 -113zM234 669c0 18 13 29 22 31c56 -63 123 -125 197 -177
c-1 -3 -5 -13 -5 -13c-53 13 -214 94 -214 159z" />
    <glyph glyph-name="ocircumflex" unicode="&#xf4;" horiz-adv-x="435" 
d="M161 -16c-70 0 -116 51 -116 139c0 148 119 343 273 343c71 0 117 -51 117 -140c0 -148 -119 -342 -274 -342zM190 21c91 0 163 182 163 295c0 73 -21 112 -63 112c-91 0 -163 -181 -163 -294c0 -73 21 -113 63 -113zM193 520l198 180s48 -111 109 -173
c0 -10 -8 -26 -30 -26c-53 0 -91 121 -93 153l-146 -153z" />
    <glyph glyph-name="odieresis" unicode="&#xf6;" horiz-adv-x="435" 
d="M161 -16c-70 0 -116 51 -116 139c0 148 119 343 273 343c71 0 117 -51 117 -140c0 -148 -119 -342 -274 -342zM190 21c91 0 163 182 163 295c0 73 -21 112 -63 112c-91 0 -163 -181 -163 -294c0 -73 21 -113 63 -113zM281 546c-24 0 -40 17 -40 40c0 27 22 56 54 56
c24 0 39 -17 39 -40c0 -27 -23 -56 -53 -56zM451 546c-24 0 -40 17 -40 40c0 27 22 56 54 56c24 0 39 -17 39 -40c0 -27 -23 -56 -53 -56z" />
    <glyph glyph-name="otilde" unicode="&#xf5;" horiz-adv-x="435" 
d="M161 -16c-70 0 -116 51 -116 139c0 148 119 343 273 343c71 0 117 -51 117 -140c0 -148 -119 -342 -274 -342zM190 21c91 0 163 182 163 295c0 73 -21 112 -63 112c-91 0 -163 -181 -163 -294c0 -73 21 -113 63 -113zM313 639c59 0 75 -48 128 -48c29 0 58 14 80 51
l10 -16c-23 -54 -67 -90 -122 -90c-61 0 -75 48 -128 48c-29 0 -58 -14 -80 -51l-10 16c23 54 67 90 122 90z" />
    <glyph glyph-name="uacute" unicode="&#xfa;" horiz-adv-x="496" 
d="M145 400c-25 0 -65 -52 -86 -82l-15 10c32 60 89 138 158 138c24 0 38 -9 38 -39c0 -26 -11 -69 -34 -135l-60 -172c-8 -22 -12 -37 -12 -50c0 -10 3 -19 15 -19c101 0 276 303 276 407c0 0 10 8 34 8c23 0 38 -13 38 -36c0 -8 -2 -18 -5 -28l-94 -289
c-3 -10 -7 -22 -7 -32c0 -23 27 -28 69 -28v-22s-97 -4 -184 -46c78 192 106 263 114 285h-4c-70 -129 -178 -286 -279 -286c-39 0 -53 18 -53 50c0 19 8 57 19 87l60 171c17 48 27 78 27 94c0 10 -5 14 -15 14zM540 669c0 -65 -161 -146 -214 -159c0 0 -4 10 -5 13
c74 52 141 114 197 177c9 -2 22 -13 22 -31z" />
    <glyph glyph-name="ugrave" unicode="&#xf9;" horiz-adv-x="496" 
d="M145 400c-25 0 -65 -52 -86 -82l-15 10c32 60 89 138 158 138c24 0 38 -9 38 -39c0 -26 -11 -69 -34 -135l-60 -172c-8 -22 -12 -37 -12 -50c0 -10 3 -19 15 -19c101 0 276 303 276 407c0 0 10 8 34 8c23 0 38 -13 38 -36c0 -8 -2 -18 -5 -28l-94 -289
c-3 -10 -7 -22 -7 -32c0 -23 27 -28 69 -28v-22s-97 -4 -184 -46c78 192 106 263 114 285h-4c-70 -129 -178 -286 -279 -286c-39 0 -53 18 -53 50c0 19 8 57 19 87l60 171c17 48 27 78 27 94c0 10 -5 14 -15 14zM206 669c0 18 13 29 22 31c56 -63 123 -125 197 -177
c-1 -3 -5 -13 -5 -13c-53 13 -214 94 -214 159z" />
    <glyph glyph-name="ucircumflex" unicode="&#xfb;" horiz-adv-x="496" 
d="M145 400c-25 0 -65 -52 -86 -82l-15 10c32 60 89 138 158 138c24 0 38 -9 38 -39c0 -26 -11 -69 -34 -135l-60 -172c-8 -22 -12 -37 -12 -50c0 -10 3 -19 15 -19c101 0 276 303 276 407c0 0 10 8 34 8c23 0 38 -13 38 -36c0 -8 -2 -18 -5 -28l-94 -289
c-3 -10 -7 -22 -7 -32c0 -23 27 -28 69 -28v-22s-97 -4 -184 -46c78 192 106 263 114 285h-4c-70 -129 -178 -286 -279 -286c-39 0 -53 18 -53 50c0 19 8 57 19 87l60 171c17 48 27 78 27 94c0 10 -5 14 -15 14zM209 520l198 180s48 -111 109 -173c0 -10 -8 -26 -30 -26
c-53 0 -91 121 -93 153l-146 -153z" />
    <glyph glyph-name="udieresis" unicode="&#xfc;" horiz-adv-x="496" 
d="M145 400c-25 0 -65 -52 -86 -82l-15 10c32 60 89 138 158 138c24 0 38 -9 38 -39c0 -26 -11 -69 -34 -135l-60 -172c-8 -22 -12 -37 -12 -50c0 -10 3 -19 15 -19c101 0 276 303 276 407c0 0 10 8 34 8c23 0 38 -13 38 -36c0 -8 -2 -18 -5 -28l-94 -289
c-3 -10 -7 -22 -7 -32c0 -23 27 -28 69 -28v-22s-97 -4 -184 -46c78 192 106 263 114 285h-4c-70 -129 -178 -286 -279 -286c-39 0 -53 18 -53 50c0 19 8 57 19 87l60 171c17 48 27 78 27 94c0 10 -5 14 -15 14zM285 546c-24 0 -40 17 -40 40c0 27 22 56 54 56
c24 0 39 -17 39 -40c0 -27 -23 -56 -53 -56zM455 546c-24 0 -40 17 -40 40c0 27 22 56 54 56c24 0 39 -17 39 -40c0 -27 -23 -56 -53 -56z" />
    <glyph glyph-name="dotlessi" unicode="&#x131;" horiz-adv-x="279" 
d="M274 465l-118 -307c-18 -48 -27 -78 -27 -94c0 -10 4 -14 13 -14c25 0 96 67 117 97l15 -10c-32 -59 -118 -153 -187 -153c-24 0 -38 9 -38 38c0 28 6 58 25 110l73 205c3 8 7 20 7 32c0 23 -22 28 -64 28v22s97 4 184 46z" />
    <glyph glyph-name="iacute" unicode="&#xed;" horiz-adv-x="279" 
d="M274 465l-118 -307c-18 -48 -27 -78 -27 -94c0 -10 4 -14 13 -14c25 0 96 67 117 97l15 -10c-32 -59 -118 -153 -187 -153c-24 0 -38 9 -38 38c0 28 6 58 25 110l73 205c3 8 7 20 7 32c0 23 -22 28 -64 28v22s97 4 184 46zM376 669c0 -65 -161 -146 -214 -159
c0 0 -4 10 -5 13c74 52 141 114 197 177c9 -2 22 -13 22 -31z" />
    <glyph glyph-name="igrave" unicode="&#xec;" horiz-adv-x="279" 
d="M274 465l-118 -307c-18 -48 -27 -78 -27 -94c0 -10 4 -14 13 -14c25 0 96 67 117 97l15 -10c-32 -59 -118 -153 -187 -153c-24 0 -38 9 -38 38c0 28 6 58 25 110l73 205c3 8 7 20 7 32c0 23 -22 28 -64 28v22s97 4 184 46zM97 669c0 18 13 29 22 31
c56 -63 123 -125 197 -177c-1 -3 -5 -13 -5 -13c-53 13 -214 94 -214 159z" />
    <glyph glyph-name="icircumflex" unicode="&#xee;" horiz-adv-x="279" 
d="M274 465l-118 -307c-18 -48 -27 -78 -27 -94c0 -10 4 -14 13 -14c25 0 96 67 117 97l15 -10c-32 -59 -118 -153 -187 -153c-24 0 -38 9 -38 38c0 28 6 58 25 110l73 205c3 8 7 20 7 32c0 23 -22 28 -64 28v22s97 4 184 46zM92 520l198 180s48 -111 109 -173
c0 -10 -8 -26 -30 -26c-53 0 -91 121 -93 153l-146 -153z" />
    <glyph glyph-name="idieresis" unicode="&#xef;" horiz-adv-x="279" 
d="M274 465l-118 -307c-18 -48 -27 -78 -27 -94c0 -10 4 -14 13 -14c25 0 96 67 117 97l15 -10c-32 -59 -118 -153 -187 -153c-24 0 -38 9 -38 38c0 28 6 58 25 110l73 205c3 8 7 20 7 32c0 23 -22 28 -64 28v22s97 4 184 46zM149 546c-24 0 -40 17 -40 40c0 27 22 56 54 56
c24 0 39 -17 39 -40c0 -27 -23 -56 -53 -56zM319 546c-24 0 -40 17 -40 40c0 27 22 56 54 56c24 0 39 -17 39 -40c0 -27 -23 -56 -53 -56z" />
    </font>
</defs>
</svg>
