<?xml version="1.0" encoding="UTF-8" standalone="no"?>
<svg width="390px" height="390px" viewBox="0 0 390 390" version="1.1" xmlns="http://www.w3.org/2000/svg" xmlns:xlink="http://www.w3.org/1999/xlink">
    <!-- Generator: Sketch 3.8.3 (29802) - http://www.bohemiancoding.com/sketch -->
    <title>Combined Shape Copy</title>
    <desc>Created with Sketch.</desc>
    <defs></defs>
    <g id="Symbols" stroke="none" stroke-width="1" fill="none" fill-rule="evenodd">
        <g id="Logo---Large" fill="#ffffff">
            <path d="M0,0 L30,0 L30,30 L0,30 L0,0 Z M30,0 L60,0 L60,30 L30,30 L30,0 Z M60,0 L90,0 L90,30 L60,30 L60,0 Z M120,0 L150,0 L150,30 L120,30 L120,0 Z M150,0 L180,0 L180,30 L150,30 L150,0 Z M180,0 L210,0 L210,30 L180,30 L180,0 Z M210,0 L240,0 L240,30 L210,30 L210,0 Z M240,0 L270,0 L270,30 L240,30 L240,0 Z M270,0 L300,0 L300,30 L270,30 L270,0 Z M300,0 L330,0 L330,30 L300,30 L300,0 Z M330,0 L360,0 L360,30 L330,30 L330,0 Z M360,0 L390,0 L390,30 L360,30 L360,0 Z M360,30 L390,30 L390,60 L360,60 L360,30 Z M360,60 L390,60 L390,90 L360,90 L360,60 Z M360,90 L390,90 L390,120 L360,120 L360,90 Z M360,120 L390,120 L390,150 L360,150 L360,120 Z M360,150 L390,150 L390,180 L360,180 L360,150 Z M360,180 L390,180 L390,210 L360,210 L360,180 Z M360,210 L390,210 L390,240 L360,240 L360,210 Z M360,240 L390,240 L390,270 L360,270 L360,240 Z M360,270 L390,270 L390,300 L360,300 L360,270 Z M360,300 L390,300 L390,330 L360,330 L360,300 Z M360,330 L390,330 L390,360 L360,360 L360,330 Z M360,360 L390,360 L390,390 L360,390 L360,360 Z M330,360 L360,360 L360,390 L330,390 L330,360 Z M300,360 L330,360 L330,390 L300,390 L300,360 Z M270,360 L300,360 L300,390 L270,390 L270,360 Z M240,360 L270,360 L270,390 L240,390 L240,360 Z M210,360 L240,360 L240,390 L210,390 L210,360 Z M180,360 L210,360 L210,390 L180,390 L180,360 Z M150,360 L180,360 L180,390 L150,390 L150,360 Z M120,360 L150,360 L150,390 L120,390 L120,360 Z M90,360 L120,360 L120,390 L90,390 L90,360 Z M60,360 L90,360 L90,390 L60,390 L60,360 Z M30,360 L60,360 L60,390 L30,390 L30,360 Z M0,360 L30,360 L30,390 L0,390 L0,360 Z M0,330 L30,330 L30,360 L0,360 L0,330 Z M0,300 L30,300 L30,330 L0,330 L0,300 Z M0,270 L30,270 L30,300 L0,300 L0,270 Z M0,240 L30,240 L30,270 L0,270 L0,240 Z M0,180 L30,180 L30,210 L0,210 L0,180 Z M0,120 L30,120 L30,150 L0,150 L0,120 Z M0,90 L30,90 L30,120 L0,120 L0,90 Z M0,60 L30,60 L30,90 L0,90 L0,60 Z M0,30 L30,30 L30,60 L0,60 L0,30 Z M60,60 L90,60 L90,90 L60,90 L60,60 Z M90,60 L120,60 L120,90 L90,90 L90,60 Z M120,60 L150,60 L150,90 L120,90 L120,60 Z M150,60 L180,60 L180,90 L150,90 L150,60 Z M180,30 L210,30 L210,60 L180,60 L180,30 Z M180,60 L210,60 L210,90 L180,90 L180,60 Z M180,90 L210,90 L210,120 L180,120 L180,90 Z M180,120 L210,120 L210,150 L180,150 L180,120 Z M120,120 L150,120 L150,150 L120,150 L120,120 Z M90,120 L120,120 L120,150 L90,150 L90,120 Z M60,120 L90,120 L90,150 L60,150 L60,120 Z M30,180 L60,180 L60,210 L30,210 L30,180 Z M60,180 L90,180 L90,210 L60,210 L60,180 Z M60,210 L90,210 L90,240 L60,240 L60,210 Z M60,240 L90,240 L90,270 L60,270 L60,240 Z M60,270 L90,270 L90,300 L60,300 L60,270 Z M60,300 L90,300 L90,330 L60,330 L60,300 Z M90,300 L120,300 L120,330 L90,330 L90,300 Z M120,300 L150,300 L150,330 L120,330 L120,300 Z M120,270 L150,270 L150,300 L120,300 L120,270 Z M120,210 L150,210 L150,240 L120,240 L120,210 Z M120,240 L150,240 L150,270 L120,270 L120,240 Z M120,180 L150,180 L150,210 L120,210 L120,180 Z M150,180 L180,180 L180,210 L150,210 L150,180 Z M180,180 L210,180 L210,210 L180,210 L180,180 Z M180,210 L210,210 L210,240 L180,240 L180,210 Z M180,240 L210,240 L210,270 L180,270 L180,240 Z M210,240 L240,240 L240,270 L210,270 L210,240 Z M240,240 L270,240 L270,270 L240,270 L240,240 Z M270,240 L300,240 L300,270 L270,270 L270,240 Z M300,240 L330,240 L330,270 L300,270 L300,240 Z M300,180 L330,180 L330,210 L300,210 L300,180 Z M270,180 L300,180 L300,210 L270,210 L270,180 Z M240,180 L270,180 L270,210 L240,210 L240,180 Z M210,180 L240,180 L240,210 L210,210 L210,180 Z M240,150 L270,150 L270,180 L240,180 L240,150 Z M240,90 L270,90 L270,120 L240,120 L240,90 Z M240,60 L270,60 L270,90 L240,90 L240,60 Z M240,120 L270,120 L270,150 L240,150 L240,120 Z M300,60 L330,60 L330,90 L300,90 L300,60 Z M300,90 L330,90 L330,120 L300,120 L300,90 Z M300,120 L330,120 L330,150 L300,150 L300,120 Z M300,300 L330,300 L330,330 L300,330 L300,300 Z M270,300 L300,300 L300,330 L270,330 L270,300 Z M240,300 L270,300 L270,330 L240,330 L240,300 Z M210,300 L240,300 L240,330 L210,330 L210,300 Z M180,300 L210,300 L210,330 L180,330 L180,300 Z M180,330 L210,330 L210,360 L180,360 L180,330 Z M300,150 L330,150 L330,180 L300,180 L300,150 Z M150,120 L180,120 L180,150 L150,150 L150,120 Z M0,150 L30,150 L30,180 L0,180 L0,150 Z" id="Combined-Shape-Copy"></path>
        </g>
    </g>
</svg>
